<svg id="Layer_1" data-name="Layer 1" xmlns="http://www.w3.org/2000/svg" viewBox="0 0 50 50"><defs><style>.cls-1{fill:#dadada;}</style></defs><title>instagram-idle</title><path class="cls-1" d="M37.78,19.7a9.44,9.44,0,0,0-.6-3.12,6.58,6.58,0,0,0-3.76-3.76,9.44,9.44,0,0,0-3.12-.6c-1.37-.06-1.81-.08-5.3-.08s-3.93,0-5.3.08a9.44,9.44,0,0,0-3.12.6,6.58,6.58,0,0,0-3.76,3.76,9.44,9.44,0,0,0-.6,3.12c-.06,1.37-.08,1.81-.08,5.3s0,3.93.08,5.3a9.44,9.44,0,0,0,.6,3.12,6.58,6.58,0,0,0,3.76,3.76,9.44,9.44,0,0,0,3.12.6c1.37.06,1.81.08,5.3.08s3.93,0,5.3-.08a9.44,9.44,0,0,0,3.12-.6,6.58,6.58,0,0,0,3.76-3.76,9.44,9.44,0,0,0,.6-3.12c.06-1.37.08-1.81.08-5.3S37.85,21.07,37.78,19.7ZM35.47,30.2A7.12,7.12,0,0,1,35,32.59,4.26,4.26,0,0,1,32.59,35a7.12,7.12,0,0,1-2.39.44c-1.36.06-1.76.07-5.2.07s-3.84,0-5.2-.07A7.12,7.12,0,0,1,17.41,35,4.26,4.26,0,0,1,15,32.59a7.12,7.12,0,0,1-.44-2.39c-.06-1.36-.07-1.76-.07-5.2s0-3.84.07-5.2A7.12,7.12,0,0,1,15,17.41,4.26,4.26,0,0,1,17.41,15a7.11,7.11,0,0,1,2.39-.44c1.36-.06,1.76-.07,5.2-.07h0c3.43,0,3.84,0,5.2.08a7.12,7.12,0,0,1,2.39.44A4.26,4.26,0,0,1,35,17.41a7.11,7.11,0,0,1,.44,2.39c.06,1.36.07,1.76.07,5.2S35.53,28.84,35.47,30.2Z"/><path class="cls-1" d="M25,18.4A6.6,6.6,0,1,0,31.6,25,6.6,6.6,0,0,0,25,18.4Zm0,10.89A4.29,4.29,0,1,1,29.29,25,4.29,4.29,0,0,1,25,29.29Z"/><path class="cls-1" d="M33.41,18.13a1.54,1.54,0,1,1-1.54-1.54A1.54,1.54,0,0,1,33.41,18.13Z"/></svg>