<svg id="Layer_1" data-name="Layer 1" xmlns="http://www.w3.org/2000/svg" viewBox="0 0 50 50"><defs><style>.cls-1{fill:#dadada;}</style></defs><title>twitter-idle</title><path class="cls-1" d="M38.62,16.56a11.64,11.64,0,0,1-3.22.88,5.55,5.55,0,0,0,2.46-3.09,11.16,11.16,0,0,1-3.54,1.35,5.58,5.58,0,0,0-9.66,3.82,5.75,5.75,0,0,0,.13,1.27A15.8,15.8,0,0,1,13.28,15,5.58,5.58,0,0,0,15,22.42a5.51,5.51,0,0,1-2.52-.69v.06a5.61,5.61,0,0,0,4.47,5.49,5.57,5.57,0,0,1-1.46.18,4.94,4.94,0,0,1-1.06-.1,5.64,5.64,0,0,0,5.22,3.89,11.22,11.22,0,0,1-6.92,2.38,10.46,10.46,0,0,1-1.34-.08A15.89,15.89,0,0,0,35.84,20.18c0-.25,0-.49,0-.72A11.14,11.14,0,0,0,38.62,16.56Z"/></svg>