<svg id="Layer_1" data-name="Layer 1" xmlns="http://www.w3.org/2000/svg" xmlns:xlink="http://www.w3.org/1999/xlink" viewBox="0 0 54 54"><defs><style>.cls-1{fill:#231f20;}.cls-2{fill:url(#linear-gradient);}.cls-3{fill:#cba07a;}.cls-4{fill:url(#linear-gradient-2);}.cls-5{fill:url(#linear-gradient-3);}.cls-6{fill:url(#linear-gradient-4);}.cls-7{fill:url(#linear-gradient-5);}.cls-8{fill:url(#linear-gradient-6);}.cls-9{fill:url(#linear-gradient-7);}</style><linearGradient id="linear-gradient" x1="50.14" y1="26.25" x2="50.14" y2="78.07" gradientTransform="matrix(1, 0, 0, -1, 0, 102)" gradientUnits="userSpaceOnUse"><stop offset="0" stop-color="#d1a788"/><stop offset="1" stop-color="#f2d3b8"/></linearGradient><linearGradient id="linear-gradient-2" x1="64.96" y1="47.24" x2="64.96" y2="57.11" gradientTransform="matrix(1, 0, 0, -1, -23, 79)" gradientUnits="userSpaceOnUse"><stop offset="0" stop-color="#9b756d"/><stop offset="1" stop-color="#bc9388"/></linearGradient><linearGradient id="linear-gradient-3" x1="36.57" y1="39.83" x2="36.57" y2="47.24" xlink:href="#linear-gradient-2"/><linearGradient id="linear-gradient-4" x1="32.86" y1="57.73" x2="32.86" y2="63.9" xlink:href="#linear-gradient-2"/><linearGradient id="linear-gradient-5" x1="48.91" y1="51.56" x2="48.91" y2="57.73" xlink:href="#linear-gradient-2"/><linearGradient id="linear-gradient-6" x1="46.44" y1="69.46" x2="46.44" y2="74.4" xlink:href="#linear-gradient-2"/><linearGradient id="linear-gradient-7" x1="52.62" y1="33.66" x2="52.62" y2="38.6" xlink:href="#linear-gradient-2"/></defs><title>cookie</title><g id="Cookies"><path class="cls-1" d="M77,50A27,27,0,0,1,54.23,76.67a25.23,25.23,0,0,1-2.77.28c-.48,0-1,0-1.46,0a26.32,26.32,0,0,1-5.72-.62,24.35,24.35,0,0,1-2.7-.72l-.13,0q-.46-.15-.93-.33a6.43,6.43,0,0,1-.61-.24c-.25-.09-.49-.19-.73-.3l-.51-.23-.58-.28c-.24-.11-.48-.23-.72-.37s-.31-.16-.46-.24-.4-.22-.59-.35-.51-.3-.76-.46l-.19-.13q-.52-.33-1-.69A26.88,26.88,0,0,1,23.1,52.19c0-.26,0-.53-.06-.8,0-.46,0-.92,0-1.39a27,27,0,0,1,54,0Z" transform="translate(-23 -23)"/><path class="cls-2" d="M76.07,49.82A25.93,25.93,0,0,1,50.15,75.75h0C27,75.75,15.58,47.68,31.81,31.49S76.07,26.82,76.07,49.82Z" transform="translate(-23 -23)"/><path class="cls-3" d="M50.15,75.75c-16.38,0-26.86-14-25.85-28a25.93,25.93,0,0,0,51.7.19A25.93,25.93,0,0,1,52,75.68Q51.1,75.75,50.15,75.75Z" transform="translate(-23 -23)"/><circle class="cls-4" cx="41.96" cy="26.82" r="4.94"/><circle class="cls-5" cx="13.57" cy="35.47" r="3.7"/><circle class="cls-6" cx="9.86" cy="18.18" r="3.09"/><circle class="cls-7" cx="25.91" cy="24.36" r="3.09"/><circle class="cls-8" cx="23.44" cy="7.07" r="2.47"/><circle class="cls-9" cx="29.62" cy="42.87" r="2.47"/><path class="cls-1" d="M50,23A27,27,0,0,0,23,50c0,.47,0,.93,0,1.39,0,.27,0,.54.06.8A27.79,27.79,0,0,0,34.35,72q.5.36,1,.69l.19.13c.25.16.5.32.76.46s.39.24.59.35.3.17.46.24.48.26.72.37l.58.28.51.23c.24.11.48.21.73.3a6.43,6.43,0,0,0,.61.24q.46.18.93.33l.13,0q1.3.42,2.7.72a28.56,28.56,0,0,0,5.87.6c.44,0,.88,0,1.31,0a25.23,25.23,0,0,0,2.77-.28A27,27,0,0,0,50,23ZM26.31,56.06A24.68,24.68,0,1,1,50.15,74.52,24.27,24.27,0,0,1,27.39,59.29,24,24,0,0,1,26.31,56.06Z" transform="translate(-23 -23)"/><path class="cls-1" d="M65,43.65a6.18,6.18,0,1,0,6.17,6.17A6.17,6.17,0,0,0,65,43.65Zm0,9.88a3.7,3.7,0,1,1,3.71-3.71A3.71,3.71,0,0,1,65,53.53Z" transform="translate(-23 -23)"/><path class="cls-1" d="M36.57,53.53a4.94,4.94,0,1,0,4.94,4.94A4.94,4.94,0,0,0,36.57,53.53Zm0,7.41A2.47,2.47,0,1,1,39,58.47,2.47,2.47,0,0,1,36.57,60.94Z" transform="translate(-23 -23)"/><path class="cls-1" d="M32.86,36.86a4.32,4.32,0,1,0,4.32,4.32A4.33,4.33,0,0,0,32.86,36.86Zm0,6.17a1.85,1.85,0,1,1,1.86-1.85A1.85,1.85,0,0,1,32.86,43Z" transform="translate(-23 -23)"/><path class="cls-1" d="M48.91,43a4.33,4.33,0,1,0,4.32,4.33A4.33,4.33,0,0,0,48.91,43Zm0,6.18a1.85,1.85,0,1,1,1.85-1.85A1.85,1.85,0,0,1,48.91,49.21Z" transform="translate(-23 -23)"/><path class="cls-1" d="M46.44,26.37a3.7,3.7,0,1,0,3.71,3.7A3.7,3.7,0,0,0,46.44,26.37Zm0,4.94a1.24,1.24,0,1,1,1.24-1.24A1.24,1.24,0,0,1,46.44,31.31Z" transform="translate(-23 -23)"/><path class="cls-1" d="M55.24,63.26a3.71,3.71,0,1,0,1.08,2.61A3.68,3.68,0,0,0,55.24,63.26Zm-2.62,3.85a1.23,1.23,0,1,1,1.23-1.24A1.23,1.23,0,0,1,52.62,67.11Z" transform="translate(-23 -23)"/></g></svg>