<svg id="Capa_1" data-name="Capa 1" xmlns="http://www.w3.org/2000/svg" xmlns:xlink="http://www.w3.org/1999/xlink" viewBox="0 0 512 407.42"><defs><style>.cls-1{fill:url(#linear-gradient);}</style><linearGradient id="linear-gradient" x1="256" y1="125" x2="256" y2="338.6" gradientUnits="userSpaceOnUse"><stop offset="0" stop-color="#ffc342"/><stop offset="1" stop-color="#ffae00"/></linearGradient></defs><title>laurel</title><path class="cls-1" d="M503,253a49.43,49.43,0,0,0-16.77-6.27,49.37,49.37,0,0,0,24.13-56.11,10,10,0,0,0-7.08-7.08,49.48,49.48,0,0,0-12.76-1.67,50.51,50.51,0,0,0-5.18.27,49.12,49.12,0,0,0,7.82-60.59,10,10,0,0,0-8.76-4.86,49.16,49.16,0,0,0-17.66,3.66A49,49,0,0,0,472,107.06a49.47,49.47,0,0,0-14.4-47.14,10,10,0,0,0-9.76-2.25,49.28,49.28,0,0,0-20.26,12.18A49,49,0,0,0,382,39.46l-1.68,0a10,10,0,0,0-8.49,5.31,49.48,49.48,0,0,0,1.73,49.26,50,50,0,0,0,4.83,6.46,49.48,49.48,0,0,0-19.79,12.89,10,10,0,0,0-2.25,9.76,49.48,49.48,0,0,0,22.51,28.23,9.9,9.9,0,0,0-.45,3.08,49.47,49.47,0,0,0,13.86,33.34,9.89,9.89,0,0,0-1.28,2.84,49.46,49.46,0,0,0,4.13,35.87,9.83,9.83,0,0,0-2,2.37,49.47,49.47,0,0,0-5.92,35.62,10,10,0,0,0-2.59,1.73,49.47,49.47,0,0,0-15.51,32.61,9.92,9.92,0,0,0-3,.95,49.47,49.47,0,0,0-23.89,27.07,10,10,0,0,0-3.11.1,49.28,49.28,0,0,0-34.92,69.91,186.14,186.14,0,0,1-96.42,0A49.28,49.28,0,0,0,172.87,327a9.93,9.93,0,0,0-3.11-.09,49.48,49.48,0,0,0-23.89-27.07,10,10,0,0,0-3-.95,49.47,49.47,0,0,0-15.51-32.61,9.93,9.93,0,0,0-2.59-1.73,49.47,49.47,0,0,0-5.92-35.62,10,10,0,0,0-2-2.38A49.46,49.46,0,0,0,121,190.65a10,10,0,0,0-1.28-2.84,49.48,49.48,0,0,0,13.86-33.34,9.94,9.94,0,0,0-.45-3.08,49.47,49.47,0,0,0,22.51-28.23,10,10,0,0,0-2.25-9.76,49.51,49.51,0,0,0-19.79-12.89,49.19,49.19,0,0,0,6.56-55.72,10,10,0,0,0-8.49-5.31l-1.68,0a49,49,0,0,0-45.53,30.4A49.29,49.29,0,0,0,64.18,57.67a10,10,0,0,0-9.76,2.25,49.11,49.11,0,0,0-9.15,60.46,49.15,49.15,0,0,0-17.66-3.66,10,10,0,0,0-8.76,4.85,49.11,49.11,0,0,0,7.82,60.59,50.2,50.2,0,0,0-5.18-.27,49.51,49.51,0,0,0-12.76,1.67,10,10,0,0,0-7.08,7.08A49.37,49.37,0,0,0,25.8,246.76,49.48,49.48,0,0,0,9,253a10,10,0,0,0-4.86,8.76,49.2,49.2,0,0,0,38.74,47.26,49.43,49.43,0,0,0-14.47,10.67,10,10,0,0,0-2.25,9.76,49.35,49.35,0,0,0,47.18,34.88c1,0,2.08,0,3.11-.11a49.18,49.18,0,0,0-11,14.23,10,10,0,0,0,.52,10,49.12,49.12,0,0,0,41.3,22.44c.87,0,1.75,0,2.62-.07A49,49,0,0,0,124,408a49.14,49.14,0,0,0-6.67,16.76,10,10,0,0,0,3.26,9.47,49.26,49.26,0,0,0,78.16-19.11q8.59,2.49,17.47,4.24a57,57,0,0,0-9.81,12.53,10,10,0,0,0,17.32,10,37.3,37.3,0,0,1,64.61,0,10,10,0,0,0,17.32-10,57,57,0,0,0-9.81-12.53q8.87-1.74,17.47-4.24a49.29,49.29,0,0,0,45.82,31.2h0a49.33,49.33,0,0,0,32.33-12.1,10,10,0,0,0,3.26-9.47A49.16,49.16,0,0,0,388,408a49,49,0,0,0,14,2.86c.87,0,1.75,0,2.62.07A49.13,49.13,0,0,0,446,388.48a10,10,0,0,0,.52-10,49.21,49.21,0,0,0-11-14.23c1,.07,2.07.11,3.11.11h0a49.35,49.35,0,0,0,47.17-34.88,10,10,0,0,0-2.25-9.76,49.44,49.44,0,0,0-14.47-10.67,49.2,49.2,0,0,0,38.74-47.26A10,10,0,0,0,503,253ZM117.79,285.55A29.27,29.27,0,0,1,108,327.87a29.28,29.28,0,0,1,9.77-42.32ZM85.37,259.13a29.4,29.4,0,0,1,19-14.32,29.28,29.28,0,0,1-21.06,38A29.39,29.39,0,0,1,85.37,259.13Zm-12-26.44q-.73,0-1.47,0a29.4,29.4,0,0,1,8.54-22.18,29.09,29.09,0,0,1,20.71-8.58c.49,0,1,0,1.47,0a29.4,29.4,0,0,1-8.54,22.18A29.09,29.09,0,0,1,73.38,232.7ZM105.1,73.23a29.12,29.12,0,0,1,19.68-13.32,29.41,29.41,0,0,1-3.33,23.54,29.11,29.11,0,0,1-19.68,13.32A29.42,29.42,0,0,1,105.1,73.23Zm5.64,45.26A29.18,29.18,0,0,1,134.07,123a29.36,29.36,0,0,1-25.61,15h0a29.34,29.34,0,0,1-16.71-5.27A29.41,29.41,0,0,1,110.74,118.49ZM89.13,162.35a29.23,29.23,0,0,1,23.67-2.1,29.27,29.27,0,0,1-38,21.07A29.4,29.4,0,0,1,89.13,162.35ZM64,79.23a29.23,29.23,0,0,1,13,36.17q-1.73,3-3.35,6.1A29.27,29.27,0,0,1,64,79.23ZM33.41,137.49a29.22,29.22,0,0,1,22.51,31q-.84,3.47-1.57,7a29.27,29.27,0,0,1-20.94-38ZM20,201.93q.73,0,1.47,0a29.23,29.23,0,0,1,28.76,23.91c.09,2.29.21,4.58.38,6.85-.46,0-.91,0-1.37,0a29.1,29.1,0,0,1-20.71-8.58A29.4,29.4,0,0,1,20,201.93Zm19.22,84.61a29.41,29.41,0,0,1-14.32-19,29.24,29.24,0,0,1,35.58,14.5q1.1,3.33,2.31,6.6a29.19,29.19,0,0,1-23.58-2.13Zm34.11,57.82a29.35,29.35,0,0,1-25.62-15,29.24,29.24,0,0,1,38.61,4.57q1.82,2.63,3.71,5.21A29.34,29.34,0,0,1,73.37,344.36Zm35.52,46.51a29.13,29.13,0,0,1-22.2-8.48A29.3,29.3,0,0,1,125,376c1.68,1.39,3.39,2.75,5.12,4.08A29.41,29.41,0,0,1,108.89,390.88ZM142,321a29.28,29.28,0,0,1,2.27,43.38A29.28,29.28,0,0,1,142,321Zm20.47,103.7a29.5,29.5,0,0,1-23.68-2,29.24,29.24,0,0,1,34.72-16.72q3.13,1.37,6.31,2.65A29.41,29.41,0,0,1,162.43,424.7Zm26.67-35.21A29.28,29.28,0,0,1,175,348.42a29.27,29.27,0,0,1,14.14,41.07ZM490.51,201.9q.73,0,1.47,0a29.41,29.41,0,0,1-8.54,22.18,29.1,29.1,0,0,1-20.71,8.58c-.46,0-.91,0-1.37,0,.17-2.27.29-4.56.38-6.85a29.23,29.23,0,0,1,28.76-23.91Zm-30.87-50.09a29.4,29.4,0,0,1,19-14.32,29.27,29.27,0,0,1-20.94,38q-.72-3.5-1.57-7A29.32,29.32,0,0,1,459.64,151.81ZM433.7,98.22a29.41,29.41,0,0,1,14.28-19,29.27,29.27,0,0,1-9.68,42.27q-1.62-3.07-3.35-6.1A29.31,29.31,0,0,1,433.7,98.22ZM417.92,224.12a29.4,29.4,0,0,1-8.54-22.18q.73,0,1.47,0a29.1,29.1,0,0,1,20.71,8.58,29.4,29.4,0,0,1,8.54,22.18c-.49,0-1,0-1.47,0A29.09,29.09,0,0,1,417.92,224.12Zm10.81,58.69a29.28,29.28,0,0,1-21.06-38,29.28,29.28,0,0,1,21.06,38Zm8.46-101.48a29.28,29.28,0,0,1-38-21.07,29.29,29.29,0,0,1,38,21.07Zm-50-121.41a29.29,29.29,0,0,1,23,36.86,29.29,29.29,0,0,1-23-36.86ZM377.93,123a29.28,29.28,0,0,1,42.33,9.78A29.28,29.28,0,0,1,377.93,123Zm16.28,162.56A29.27,29.27,0,0,1,404,327.87a29.28,29.28,0,0,1-9.77-42.32ZM322.9,389.49A29.28,29.28,0,0,1,337,348.42a29.27,29.27,0,0,1-14.14,41.07Zm26.68,35.21a29.4,29.4,0,0,1-17.36-16.11q3.23-1.29,6.41-2.7a29.27,29.27,0,0,1,34.62,16.76A29.49,29.49,0,0,1,349.57,424.7Zm29-81.5a29.4,29.4,0,0,1-10.77,21.18A29.28,29.28,0,0,1,370,321,29.4,29.4,0,0,1,378.54,343.2Zm26.15,47.72q-.78,0-1.57,0a29.39,29.39,0,0,1-21.18-10.77c1.73-1.34,3.44-2.7,5.12-4.09a29.3,29.3,0,0,1,38.26,6.37A29.14,29.14,0,0,1,404.69,390.92Zm40.57-47.32a29.48,29.48,0,0,1-6.62.76h0a29.33,29.33,0,0,1-16.7-5.26q1.89-2.57,3.71-5.21a29.23,29.23,0,0,1,38.61-4.57A29.41,29.41,0,0,1,445.26,343.6Zm27.48-57.06a29.19,29.19,0,0,1-23.57,2.13q1.21-3.27,2.31-6.59a29.23,29.23,0,0,1,35.59-14.51A29.41,29.41,0,0,1,472.74,286.54Z" transform="translate(0 -39.46)"/></svg>