<svg id="Layer_1" data-name="Layer 1" xmlns="http://www.w3.org/2000/svg" viewBox="0 0 937.83 345.55"><defs><style>.cls-1{fill:#fdcf1c;}.cls-2{fill:#0083ff;}.cls-3{fill:#fe5f6e;}.cls-4{fill:#efad1b;}.cls-5{fill:#d8950f;}.cls-6{fill:#fdc741;}.cls-7{fill:#fcea42;}.cls-8{fill:#ffb5c5;}.cls-9{fill:#fff;}.cls-10{fill:#ebf9ff;}</style></defs><title>logo-summer-update</title><path class="cls-1" d="M741.59,598.76a4.57,4.57,0,0,1-2.93-5.76l31.12-95.52a4.57,4.57,0,0,1,8.68,2.83l-31.12,95.52A4.57,4.57,0,0,1,741.59,598.76Z" transform="translate(-71.09 -341.85)"/><path class="cls-1" d="M792.73,454.66a4.57,4.57,0,0,1-2.93-5.76l4.24-13a4.57,4.57,0,0,1,8.68,2.83l-4.24,13A4.57,4.57,0,0,1,792.73,454.66Z" transform="translate(-71.09 -341.85)"/><path class="cls-2" d="M839.7,506.05c0,.06,0,.12,0,.17q0,.88,0,1.76a0,0,0,0,1,0,0,63.94,63.94,0,0,1-2.94,17.91l-.21.65L715,487l.21-.63.21-.63.22-.62a64.57,64.57,0,0,1,3.39-7.77l.3-.57.3-.56.31-.56.31-.56.39-.66.47-.79c.3-.5.61-1,.93-1.48l.11-.17a63.94,63.94,0,0,1,113.32,11.9l0,.09q.27.71.53,1.44l.29.83.21.63c.16.49.32,1,.47,1.47v0c.11.37.22.75.33,1.12v0c.09.33.18.65.27,1s.23.86.33,1.3q.09.36.17.72l0,.1.11.51c0,.22.1.44.14.66l.1.46c0,.24.09.47.14.71s.06.33.09.49.09.49.13.73l.08.47c0,.25.08.51.12.76l.07.44c0,.11,0,.23,0,.34,0,.29.08.57.11.86s0,.33.06.49,0,.28,0,.42.06.52.08.78,0,.26,0,.39,0,.5.07.75,0,.32,0,.48v0c0,.25,0,.51,0,.76s0,.3,0,.45,0,.5,0,.75,0,.22,0,.33,0,.3,0,.45C839.69,505.41,839.7,505.73,839.7,506.05Z" transform="translate(-71.09 -341.85)"/><path class="cls-3" d="M749.71,498.28c10.94-33.57,31.47-57,45.86-52.3s17.19,35.7,6.25,69.28Z" transform="translate(-71.09 -341.85)"/><path class="cls-4" d="M212,636c-3-15,19.8-21.25,45.24-35.54s48.57-32.46,74.38-46.05c82.79-43.61,183.83-35.42,273.48-8.6,47.39,14.18,93.27,33.17,141,46.27S806.59,620.17,855,610c-17.77,21.14-10.32,21-37.92,20.08C543,621,771,662,219,640" transform="translate(-71.09 -341.85)"/><path class="cls-3" d="M317.19,616.29,277,609.21l-.28-52.63a97.91,97.91,0,0,1,26-67L314,477.44a8.16,8.16,0,0,1,13.52,2.38l6.42,15.31a97.91,97.91,0,0,1,1.52,71.8Z" transform="translate(-71.09 -341.85)"/><path class="cls-2" d="M329.36,583.47l-6.56,17.69-20.74-16.54-25.14,8.45-.11-18.87,28.8-9.67Z" transform="translate(-71.09 -341.85)"/><path class="cls-1" d="M325.25,476.72,302,608.54l-8.2-.57,23.42-132.67a8.29,8.29,0,0,1,8,1.43Z" transform="translate(-71.09 -341.85)"/><path class="cls-5" d="M230.88,650.11,381.8,570.16c15.26-8.08,31.73-16.41,48.89-14.44,41.15,4.73,58,62.92,98.65,71,25.14,5,49.37-11.51,67.61-29.52s35.22-39.19,59.43-47.6c38.56-13.39,79.25,10.14,113.35,32.58s75,45.72,113.43,31.86a2613,2613,0,0,1-652.72,34.77" transform="translate(-71.09 -341.85)"/><path d="M130.1,554.84a37.73,37.73,0,0,1,19.73-5.71V595H137.65q-12.19,0-17.9,4.26T114,614.34V659h-43V549.91h43V570A52.16,52.16,0,0,1,130.1,554.84Z" transform="translate(-71.09 -341.85)"/><path d="M161.54,574.58q5.9-12.67,16.16-19.35a41.29,41.29,0,0,1,23-6.67,36.92,36.92,0,0,1,18.38,4.35,29.5,29.5,0,0,1,11.8,11.9v-14.9h42.76V659H230.9v-14.9A29.49,29.49,0,0,1,219.1,656q-7.74,4.36-18.38,4.36a41.29,41.29,0,0,1-23-6.67q-10.25-6.67-16.16-19.35t-5.9-29.89Q155.64,587.25,161.54,574.58Zm64.91,16.35a15.89,15.89,0,0,0-22.83,0q-4.45,4.84-4.45,13.55T203.62,618a15.89,15.89,0,0,0,22.83,0q4.45-4.84,4.45-13.54T226.45,590.93Z" transform="translate(-71.09 -341.85)"/><path d="M398.76,561.71q10.54,12.58,10.54,34.05V659H366.54V601.18q0-7.74-4.16-12.29a14.35,14.35,0,0,0-11.12-4.55q-7.16,0-11.22,4.55T336,601.18V659H293V549.91h43v16.64A38.84,38.84,0,0,1,349.41,554q8.42-4.83,20-4.84Q388.21,549.13,398.76,561.71Z" transform="translate(-71.09 -341.85)"/><path d="M428,574.58q5.9-12.67,16.16-19.35a41.29,41.29,0,0,1,23-6.67q10.64,0,18.29,4.35a29.71,29.71,0,0,1,11.71,11.9v-49h43V659h-43v-14.9A29.7,29.7,0,0,1,485.44,656q-7.65,4.36-18.29,4.36a41.29,41.29,0,0,1-23-6.67Q433.87,647,428,634.37t-5.9-29.89Q422.07,587.25,428,574.58Zm64.91,16.35a15.89,15.89,0,0,0-22.83,0q-4.46,4.84-4.45,13.55T470.06,618a15.89,15.89,0,0,0,22.83,0q4.45-4.84,4.45-13.54T492.89,590.93Z" transform="translate(-71.09 -341.85)"/><path d="M737.55,561.71q11.51,12.58,11.52,34.05V659H706.3V601.18q0-7-4.16-10.93t-11.12-4q-7.16,0-11.22,4t-4.06,10.93V659H633V601.18q0-7-4.16-10.93t-11.12-4q-7.16,0-11.22,4t-4.06,10.93V659h-43V549.91h43v14.71a34,34,0,0,1,12.67-11.22,39.72,39.72,0,0,1,18.86-4.26,41.85,41.85,0,0,1,20.9,5.13,38.48,38.48,0,0,1,14.51,14.41,49.09,49.09,0,0,1,15.29-14,39.44,39.44,0,0,1,20.51-5.52Q726,549.13,737.55,561.71Z" transform="translate(-71.09 -341.85)"/><path d="M771.31,535.2a19.29,19.29,0,0,1-6.77-15.09,19.8,19.8,0,0,1,6.77-15.38q6.77-6.1,18-6.1,11,0,17.8,6.1a19.81,19.81,0,0,1,6.77,15.38,19.31,19.31,0,0,1-6.77,15.09q-6.77,6-17.8,6Q778.08,541.2,771.31,535.2Zm39.28,14.71V659h-43V549.91Z" transform="translate(-71.09 -341.85)"/><path d="M871.15,623.43h45.47V659H824.13V625.37l41.6-39.86h-41v-35.6h90v33.67Z" transform="translate(-71.09 -341.85)"/><path d="M989.18,554.84a37.74,37.74,0,0,1,19.74-5.71V595H996.72q-12.19,0-17.9,4.26t-5.71,15.09V659h-43V549.91h43V570A52.22,52.22,0,0,1,989.18,554.84Z" transform="translate(-71.09 -341.85)"/><path class="cls-6" d="M185,661c17.72-53.69,79-40.43,135.17-46.72s110.42-14.4,165.55-1.83,115.08,29.37,169.93,15.66c30.24-7.56,56.37-2.69,86.73-9.73C812,602.23,849.76,633.68,916.62,659c-253.79,46.9-473.82,19.1-731.31,1.49" transform="translate(-71.09 -341.85)"/><path class="cls-7" d="M206.56,661.92c109-52.94,241-50.57,350.58,1.23C384,675.33,335,667.49,206.56,661.92" transform="translate(-71.09 -341.85)"/><path class="cls-7" d="M576.83,396.79h6.45a6.06,6.06,0,0,0,0-12.12h-6.45a6.06,6.06,0,0,0,0,12.12Z" transform="translate(-71.09 -341.85)"/><path class="cls-7" d="M619.57,411.09a20.37,20.37,0,1,0-20.37-20.37A20.39,20.39,0,0,0,619.57,411.09Z" transform="translate(-71.09 -341.85)"/><circle class="cls-7" cx="548.48" cy="48.88" r="8.24"/><path class="cls-7" d="M619.57,360.42a6.06,6.06,0,0,0,6.06-6.06v-6.45a6.06,6.06,0,1,0-12.12,0v6.45A6.06,6.06,0,0,0,619.57,360.42Z" transform="translate(-71.09 -341.85)"/><path class="cls-7" d="M589.57,369.29a6.06,6.06,0,1,0,8.57-8.57l-4.56-4.56a6.06,6.06,0,1,0-8.57,8.57Z" transform="translate(-71.09 -341.85)"/><path class="cls-7" d="M589.57,412.16,585,416.71a6.06,6.06,0,0,0,8.57,8.57l4.56-4.56a6.06,6.06,0,1,0-8.57-8.57Z" transform="translate(-71.09 -341.85)"/><path class="cls-7" d="M613.51,427.09v6.45a6.06,6.06,0,1,0,12.12,0v-6.45a6.06,6.06,0,1,0-12.12,0Z" transform="translate(-71.09 -341.85)"/><path class="cls-7" d="M641,412.16a6.06,6.06,0,0,0,0,8.57l4.56,4.56a6.06,6.06,0,1,0,8.57-8.57l-4.56-4.56A6.06,6.06,0,0,0,641,412.16Z" transform="translate(-71.09 -341.85)"/><path class="cls-7" d="M649.88,390.73a6.06,6.06,0,0,0,6.06,6.06h6.45a6.06,6.06,0,0,0,0-12.12h-6.45A6.06,6.06,0,0,0,649.88,390.73Z" transform="translate(-71.09 -341.85)"/><path class="cls-7" d="M649.57,369.29l4.56-4.56a6.06,6.06,0,1,0-8.57-8.57L641,360.72a6.06,6.06,0,1,0,8.57,8.57Z" transform="translate(-71.09 -341.85)"/><circle class="cls-8" cx="746.44" cy="306.17" r="39.37"/><circle class="cls-2" cx="746.44" cy="306.17" r="39.37"/><path class="cls-3" d="M808.34,649.41s7.85,23.43,20.94,36.21a39.42,39.42,0,0,0,27.25-32.21c-18.28-.78-48.2-4-48.2-4Z" transform="translate(-71.09 -341.85)"/><path class="cls-3" d="M808.34,649.41c-5.45-13-8.21-26.66-9.58-36a39.4,39.4,0,0,0-20.24,29.25C793.21,646.7,808.34,649.41,808.34,649.41Z" transform="translate(-71.09 -341.85)"/><path class="cls-2" d="M808.34,649.41s-15.13-2.71-29.82-6.75a39.71,39.71,0,0,0-.37,5.36,39.3,39.3,0,0,0,15,30.91c8.81-18.78,15.19-29.53,15.19-29.53Z" transform="translate(-71.09 -341.85)"/><path class="cls-1" d="M829.28,685.61c-13.09-12.78-20.94-36.21-20.94-36.21s-6.39,10.75-15.19,29.53a39.44,39.44,0,0,0,36.14,6.67Z" transform="translate(-71.09 -341.85)"/><path class="cls-1" d="M840.06,615.73a39.4,39.4,0,0,0-41.3-2.33c1.37,9.34,4.13,23,9.58,36C808.34,649.41,821.31,629.81,840.06,615.73Z" transform="translate(-71.09 -341.85)"/><circle class="cls-9" cx="737.25" cy="307.56" r="9.19"/><path class="cls-10" d="M808.34,640.21a9.19,9.19,0,1,0,2.38,18.07,9.19,9.19,0,0,1,0-17.76,9.2,9.2,0,0,0-2.38-.31Z" transform="translate(-71.09 -341.85)"/></svg>