<svg id="Layer_1" data-name="Layer 1" xmlns="http://www.w3.org/2000/svg" viewBox="0 0 707.5 122.03"><title>logo</title><path d="M245.56,546.47a28.48,28.48,0,0,1,14.89-4.31v34.59h-9.2q-9.2,0-13.5,3.21t-4.31,11.38v33.72H201V542.74h32.4v15.18A39.35,39.35,0,0,1,245.56,546.47Z" transform="translate(-201.04 -504.06)"/><path d="M269.28,561.36a34,34,0,0,1,12.19-14.6,31.15,31.15,0,0,1,17.37-5A27.85,27.85,0,0,1,312.71,545a22.28,22.28,0,0,1,8.9,9V542.74h32.26v82.33H321.61V613.83a22.28,22.28,0,0,1-8.9,9,27.84,27.84,0,0,1-13.87,3.28,31.15,31.15,0,0,1-17.37-5,34,34,0,0,1-12.19-14.6q-4.45-9.56-4.45-22.55T269.28,561.36Zm49,12.33a12,12,0,0,0-17.22,0q-3.36,3.65-3.36,10.22T301,594.13a12,12,0,0,0,17.22,0q3.36-3.65,3.36-10.22T318.25,573.69Z" transform="translate(-201.04 -504.06)"/><path d="M448.23,551.65q8,9.49,8,25.69v47.73H423.93V581.43q0-5.84-3.14-9.27a12.07,12.07,0,0,0-16.86,0q-3.07,3.43-3.07,9.27v43.64h-32.4V542.74h32.4V555.3A29.27,29.27,0,0,1,411,545.81a29.83,29.83,0,0,1,15.11-3.65Q440.28,542.16,448.23,551.65Z" transform="translate(-201.04 -504.06)"/><path d="M470.27,561.36a34,34,0,0,1,12.19-14.6,31.15,31.15,0,0,1,17.37-5A27.44,27.44,0,0,1,513.63,545a22.39,22.39,0,0,1,8.83,9V517.05h32.41v108H522.46V613.83a22.39,22.39,0,0,1-8.83,9,27.43,27.43,0,0,1-13.79,3.28,31.15,31.15,0,0,1-17.37-5,34,34,0,0,1-12.19-14.6q-4.45-9.56-4.45-22.55T470.27,561.36Zm49,12.33a12,12,0,0,0-17.22,0q-3.36,3.65-3.36,10.22T502,594.13a12,12,0,0,0,17.22,0q3.36-3.65,3.36-10.22T519.25,573.69Z" transform="translate(-201.04 -504.06)"/><path d="M703.82,551.65q8.68,9.49,8.69,25.69v47.73H680.25V581.43a10.85,10.85,0,0,0-3.14-8.25,11.67,11.67,0,0,0-8.39-3q-5.4,0-8.47,3a11,11,0,0,0-3.07,8.25v43.64H624.93V581.43a10.86,10.86,0,0,0-3.14-8.25,11.67,11.67,0,0,0-8.39-3q-5.4,0-8.47,3t-3.07,8.25v43.64h-32.4V542.74h32.4v11.09a25.69,25.69,0,0,1,9.56-8.47,30,30,0,0,1,14.23-3.21A31.56,31.56,0,0,1,641.42,546a29,29,0,0,1,10.95,10.87,37,37,0,0,1,11.53-10.58,29.74,29.74,0,0,1,15.47-4.16Q695.14,542.16,703.82,551.65Z" transform="translate(-201.04 -504.06)"/><path d="M729.29,531.65a14.56,14.56,0,0,1-5.11-11.39,14.94,14.94,0,0,1,5.11-11.6q5.11-4.6,13.58-4.6t13.43,4.6a15,15,0,0,1,5.11,11.6,14.57,14.57,0,0,1-5.11,11.39q-5.11,4.53-13.43,4.52T729.29,531.65Zm29.63,11.09v82.33h-32.4V542.74Z" transform="translate(-201.04 -504.06)"/><path d="M804.61,598.21h34.3v26.86H769.14v-25.4l31.38-30.07H769.58V542.74h67.88v25.4Z" transform="translate(-201.04 -504.06)"/><path d="M893.65,546.47a28.47,28.47,0,0,1,14.89-4.31v34.59h-9.2q-9.19,0-13.5,3.21t-4.31,11.38v33.72h-32.4V542.74h32.4v15.18A39.35,39.35,0,0,1,893.65,546.47Z" transform="translate(-201.04 -504.06)"/></svg>