<svg id="Layer_1" data-name="Layer 1" xmlns="http://www.w3.org/2000/svg" xmlns:xlink="http://www.w3.org/1999/xlink" viewBox="0 0 400 200"><defs><style>.cls-1,.cls-2,.cls-3{fill:#fff;}.cls-1,.cls-2{stroke:#fff;stroke-miterlimit:10;}.cls-1{stroke-width:1.2px;}.cls-2{stroke-width:1.2px;}.cls-3{opacity:0.1;}.cls-4,.cls-5{fill:#e00000;}.cls-5{opacity:0.2;}.cls-6{fill:url(#linear-gradient);}.cls-7{fill:url(#linear-gradient-2);}.cls-8{fill:url(#linear-gradient-3);}.cls-9{fill:url(#linear-gradient-4);}.cls-10{fill:url(#linear-gradient-5);}.cls-11{fill:url(#linear-gradient-6);}.cls-12{fill:url(#linear-gradient-7);}.cls-13{fill:url(#linear-gradient-8);}.cls-14{fill:url(#linear-gradient-9);}.cls-15{fill:url(#linear-gradient-10);}.cls-16{fill:url(#linear-gradient-11);}.cls-17{fill:url(#linear-gradient-12);}.cls-18{fill:url(#linear-gradient-13);}.cls-19{fill:url(#linear-gradient-14);}.cls-20{fill:url(#linear-gradient-15);}.cls-21{fill:url(#linear-gradient-16);}.cls-22{fill:url(#linear-gradient-17);}</style><linearGradient id="linear-gradient" x1="157.81" y1="153.06" x2="25.72" y2="89.6" gradientUnits="userSpaceOnUse"><stop offset="0" stop-color="#ffa5b6"/><stop offset="0.5" stop-color="#fcbac7"/><stop offset="1" stop-color="#febf9b"/></linearGradient><linearGradient id="linear-gradient-2" x1="162.35" y1="143.62" x2="30.26" y2="80.16" xlink:href="#linear-gradient"/><linearGradient id="linear-gradient-3" x1="168.13" y1="131.59" x2="36.04" y2="68.12" xlink:href="#linear-gradient"/><linearGradient id="linear-gradient-4" x1="174.76" y1="117.8" x2="42.67" y2="54.33" xlink:href="#linear-gradient"/><linearGradient id="linear-gradient-5" x1="173.14" y1="121.17" x2="41.05" y2="57.7" xlink:href="#linear-gradient"/><linearGradient id="linear-gradient-6" x1="174.34" y1="118.66" x2="42.25" y2="55.19" xlink:href="#linear-gradient"/><linearGradient id="linear-gradient-7" x1="176.07" y1="115.07" x2="43.98" y2="51.61" xlink:href="#linear-gradient"/><linearGradient id="linear-gradient-8" x1="177.36" y1="112.39" x2="45.26" y2="48.92" xlink:href="#linear-gradient"/><linearGradient id="linear-gradient-9" x1="179.82" y1="107.27" x2="47.72" y2="43.8" xlink:href="#linear-gradient"/><linearGradient id="linear-gradient-10" x1="181.14" y1="104.51" x2="49.05" y2="41.04" xlink:href="#linear-gradient"/><linearGradient id="linear-gradient-11" x1="181.93" y1="102.88" x2="49.84" y2="39.41" xlink:href="#linear-gradient"/><linearGradient id="linear-gradient-12" x1="182.44" y1="101.81" x2="50.35" y2="38.34" xlink:href="#linear-gradient"/><linearGradient id="linear-gradient-13" x1="183.96" y1="98.64" x2="51.87" y2="35.17" xlink:href="#linear-gradient"/><linearGradient id="linear-gradient-14" x1="184.47" y1="97.57" x2="52.38" y2="34.11" xlink:href="#linear-gradient"/><linearGradient id="linear-gradient-15" x1="184.99" y1="96.49" x2="52.9" y2="33.03" xlink:href="#linear-gradient"/><linearGradient id="linear-gradient-16" x1="185.53" y1="95.38" x2="53.44" y2="31.92" xlink:href="#linear-gradient"/><linearGradient id="linear-gradient-17" x1="185.74" y1="94.94" x2="53.65" y2="31.48" xlink:href="#linear-gradient"/></defs><title>Plan</title><path class="cls-1" d="M375.07,101.64l-8.88,8.88a.9.9,0,0,1-1.27,0h0a.9.9,0,0,1,0-1.27l7.61-7.61a.9.9,0,0,0,0-1.27l-7.61-7.61a.9.9,0,0,1,0-1.27h0a.9.9,0,0,1,1.27,0l8.24,8.24.64.64A.9.9,0,0,1,375.07,101.64Z"/><path class="cls-2" d="M233.87,88.49a12.57,12.57,0,0,1,5.16,5,14.74,14.74,0,0,1,1.81,7.35,14.52,14.52,0,0,1-1.83,7.31,13,13,0,0,1-5.18,5,16,16,0,0,1-7.77,1.83H214.85V86.7h11.21A16.38,16.38,0,0,1,233.87,88.49Zm-3,17.69a7.06,7.06,0,0,0,2-5.34,7.18,7.18,0,0,0-2-5.4,7.47,7.47,0,0,0-5.42-1.91h-2.73v14.54h2.73A7.51,7.51,0,0,0,230.88,106.18Z"/><path class="cls-2" d="M244.35,97.63a9.62,9.62,0,0,1,3.45-4,8.84,8.84,0,0,1,4.88-1.41,8.25,8.25,0,0,1,4,.92,6.69,6.69,0,0,1,2.61,2.49V92.48h7.87V115h-7.87v-3.13a6.66,6.66,0,0,1-2.63,2.49,8.27,8.27,0,0,1-4,.92,8.84,8.84,0,0,1-4.88-1.41,9.59,9.59,0,0,1-3.45-4,15.41,15.41,0,0,1,0-12.23Zm13.78,2.69a4.07,4.07,0,0,0-5.84,0,4.78,4.78,0,0,0-1.17,3.43,4.87,4.87,0,0,0,1.17,3.43,3.81,3.81,0,0,0,2.93,1.27,3.87,3.87,0,0,0,2.91-1.25,4.81,4.81,0,0,0,1.18-3.45A4.75,4.75,0,0,0,258.13,100.32Z"/><path class="cls-2" d="M285,108.31V115h-3.42q-8.64,0-8.64-8.56V99h-2.77V92.48h2.77V87h7.91v5.46h4.1V99h-4.1v7.55a1.77,1.77,0,0,0,.42,1.33,2,2,0,0,0,1.43.4Z"/><path class="cls-2" d="M310,105.34h-14.9a4.14,4.14,0,0,0,1,2.75,3.13,3.13,0,0,0,2.31.9,2.9,2.9,0,0,0,2.81-1.77h8.39a9.81,9.81,0,0,1-2,4.16,10.43,10.43,0,0,1-3.8,2.87,12,12,0,0,1-5.06,1,12.22,12.22,0,0,1-5.92-1.41,10.08,10.08,0,0,1-4.06-4,13.65,13.65,0,0,1,0-12.27,10,10,0,0,1,4-4,13.4,13.4,0,0,1,11.87,0,9.84,9.84,0,0,1,4,3.92,12,12,0,0,1,1.45,6A14.32,14.32,0,0,1,310,105.34Zm-7.91-3.82a2.83,2.83,0,0,0-1-2.27,3.58,3.58,0,0,0-2.41-.82,3.54,3.54,0,0,0-2.37.78,3.81,3.81,0,0,0-1.21,2.31Z"/><circle class="cls-3" cx="95.52" cy="98.15" r="46.93"/><path class="cls-4" d="M71.72,140.22l-8.33,8.33a1.31,1.31,0,0,1-1.85,0l-8.33-8.33a6,6,0,0,1,8.34-8.73l.2.2.72.72.72-.72A6,6,0,1,1,71.92,140Z"/><path class="cls-4" d="M151.72,63.6l-8.33,8.33a1.31,1.31,0,0,1-1.85,0L133.2,63.6a6,6,0,0,1,8.34-8.73l.2.2.72.72.72-.72a6,6,0,1,1,8.73,8.33Z"/><path class="cls-4" d="M71.1,76.85l-3.48,3.49a.55.55,0,0,1-.78,0l-3.49-3.49a2.52,2.52,0,0,1,3.49-3.65l.08.08.3.3.3-.3a2.52,2.52,0,1,1,3.65,3.49Z"/><path class="cls-4" d="M108.53,51.58,105,55.06a.55.55,0,0,1-.78,0l-3.49-3.49a2.52,2.52,0,0,1,3.49-3.65l.08.08.3.3.3-.3a2.52,2.52,0,1,1,3.65,3.49Z"/><path class="cls-5" d="M62.91,47.86l-3.48,3.49a.55.55,0,0,1-.78,0l-3.49-3.49a2.52,2.52,0,1,1,3.49-3.65l.08.08.3.3.3-.3A2.52,2.52,0,1,1,63,47.78Z"/><path class="cls-5" d="M130.82,149.77l-8.33,8.33a1.31,1.31,0,0,1-1.85,0l-8.33-8.33a6,6,0,0,1,8.34-8.73l.2.2.72.72.72-.72a6,6,0,1,1,8.73,8.33Z"/><path class="cls-6" d="M39.53,93.88V84.19H55.33v34.06H44.47V93.88Z"/><path class="cls-7" d="M62.57,88.05Q66,83.44,73.12,83.44t10.53,4.64q3.45,4.64,3.45,12.65t-3.45,12.7q-3.45,4.64-10.53,4.63t-10.55-4.63q-3.43-4.64-3.43-12.7T62.57,88.05Zm13.58,7.06a2.94,2.94,0,0,0-3-1.89A3,3,0,0,0,70,95.11a16.12,16.12,0,0,0-.75,5.61,16.3,16.3,0,0,0,.75,5.66,3,3,0,0,0,3.08,1.89,2.93,2.93,0,0,0,3-1.89,16.3,16.3,0,0,0,.75-5.66A16.12,16.12,0,0,0,76.15,95.11Z"/><path class="cls-8" d="M93.41,88.05q3.42-4.61,10.55-4.61t10.53,4.64q3.45,4.64,3.45,12.65t-3.45,12.7Q111,118.06,104,118.06t-10.55-4.63Q90,108.79,90,100.73T93.41,88.05ZM107,95.11a2.94,2.94,0,0,0-3-1.89,3,3,0,0,0-3.08,1.89,16.12,16.12,0,0,0-.75,5.61,16.3,16.3,0,0,0,.75,5.66,3,3,0,0,0,3.08,1.89,2.93,2.93,0,0,0,3-1.89,16.3,16.3,0,0,0,.75-5.66A16.12,16.12,0,0,0,107,95.11Z"/><path class="cls-9" d="M122.65,86.82a8.6,8.6,0,0,1,6.1-2.17,8.45,8.45,0,0,1,6,2.17,8.18,8.18,0,0,1,2.31,6.27,8.11,8.11,0,0,1-2.31,6.24,8.51,8.51,0,0,1-6,2.14,8.66,8.66,0,0,1-6.1-2.14,8.06,8.06,0,0,1-2.33-6.24A8.14,8.14,0,0,1,122.65,86.82Zm4.43,6.27q0,2.38,1.58,2.38a1.49,1.49,0,0,0,1.28-.61,3,3,0,0,0,.44-1.77,3.07,3.07,0,0,0-.44-1.82,1.49,1.49,0,0,0-1.28-.61Q127.07,90.66,127.07,93.09Zm27.77-8-17.38,33.13h-9.88L145,85.12ZM147.67,104a8.54,8.54,0,0,1,6.06-2.17,8.44,8.44,0,0,1,6.06,2.17,8.23,8.23,0,0,1,2.28,6.27,8.23,8.23,0,0,1-2.28,6.27,8.44,8.44,0,0,1-6.06,2.17,8.54,8.54,0,0,1-6.06-2.17,9.59,9.59,0,0,1,0-12.53Zm4.38,6.27q0,2.42,1.63,2.42a1.44,1.44,0,0,0,1.23-.61,3.9,3.9,0,0,0,0-3.61,1.42,1.42,0,0,0-1.23-.63Q152,107.85,152,110.28Z"/><path class="cls-10" d="M57.93,65.35a3.93,3.93,0,0,1,1.48-1.52,4.07,4.07,0,0,1,2.09-.55,4.25,4.25,0,0,1,2.41.67,3.78,3.78,0,0,1,1.46,1.88h-1a2.89,2.89,0,0,0-1.1-1.33,3.49,3.49,0,0,0-3.45,0,3,3,0,0,0-1.16,1.24,4.4,4.4,0,0,0,0,3.75,3,3,0,0,0,1.16,1.24,3.5,3.5,0,0,0,3.45,0,2.86,2.86,0,0,0,1.1-1.32h1a3.75,3.75,0,0,1-1.47,1.86,4.29,4.29,0,0,1-2.4.66,4.07,4.07,0,0,1-2.09-.55,3.94,3.94,0,0,1-1.48-1.52,4.8,4.8,0,0,1,0-4.43Z"/><path class="cls-11" d="M68.23,71.45a3,3,0,0,1-1.16-1.18,3.6,3.6,0,0,1-.43-1.78,3.55,3.55,0,0,1,.43-1.78,3,3,0,0,1,1.18-1.18,3.37,3.37,0,0,1,1.67-.41,3.41,3.41,0,0,1,1.67.41,3,3,0,0,1,1.18,1.18,3.9,3.9,0,0,1,0,3.56,3,3,0,0,1-1.19,1.18,3.44,3.44,0,0,1-1.68.41A3.34,3.34,0,0,1,68.23,71.45Zm2.86-.61a2.24,2.24,0,0,0,.89-.89,2.88,2.88,0,0,0,.34-1.46A2.93,2.93,0,0,0,72,67a2.22,2.22,0,0,0-.89-.89,2.6,2.6,0,0,0-2.4,0,2.17,2.17,0,0,0-.88.89,3.38,3.38,0,0,0,0,2.92,2.18,2.18,0,0,0,.88.89,2.48,2.48,0,0,0,1.19.29A2.52,2.52,0,0,0,71.1,70.83Z"/><path class="cls-12" d="M84.42,65.81a2.85,2.85,0,0,1,.73,2.11v3.84h-.83V68a2.34,2.34,0,0,0-.52-1.63,1.81,1.81,0,0,0-1.4-.56,1.89,1.89,0,0,0-1.48.61,2.57,2.57,0,0,0-.55,1.78v3.55h-.83V68A2.34,2.34,0,0,0,79,66.38a1.82,1.82,0,0,0-1.42-.56,1.89,1.89,0,0,0-1.48.61,2.57,2.57,0,0,0-.55,1.78v3.55h-.84V65.21h.84v1.13a2.15,2.15,0,0,1,.89-.93,2.62,2.62,0,0,1,1.28-.32,2.73,2.73,0,0,1,1.5.41,2.3,2.3,0,0,1,.93,1.2,2.22,2.22,0,0,1,.91-1.2,2.63,2.63,0,0,1,1.46-.41A2.54,2.54,0,0,1,84.42,65.81Z"/><path class="cls-13" d="M88.83,65.55a2.91,2.91,0,0,1,1.61-.44,3.14,3.14,0,0,1,1.6.41,2.88,2.88,0,0,1,1.12,1.18,4.11,4.11,0,0,1,0,3.55A2.91,2.91,0,0,1,92,71.44a3.1,3.1,0,0,1-1.6.42,2.92,2.92,0,0,1-1.61-.44,2.63,2.63,0,0,1-1-1.1v4.54H87V65.21h.83v1.44A2.65,2.65,0,0,1,88.83,65.55Zm3.57,1.51a2.22,2.22,0,0,0-.87-.91,2.49,2.49,0,0,0-1.25-.31,2.41,2.41,0,0,0-1.23.32,2.32,2.32,0,0,0-.88.92,3.16,3.16,0,0,0,0,2.79,2.32,2.32,0,0,0,.88.92,2.41,2.41,0,0,0,1.23.32,2.46,2.46,0,0,0,1.25-.32,2.24,2.24,0,0,0,.87-.92,3,3,0,0,0,.32-1.41A3,3,0,0,0,92.39,67.06Z"/><path class="cls-14" d="M95.13,66.7a2.88,2.88,0,0,1,1.12-1.18,3.16,3.16,0,0,1,1.61-.41,3,3,0,0,1,1.62.43,2.52,2.52,0,0,1,1,1.1V65.21h.84v6.56h-.84V70.31a2.63,2.63,0,0,1-1,1.11,2.91,2.91,0,0,1-1.61.44,3.1,3.1,0,0,1-1.6-.42,2.9,2.9,0,0,1-1.12-1.19,4.11,4.11,0,0,1,0-3.55Zm5,.39a2.32,2.32,0,0,0-.88-.92A2.41,2.41,0,0,0,98,65.84a2.49,2.49,0,0,0-1.25.31,2.22,2.22,0,0,0-.87.91,3,3,0,0,0-.32,1.41,3,3,0,0,0,.32,1.41,2.24,2.24,0,0,0,.87.92,2.45,2.45,0,0,0,1.25.32,2.41,2.41,0,0,0,1.23-.32,2.32,2.32,0,0,0,.88-.92,3.16,3.16,0,0,0,0-2.79Z"/><path class="cls-15" d="M104.31,65.92V70a1.17,1.17,0,0,0,.23.83,1.12,1.12,0,0,0,.8.23h.77v.72h-.9a1.85,1.85,0,0,1-1.32-.41,1.82,1.82,0,0,1-.43-1.36V65.92h-.91v-.71h.91V63.56h.85v1.65h1.8v.71Z"/><path class="cls-16" d="M107.48,63.79a.6.6,0,0,1-.18-.44.58.58,0,0,1,.18-.44.62.62,0,0,1,.86,0,.58.58,0,0,1,.18.44.6.6,0,0,1-.18.44.61.61,0,0,1-.86,0Zm.85,1.42v6.56h-.84V65.21Z"/><path class="cls-17" d="M112.07,65.54a2.92,2.92,0,0,1,1.6-.43,3.13,3.13,0,0,1,1.61.41,2.89,2.89,0,0,1,1.11,1.18,4.11,4.11,0,0,1,0,3.55,2.91,2.91,0,0,1-1.12,1.19,3.1,3.1,0,0,1-1.6.42,3,3,0,0,1-1.61-.43,2.54,2.54,0,0,1-1-1.11v1.44h-.83V62.88h.83v3.78A2.65,2.65,0,0,1,112.07,65.54Zm3.55,1.52a2.22,2.22,0,0,0-.87-.91,2.49,2.49,0,0,0-1.25-.31,2.41,2.41,0,0,0-1.23.32,2.32,2.32,0,0,0-.88.92,3.16,3.16,0,0,0,0,2.79,2.32,2.32,0,0,0,.88.92,2.41,2.41,0,0,0,1.23.32,2.46,2.46,0,0,0,1.25-.32,2.24,2.24,0,0,0,.87-.92,3,3,0,0,0,.32-1.41A3,3,0,0,0,115.63,67.06Z"/><path class="cls-18" d="M118.33,63.79a.6.6,0,0,1-.18-.44.58.58,0,0,1,.18-.44.62.62,0,0,1,.86,0,.58.58,0,0,1,.18.44.6.6,0,0,1-.18.44.61.61,0,0,1-.86,0Zm.85,1.42v6.56h-.84V65.21Z"/><path class="cls-19" d="M121.94,62.88v8.89h-.84V62.88Z"/><path class="cls-20" d="M123.83,63.79a.6.6,0,0,1-.18-.44.58.58,0,0,1,.18-.44.62.62,0,0,1,.86,0,.58.58,0,0,1,.18.44.6.6,0,0,1-.18.44.61.61,0,0,1-.86,0Zm.85,1.42v6.56h-.84V65.21Z"/><path class="cls-21" d="M127.69,65.92V70a1.17,1.17,0,0,0,.23.83,1.12,1.12,0,0,0,.8.23h.77v.72h-.9a1.85,1.85,0,0,1-1.32-.41,1.82,1.82,0,0,1-.43-1.36V65.92h-.91v-.71h.91V63.56h.85v1.65h1.8v.71Z"/><path class="cls-22" d="M136.27,65.21l-3.89,9.64h-.88l1.27-3.12-2.69-6.52H131l2.23,5.6,2.16-5.6Z"/></svg>