<svg xmlns="http://www.w3.org/2000/svg" xmlns:xlink="http://www.w3.org/1999/xlink" viewBox="0 0 1920 1080"><defs><style>.cls-1{fill:none;}.cls-2{isolation:isolate;}.cls-3{fill:url(#linear-gradient);}.cls-4{clip-path:url(#clip-path);}.cls-5{fill:#00d3ec;}.cls-6{fill:#80dff5;}.cls-7{fill:#b0e7f0;}.cls-10,.cls-100,.cls-101,.cls-102,.cls-103,.cls-104,.cls-105,.cls-106,.cls-107,.cls-108,.cls-109,.cls-11,.cls-110,.cls-111,.cls-112,.cls-113,.cls-114,.cls-115,.cls-116,.cls-117,.cls-118,.cls-119,.cls-12,.cls-120,.cls-121,.cls-122,.cls-123,.cls-124,.cls-125,.cls-126,.cls-127,.cls-128,.cls-129,.cls-13,.cls-130,.cls-131,.cls-132,.cls-133,.cls-134,.cls-135,.cls-136,.cls-137,.cls-138,.cls-139,.cls-14,.cls-140,.cls-141,.cls-142,.cls-143,.cls-144,.cls-145,.cls-146,.cls-147,.cls-148,.cls-149,.cls-15,.cls-150,.cls-151,.cls-152,.cls-153,.cls-154,.cls-155,.cls-156,.cls-157,.cls-158,.cls-159,.cls-16,.cls-160,.cls-161,.cls-162,.cls-163,.cls-164,.cls-165,.cls-166,.cls-167,.cls-168,.cls-169,.cls-17,.cls-170,.cls-171,.cls-172,.cls-173,.cls-174,.cls-175,.cls-18,.cls-19,.cls-20,.cls-21,.cls-22,.cls-23,.cls-24,.cls-25,.cls-26,.cls-27,.cls-28,.cls-29,.cls-30,.cls-31,.cls-32,.cls-33,.cls-34,.cls-35,.cls-36,.cls-37,.cls-38,.cls-39,.cls-40,.cls-41,.cls-42,.cls-43,.cls-44,.cls-45,.cls-46,.cls-47,.cls-48,.cls-49,.cls-50,.cls-51,.cls-52,.cls-53,.cls-54,.cls-55,.cls-56,.cls-57,.cls-58,.cls-59,.cls-60,.cls-61,.cls-62,.cls-63,.cls-64,.cls-65,.cls-66,.cls-67,.cls-68,.cls-69,.cls-7,.cls-70,.cls-71,.cls-72,.cls-73,.cls-74,.cls-75,.cls-76,.cls-77,.cls-78,.cls-79,.cls-8,.cls-80,.cls-81,.cls-82,.cls-83,.cls-84,.cls-85,.cls-86,.cls-87,.cls-88,.cls-89,.cls-90,.cls-91,.cls-92,.cls-93,.cls-94,.cls-95,.cls-96,.cls-97,.cls-98,.cls-99{opacity:0.5;}.cls-10,.cls-100,.cls-101,.cls-102,.cls-103,.cls-104,.cls-105,.cls-106,.cls-107,.cls-108,.cls-109,.cls-11,.cls-110,.cls-111,.cls-112,.cls-113,.cls-114,.cls-115,.cls-116,.cls-117,.cls-118,.cls-119,.cls-12,.cls-120,.cls-121,.cls-122,.cls-123,.cls-124,.cls-125,.cls-126,.cls-127,.cls-128,.cls-129,.cls-13,.cls-130,.cls-131,.cls-132,.cls-133,.cls-134,.cls-135,.cls-136,.cls-137,.cls-138,.cls-139,.cls-14,.cls-140,.cls-141,.cls-142,.cls-143,.cls-144,.cls-145,.cls-146,.cls-147,.cls-148,.cls-149,.cls-15,.cls-150,.cls-151,.cls-152,.cls-153,.cls-154,.cls-155,.cls-156,.cls-157,.cls-158,.cls-159,.cls-16,.cls-160,.cls-161,.cls-162,.cls-163,.cls-164,.cls-165,.cls-166,.cls-167,.cls-168,.cls-169,.cls-17,.cls-170,.cls-171,.cls-172,.cls-173,.cls-174,.cls-175,.cls-18,.cls-19,.cls-20,.cls-21,.cls-22,.cls-23,.cls-24,.cls-25,.cls-26,.cls-27,.cls-28,.cls-29,.cls-30,.cls-31,.cls-32,.cls-33,.cls-34,.cls-35,.cls-36,.cls-37,.cls-38,.cls-39,.cls-40,.cls-41,.cls-42,.cls-43,.cls-44,.cls-45,.cls-46,.cls-47,.cls-48,.cls-49,.cls-50,.cls-51,.cls-52,.cls-53,.cls-54,.cls-55,.cls-56,.cls-57,.cls-58,.cls-59,.cls-60,.cls-61,.cls-62,.cls-63,.cls-64,.cls-65,.cls-66,.cls-67,.cls-68,.cls-69,.cls-70,.cls-71,.cls-72,.cls-73,.cls-74,.cls-75,.cls-76,.cls-77,.cls-78,.cls-79,.cls-8,.cls-80,.cls-81,.cls-82,.cls-83,.cls-84,.cls-85,.cls-86,.cls-87,.cls-88,.cls-89,.cls-90,.cls-91,.cls-92,.cls-93,.cls-94,.cls-95,.cls-96,.cls-97,.cls-98,.cls-99{mix-blend-mode:screen;}.cls-9{fill:#2fb2fc;}.cls-10{fill:url(#linear-gradient-2);}.cls-11{fill:url(#linear-gradient-3);}.cls-12{fill:url(#linear-gradient-4);}.cls-13{fill:url(#linear-gradient-5);}.cls-14{fill:url(#linear-gradient-6);}.cls-15{fill:url(#linear-gradient-7);}.cls-16{fill:url(#linear-gradient-8);}.cls-17{fill:url(#linear-gradient-9);}.cls-18{fill:url(#linear-gradient-10);}.cls-19{fill:url(#linear-gradient-11);}.cls-20{fill:url(#linear-gradient-12);}.cls-21{fill:url(#linear-gradient-13);}.cls-22{fill:url(#linear-gradient-14);}.cls-23{fill:url(#linear-gradient-15);}.cls-24{fill:url(#linear-gradient-16);}.cls-25{fill:url(#linear-gradient-17);}.cls-26{fill:url(#linear-gradient-18);}.cls-27{fill:url(#linear-gradient-19);}.cls-28{fill:url(#linear-gradient-20);}.cls-29{fill:url(#linear-gradient-21);}.cls-30{fill:url(#linear-gradient-22);}.cls-31{fill:url(#linear-gradient-23);}.cls-32{fill:url(#linear-gradient-24);}.cls-33{fill:url(#linear-gradient-25);}.cls-34{fill:url(#linear-gradient-26);}.cls-35{fill:url(#linear-gradient-27);}.cls-36{fill:url(#linear-gradient-28);}.cls-37{fill:url(#linear-gradient-29);}.cls-38{fill:url(#linear-gradient-30);}.cls-39{fill:url(#linear-gradient-31);}.cls-40{fill:url(#linear-gradient-32);}.cls-41{fill:url(#linear-gradient-33);}.cls-42{fill:url(#linear-gradient-34);}.cls-43{fill:url(#linear-gradient-35);}.cls-44{fill:url(#linear-gradient-36);}.cls-45{fill:url(#linear-gradient-37);}.cls-46{fill:url(#linear-gradient-38);}.cls-47{fill:url(#linear-gradient-39);}.cls-48{fill:url(#linear-gradient-40);}.cls-49{fill:url(#linear-gradient-41);}.cls-50{fill:url(#linear-gradient-42);}.cls-51{fill:url(#linear-gradient-43);}.cls-52{fill:url(#linear-gradient-44);}.cls-53{fill:url(#linear-gradient-45);}.cls-54{fill:url(#linear-gradient-46);}.cls-55{fill:url(#linear-gradient-47);}.cls-56{fill:url(#linear-gradient-48);}.cls-57{fill:url(#linear-gradient-49);}.cls-58{fill:url(#linear-gradient-50);}.cls-59{fill:url(#linear-gradient-51);}.cls-60{fill:url(#linear-gradient-52);}.cls-61{fill:url(#linear-gradient-53);}.cls-62{fill:url(#linear-gradient-54);}.cls-63{fill:url(#linear-gradient-55);}.cls-64{fill:url(#linear-gradient-56);}.cls-65{fill:url(#linear-gradient-57);}.cls-66{fill:url(#linear-gradient-58);}.cls-67{fill:url(#linear-gradient-59);}.cls-68{fill:url(#linear-gradient-60);}.cls-69{fill:url(#linear-gradient-61);}.cls-70{fill:url(#linear-gradient-62);}.cls-71{fill:url(#linear-gradient-63);}.cls-72{fill:url(#linear-gradient-64);}.cls-73{fill:url(#linear-gradient-65);}.cls-74{fill:url(#linear-gradient-66);}.cls-75{fill:url(#linear-gradient-67);}.cls-76{fill:url(#linear-gradient-68);}.cls-77{fill:url(#linear-gradient-69);}.cls-78{fill:url(#linear-gradient-70);}.cls-79{fill:url(#linear-gradient-71);}.cls-80{fill:url(#linear-gradient-72);}.cls-81{fill:url(#linear-gradient-73);}.cls-82{fill:url(#linear-gradient-74);}.cls-83{fill:url(#linear-gradient-75);}.cls-84{fill:url(#linear-gradient-76);}.cls-85{fill:url(#linear-gradient-77);}.cls-86{fill:url(#linear-gradient-78);}.cls-87{fill:url(#linear-gradient-79);}.cls-88{fill:url(#linear-gradient-80);}.cls-89{fill:url(#linear-gradient-81);}.cls-90{fill:url(#linear-gradient-82);}.cls-91{fill:url(#linear-gradient-83);}.cls-92{fill:url(#linear-gradient-84);}.cls-93{fill:url(#linear-gradient-85);}.cls-94{fill:url(#linear-gradient-86);}.cls-95{fill:url(#linear-gradient-87);}.cls-96{fill:url(#linear-gradient-88);}.cls-97{fill:url(#linear-gradient-89);}.cls-98{fill:url(#linear-gradient-90);}.cls-99{fill:url(#linear-gradient-91);}.cls-100{fill:url(#linear-gradient-92);}.cls-101{fill:url(#linear-gradient-93);}.cls-102{fill:url(#linear-gradient-94);}.cls-103{fill:url(#linear-gradient-95);}.cls-104{fill:url(#linear-gradient-96);}.cls-105{fill:url(#linear-gradient-97);}.cls-106{fill:url(#linear-gradient-98);}.cls-107{fill:url(#linear-gradient-99);}.cls-108{fill:url(#linear-gradient-100);}.cls-109{fill:url(#linear-gradient-101);}.cls-110{fill:url(#linear-gradient-102);}.cls-111{fill:url(#linear-gradient-103);}.cls-112{fill:url(#linear-gradient-104);}.cls-113{fill:url(#linear-gradient-105);}.cls-114{fill:url(#linear-gradient-106);}.cls-115{fill:url(#linear-gradient-107);}.cls-116{fill:url(#linear-gradient-108);}.cls-117{fill:url(#linear-gradient-109);}.cls-118{fill:url(#linear-gradient-110);}.cls-119{fill:url(#linear-gradient-111);}.cls-120{fill:url(#linear-gradient-112);}.cls-121{fill:url(#linear-gradient-113);}.cls-122{fill:url(#linear-gradient-114);}.cls-123{fill:url(#linear-gradient-115);}.cls-124{fill:url(#linear-gradient-116);}.cls-125{fill:url(#linear-gradient-117);}.cls-126{fill:url(#linear-gradient-118);}.cls-127{fill:url(#linear-gradient-119);}.cls-128{fill:url(#linear-gradient-120);}.cls-129{fill:url(#linear-gradient-121);}.cls-130{fill:url(#linear-gradient-122);}.cls-131{fill:url(#linear-gradient-123);}.cls-132{fill:url(#linear-gradient-124);}.cls-133{fill:url(#linear-gradient-125);}.cls-134{fill:url(#linear-gradient-126);}.cls-135{fill:url(#linear-gradient-127);}.cls-136{fill:url(#linear-gradient-128);}.cls-137{fill:url(#linear-gradient-129);}.cls-138{fill:url(#linear-gradient-130);}.cls-139{fill:url(#linear-gradient-131);}.cls-140{fill:url(#linear-gradient-132);}.cls-141{fill:url(#linear-gradient-133);}.cls-142{fill:url(#linear-gradient-134);}.cls-143{fill:url(#linear-gradient-135);}.cls-144{fill:url(#linear-gradient-136);}.cls-145{fill:url(#linear-gradient-137);}.cls-146{fill:url(#linear-gradient-138);}.cls-147{fill:url(#linear-gradient-139);}.cls-148{fill:url(#linear-gradient-140);}.cls-149{fill:url(#linear-gradient-141);}.cls-150{fill:url(#linear-gradient-142);}.cls-151{fill:url(#linear-gradient-143);}.cls-152{fill:url(#linear-gradient-144);}.cls-153{fill:url(#linear-gradient-145);}.cls-154{fill:url(#linear-gradient-146);}.cls-155{fill:url(#linear-gradient-147);}.cls-156{fill:url(#linear-gradient-148);}.cls-157{fill:url(#linear-gradient-149);}.cls-158{fill:url(#linear-gradient-150);}.cls-159{fill:url(#linear-gradient-151);}.cls-160{fill:url(#linear-gradient-152);}.cls-161{fill:url(#linear-gradient-153);}.cls-162{fill:url(#linear-gradient-154);}.cls-163{fill:url(#linear-gradient-155);}.cls-164{fill:url(#linear-gradient-156);}.cls-165{fill:url(#linear-gradient-157);}.cls-166{fill:url(#linear-gradient-158);}.cls-167{fill:url(#linear-gradient-159);}.cls-168{fill:url(#linear-gradient-160);}.cls-169{fill:url(#linear-gradient-161);}.cls-170{fill:url(#linear-gradient-162);}.cls-171{fill:url(#linear-gradient-163);}.cls-172{fill:url(#linear-gradient-164);}.cls-173{fill:url(#linear-gradient-165);}.cls-174{fill:url(#linear-gradient-166);}.cls-175{fill:url(#linear-gradient-167);}.cls-176{clip-path:url(#clip-path-2);}.cls-177{fill:#fdef55;}.cls-177,.cls-180{opacity:0.35;}.cls-178{fill:url(#linear-gradient-168);}.cls-179{fill:url(#linear-gradient-169);}.cls-180,.cls-185{mix-blend-mode:multiply;}.cls-181{fill:url(#linear-gradient-170);}.cls-182{fill:url(#linear-gradient-171);}.cls-183{fill:url(#linear-gradient-172);}.cls-184{fill:url(#linear-gradient-173);}.cls-185{fill:#ffc223;opacity:0.45;}.cls-186{fill:#ffb5c5;}.cls-187{fill:#7191f0;}.cls-188{fill:#ffe940;}.cls-189{fill:#f5dc1d;}.cls-190{fill:#ff9000;}.cls-191{fill:#ed8600;}.cls-192{fill:#91edff;}.cls-193{fill:#79e7fc;}.cls-194{fill:#f26e91;}.cls-195{fill:#e05c7e;}.cls-196{fill:#fff;}.cls-197{fill:#ebf9ff;}.cls-198{fill:#fdc741;}.cls-199{fill:#fdcf1c;}.cls-200,.cls-206{fill:#efad1b;}.cls-201{fill:#fcea42;}.cls-202{fill:#0083ff;}.cls-203{fill:#fe5f6e;}.cls-204{opacity:0.29;}.cls-205{fill:#d8950f;}.cls-206{opacity:0.67;}</style><linearGradient id="linear-gradient" x1="968.25" y1="-161.97" x2="968.25" y2="1170.99" gradientUnits="userSpaceOnUse"><stop offset="0" stop-color="#59c8f5"/><stop offset="0.14" stop-color="#6ee1fa"/><stop offset="0.28" stop-color="#7cf3fe"/><stop offset="0.38" stop-color="#81f9ff"/><stop offset="0.87" stop-color="#fff"/></linearGradient><clipPath id="clip-path"><rect class="cls-1" x="-31.48" y="-161.99" width="1999.48" height="1332.98"/></clipPath><linearGradient id="linear-gradient-2" x1="376.21" y1="709.01" x2="379.44" y2="709.01" gradientUnits="userSpaceOnUse"><stop offset="0" stop-color="#81f9ff"/><stop offset="1" stop-color="#fff"/></linearGradient><linearGradient id="linear-gradient-3" x1="430.07" y1="675.17" x2="433.3" y2="675.17" xlink:href="#linear-gradient-2"/><linearGradient id="linear-gradient-4" x1="491.6" y1="687.36" x2="494.84" y2="687.36" xlink:href="#linear-gradient-2"/><linearGradient id="linear-gradient-5" x1="493.22" y1="664.03" x2="496.45" y2="664.03" xlink:href="#linear-gradient-2"/><linearGradient id="linear-gradient-6" x1="541.01" y1="673.11" x2="544.24" y2="673.11" xlink:href="#linear-gradient-2"/><linearGradient id="linear-gradient-7" x1="574.48" y1="671.49" x2="577.71" y2="671.49" xlink:href="#linear-gradient-2"/><linearGradient id="linear-gradient-8" x1="618.35" y1="683.24" x2="621.58" y2="683.24" xlink:href="#linear-gradient-2"/><linearGradient id="linear-gradient-9" x1="571.25" y1="690.85" x2="574.48" y2="690.85" xlink:href="#linear-gradient-2"/><linearGradient id="linear-gradient-10" x1="541.01" y1="687.36" x2="544.24" y2="687.36" xlink:href="#linear-gradient-2"/><linearGradient id="linear-gradient-11" x1="517.22" y1="697.04" x2="520.45" y2="697.04" xlink:href="#linear-gradient-2"/><linearGradient id="linear-gradient-12" x1="470.25" y1="681.62" x2="473.48" y2="681.62" xlink:href="#linear-gradient-2"/><linearGradient id="linear-gradient-13" x1="412.61" y1="692.91" x2="415.84" y2="692.91" xlink:href="#linear-gradient-2"/><linearGradient id="linear-gradient-14" x1="358.06" y1="684.85" x2="361.29" y2="684.85" xlink:href="#linear-gradient-2"/><linearGradient id="linear-gradient-15" x1="327.01" y1="686.47" x2="330.24" y2="686.47" xlink:href="#linear-gradient-2"/><linearGradient id="linear-gradient-16" x1="274.08" y1="671.49" x2="277.31" y2="671.49" xlink:href="#linear-gradient-2"/><linearGradient id="linear-gradient-17" x1="250.22" y1="695.42" x2="253.45" y2="695.42" xlink:href="#linear-gradient-2"/><linearGradient id="linear-gradient-18" x1="248.6" y1="673.11" x2="251.84" y2="673.11" xlink:href="#linear-gradient-2"/><linearGradient id="linear-gradient-19" x1="328.63" y1="652.19" x2="331.86" y2="652.19" xlink:href="#linear-gradient-2"/><linearGradient id="linear-gradient-20" x1="388.35" y1="649.52" x2="391.58" y2="649.52" xlink:href="#linear-gradient-2"/><linearGradient id="linear-gradient-21" x1="291.89" y1="651.13" x2="295.12" y2="651.13" xlink:href="#linear-gradient-2"/><linearGradient id="linear-gradient-22" x1="293.5" y1="690.85" x2="296.73" y2="690.85" xlink:href="#linear-gradient-2"/><linearGradient id="linear-gradient-23" x1="389.96" y1="667.71" x2="393.19" y2="667.71" xlink:href="#linear-gradient-2"/><linearGradient id="linear-gradient-24" x1="330.24" y1="702.82" x2="333.47" y2="702.82" xlink:href="#linear-gradient-2"/><linearGradient id="linear-gradient-25" x1="321.93" y1="741.1" x2="325.16" y2="741.1" xlink:href="#linear-gradient-2"/><linearGradient id="linear-gradient-26" x1="259.79" y1="739.49" x2="263.02" y2="739.49" xlink:href="#linear-gradient-2"/><linearGradient id="linear-gradient-27" x1="208.85" y1="743.16" x2="212.08" y2="743.16" xlink:href="#linear-gradient-2"/><linearGradient id="linear-gradient-28" x1="185.44" y1="779.18" x2="188.67" y2="779.18" xlink:href="#linear-gradient-2"/><linearGradient id="linear-gradient-29" x1="173.71" y1="736.04" x2="176.94" y2="736.04" xlink:href="#linear-gradient-2"/><linearGradient id="linear-gradient-30" x1="175.32" y1="709.72" x2="178.55" y2="709.72" xlink:href="#linear-gradient-2"/><linearGradient id="linear-gradient-31" x1="112.52" y1="741.1" x2="115.75" y2="741.1" xlink:href="#linear-gradient-2"/><linearGradient id="linear-gradient-32" x1="66.8" y1="731.91" x2="70.03" y2="731.91" xlink:href="#linear-gradient-2"/><linearGradient id="linear-gradient-33" x1="42.16" y1="685.75" x2="45.39" y2="685.75" xlink:href="#linear-gradient-2"/><linearGradient id="linear-gradient-34" x1="43.78" y1="667.71" x2="47.01" y2="667.71" xlink:href="#linear-gradient-2"/><linearGradient id="linear-gradient-35" x1="16.08" y1="666.09" x2="19.31" y2="666.09" xlink:href="#linear-gradient-2"/><linearGradient id="linear-gradient-36" x1="-2.94" y1="704.43" x2="0.29" y2="704.43" xlink:href="#linear-gradient-2"/><linearGradient id="linear-gradient-37" x1="428.01" y1="659.58" x2="431.24" y2="659.58" xlink:href="#linear-gradient-2"/><linearGradient id="linear-gradient-38" x1="518.84" y1="661.03" x2="522.07" y2="661.03" xlink:href="#linear-gradient-2"/><linearGradient id="linear-gradient-39" x1="569.64" y1="649.52" x2="572.87" y2="649.52" xlink:href="#linear-gradient-2"/><linearGradient id="linear-gradient-40" x1="604.89" y1="649.52" x2="608.12" y2="649.52" xlink:href="#linear-gradient-2"/><linearGradient id="linear-gradient-41" x1="627.98" y1="662.41" x2="631.21" y2="662.41" xlink:href="#linear-gradient-2"/><linearGradient id="linear-gradient-42" x1="668.74" y1="683.24" x2="671.97" y2="683.24" xlink:href="#linear-gradient-2"/><linearGradient id="linear-gradient-43" x1="190.67" y1="-19.99" x2="193.9" y2="-19.99" gradientTransform="translate(712.53 858.37) rotate(-90.01)" xlink:href="#linear-gradient-2"/><linearGradient id="linear-gradient-44" x1="178.08" y1="-6.75" x2="181.31" y2="-6.75" gradientTransform="translate(715.94 853.25) rotate(-90)" xlink:href="#linear-gradient-2"/><linearGradient id="linear-gradient-45" x1="538.09" y1="638.7" x2="541.32" y2="638.7" gradientTransform="translate(196.5 7.02) rotate(-0.01)" xlink:href="#linear-gradient-2"/><linearGradient id="linear-gradient-46" x1="209.11" y1="-24.26" x2="212.34" y2="-24.26" gradientTransform="matrix(0, -1, 1, 0, 706.6, 860.85)" xlink:href="#linear-gradient-2"/><linearGradient id="linear-gradient-47" x1="199.03" y1="-38.82" x2="202.26" y2="-38.82" gradientTransform="translate(710.8 865.13) rotate(-90)" xlink:href="#linear-gradient-2"/><linearGradient id="linear-gradient-48" x1="636.73" y1="685.3" x2="639.96" y2="685.3" xlink:href="#linear-gradient-2"/><linearGradient id="linear-gradient-49" x1="667.13" y1="707.4" x2="670.36" y2="707.4" xlink:href="#linear-gradient-2"/><linearGradient id="linear-gradient-50" x1="722.87" y1="699.1" x2="726.1" y2="699.1" xlink:href="#linear-gradient-2"/><linearGradient id="linear-gradient-51" x1="678.67" y1="715.68" x2="681.91" y2="715.68" xlink:href="#linear-gradient-2"/><linearGradient id="linear-gradient-52" x1="745.14" y1="675.17" x2="748.37" y2="675.17" xlink:href="#linear-gradient-2"/><linearGradient id="linear-gradient-53" x1="860.7" y1="676.79" x2="863.93" y2="676.79" xlink:href="#linear-gradient-2"/><linearGradient id="linear-gradient-54" x1="1220.73" y1="697.48" x2="1223.96" y2="697.48" xlink:href="#linear-gradient-2"/><linearGradient id="linear-gradient-55" x1="977.14" y1="683.41" x2="980.37" y2="683.41" xlink:href="#linear-gradient-2"/><linearGradient id="linear-gradient-56" x1="1217.5" y1="673.11" x2="1220.73" y2="673.11" xlink:href="#linear-gradient-2"/><linearGradient id="linear-gradient-57" x1="1232.15" y1="650.13" x2="1235.38" y2="650.13" xlink:href="#linear-gradient-2"/><linearGradient id="linear-gradient-58" x1="989.82" y1="659.75" x2="993.05" y2="659.75" xlink:href="#linear-gradient-2"/><linearGradient id="linear-gradient-59" x1="1236.28" y1="658.52" x2="1239.51" y2="658.52" xlink:href="#linear-gradient-2"/><linearGradient id="linear-gradient-60" x1="1268.68" y1="659.58" x2="1271.91" y2="659.58" xlink:href="#linear-gradient-2"/><linearGradient id="linear-gradient-61" x1="1262.91" y1="692.19" x2="1266.14" y2="692.19" xlink:href="#linear-gradient-2"/><linearGradient id="linear-gradient-62" x1="1242.04" y1="676.09" x2="1245.27" y2="676.09" xlink:href="#linear-gradient-2"/><linearGradient id="linear-gradient-63" x1="1301.52" y1="666.09" x2="1304.75" y2="666.09" xlink:href="#linear-gradient-2"/><linearGradient id="linear-gradient-64" x1="1343.32" y1="651.74" x2="1346.55" y2="651.74" xlink:href="#linear-gradient-2"/><linearGradient id="linear-gradient-65" x1="1387.46" y1="647.9" x2="1390.69" y2="647.9" xlink:href="#linear-gradient-2"/><linearGradient id="linear-gradient-66" x1="1344.94" y1="667.71" x2="1348.17" y2="667.71" xlink:href="#linear-gradient-2"/><linearGradient id="linear-gradient-67" x1="1319.98" y1="643.99" x2="1323.21" y2="643.99" xlink:href="#linear-gradient-2"/><linearGradient id="linear-gradient-68" x1="1332.6" y1="680.01" x2="1335.83" y2="680.01" xlink:href="#linear-gradient-2"/><linearGradient id="linear-gradient-69" x1="1291.84" y1="690.85" x2="1295.07" y2="690.85" xlink:href="#linear-gradient-2"/><linearGradient id="linear-gradient-70" x1="1389.08" y1="684.13" x2="1392.31" y2="684.13" xlink:href="#linear-gradient-2"/><linearGradient id="linear-gradient-71" x1="1341.71" y1="704.43" x2="1344.94" y2="704.43" xlink:href="#linear-gradient-2"/><linearGradient id="linear-gradient-72" x1="1413.92" y1="664.03" x2="1417.15" y2="664.03" xlink:href="#linear-gradient-2"/><linearGradient id="linear-gradient-73" x1="1392.31" y1="655.45" x2="1395.54" y2="655.45" xlink:href="#linear-gradient-2"/><linearGradient id="linear-gradient-74" x1="1444.01" y1="643.99" x2="1447.24" y2="643.99" xlink:href="#linear-gradient-2"/><linearGradient id="linear-gradient-75" x1="1442.4" y1="676.09" x2="1445.63" y2="676.09" xlink:href="#linear-gradient-2"/><linearGradient id="linear-gradient-76" x1="1413.92" y1="685.3" x2="1417.15" y2="685.3" xlink:href="#linear-gradient-2"/><linearGradient id="linear-gradient-77" x1="1488.6" y1="671.94" x2="1491.83" y2="671.94" xlink:href="#linear-gradient-2"/><linearGradient id="linear-gradient-78" x1="1490.66" y1="655.45" x2="1493.89" y2="655.45" xlink:href="#linear-gradient-2"/><linearGradient id="linear-gradient-79" x1="1442.4" y1="664.85" x2="1445.63" y2="664.85" xlink:href="#linear-gradient-2"/><linearGradient id="linear-gradient-80" x1="1479.85" y1="647.9" x2="1483.08" y2="647.9" xlink:href="#linear-gradient-2"/><linearGradient id="linear-gradient-81" x1="1523.33" y1="647.9" x2="1526.56" y2="647.9" xlink:href="#linear-gradient-2"/><linearGradient id="linear-gradient-82" x1="1526.56" y1="678.39" x2="1529.79" y2="678.39" xlink:href="#linear-gradient-2"/><linearGradient id="linear-gradient-83" x1="1486.98" y1="701.2" x2="1490.21" y2="701.2" xlink:href="#linear-gradient-2"/><linearGradient id="linear-gradient-84" x1="1459.21" y1="723.93" x2="1462.44" y2="723.93" xlink:href="#linear-gradient-2"/><linearGradient id="linear-gradient-85" x1="1447.24" y1="692.19" x2="1450.47" y2="692.19" xlink:href="#linear-gradient-2"/><linearGradient id="linear-gradient-86" x1="1389.08" y1="707.4" x2="1392.31" y2="707.4" xlink:href="#linear-gradient-2"/><linearGradient id="linear-gradient-87" x1="1550.39" y1="650.13" x2="1553.62" y2="650.13" xlink:href="#linear-gradient-2"/><linearGradient id="linear-gradient-88" x1="1577.56" y1="661.03" x2="1580.79" y2="661.03" xlink:href="#linear-gradient-2"/><linearGradient id="linear-gradient-89" x1="1547.16" y1="692.19" x2="1550.39" y2="692.19" xlink:href="#linear-gradient-2"/><linearGradient id="linear-gradient-90" x1="1508.12" y1="690.85" x2="1511.35" y2="690.85" xlink:href="#linear-gradient-2"/><linearGradient id="linear-gradient-91" x1="1732.56" y1="697.48" x2="1735.79" y2="697.48" xlink:href="#linear-gradient-2"/><linearGradient id="linear-gradient-92" x1="1747.65" y1="652.78" x2="1750.88" y2="652.78" xlink:href="#linear-gradient-2"/><linearGradient id="linear-gradient-93" x1="218.52" y1="708.11" x2="221.75" y2="708.11" xlink:href="#linear-gradient-2"/><linearGradient id="linear-gradient-94" x1="210.46" y1="678.16" x2="213.69" y2="678.16" xlink:href="#linear-gradient-2"/><linearGradient id="linear-gradient-95" x1="225.97" y1="666.09" x2="229.2" y2="666.09" xlink:href="#linear-gradient-2"/><linearGradient id="linear-gradient-96" x1="197.49" y1="656.91" x2="200.72" y2="656.91" xlink:href="#linear-gradient-2"/><linearGradient id="linear-gradient-97" x1="175.32" y1="675.17" x2="178.55" y2="675.17" xlink:href="#linear-gradient-2"/><linearGradient id="linear-gradient-98" x1="155.6" y1="669.88" x2="158.83" y2="669.88" xlink:href="#linear-gradient-2"/><linearGradient id="linear-gradient-99" x1="138.36" y1="693.81" x2="141.59" y2="693.81" xlink:href="#linear-gradient-2"/><linearGradient id="linear-gradient-100" x1="101.68" y1="673.55" x2="104.91" y2="673.55" xlink:href="#linear-gradient-2"/><linearGradient id="linear-gradient-101" x1="114.14" y1="653.84" x2="117.37" y2="653.84" xlink:href="#linear-gradient-2"/><linearGradient id="linear-gradient-102" x1="68.42" y1="656.91" x2="71.65" y2="656.91" xlink:href="#linear-gradient-2"/><linearGradient id="linear-gradient-103" x1="66.8" y1="656.91" x2="70.03" y2="656.91" xlink:href="#linear-gradient-2"/><linearGradient id="linear-gradient-104" x1="79.48" y1="706.49" x2="82.72" y2="706.49" xlink:href="#linear-gradient-2"/><linearGradient id="linear-gradient-105" x1="471.86" y1="704.43" x2="475.09" y2="704.43" xlink:href="#linear-gradient-2"/><linearGradient id="linear-gradient-106" x1="445.9" y1="685.3" x2="450.03" y2="685.3" xlink:href="#linear-gradient-2"/><linearGradient id="linear-gradient-107" x1="306.64" y1="668.98" x2="310.77" y2="668.98" xlink:href="#linear-gradient-2"/><linearGradient id="linear-gradient-108" x1="238.71" y1="656.91" x2="242.83" y2="656.91" xlink:href="#linear-gradient-2"/><linearGradient id="linear-gradient-109" x1="229.2" y1="692.91" x2="233.32" y2="692.91" xlink:href="#linear-gradient-2"/><linearGradient id="linear-gradient-110" x1="172.81" y1="661.18" x2="176.94" y2="661.18" xlink:href="#linear-gradient-2"/><linearGradient id="linear-gradient-111" x1="115.75" y1="671.04" x2="119.88" y2="671.04" xlink:href="#linear-gradient-2"/><linearGradient id="linear-gradient-112" x1="155.15" y1="690.85" x2="159.28" y2="690.85" xlink:href="#linear-gradient-2"/><linearGradient id="linear-gradient-113" x1="125.94" y1="719.81" x2="130.07" y2="719.81" xlink:href="#linear-gradient-2"/><linearGradient id="linear-gradient-114" x1="647.39" y1="759.39" x2="651.51" y2="759.39" xlink:href="#linear-gradient-2"/><linearGradient id="linear-gradient-115" x1="638.35" y1="710.38" x2="642.48" y2="710.38" xlink:href="#linear-gradient-2"/><linearGradient id="linear-gradient-116" x1="710.81" y1="721.87" x2="714.94" y2="721.87" xlink:href="#linear-gradient-2"/><linearGradient id="linear-gradient-117" x1="1233.77" y1="694.97" x2="1237.9" y2="694.97" xlink:href="#linear-gradient-2"/><linearGradient id="linear-gradient-118" x1="867.64" y1="671.49" x2="871.77" y2="671.49" xlink:href="#linear-gradient-2"/><linearGradient id="linear-gradient-119" x1="861.87" y1="716.33" x2="866" y2="716.33" xlink:href="#linear-gradient-2"/><linearGradient id="linear-gradient-120" x1="484.46" y1="672.17" x2="488.58" y2="672.17" gradientTransform="translate(383.05 28.57)" xlink:href="#linear-gradient-2"/><linearGradient id="linear-gradient-121" x1="986.35" y1="715.68" x2="990.47" y2="715.68" xlink:href="#linear-gradient-2"/><linearGradient id="linear-gradient-122" x1="978.75" y1="709.25" x2="982.88" y2="709.25" xlink:href="#linear-gradient-2"/><linearGradient id="linear-gradient-123" x1="1260.4" y1="721.87" x2="1264.53" y2="721.87" xlink:href="#linear-gradient-2"/><linearGradient id="linear-gradient-124" x1="1317.47" y1="682.28" x2="1321.59" y2="682.28" xlink:href="#linear-gradient-2"/><linearGradient id="linear-gradient-125" x1="1270.29" y1="671.04" x2="1274.42" y2="671.04" xlink:href="#linear-gradient-2"/><linearGradient id="linear-gradient-126" x1="1304.75" y1="654.85" x2="1308.88" y2="654.85" xlink:href="#linear-gradient-2"/><linearGradient id="linear-gradient-127" x1="1369.35" y1="666.92" x2="1373.47" y2="666.92" xlink:href="#linear-gradient-2"/><linearGradient id="linear-gradient-128" x1="1377.5" y1="683.24" x2="1381.62" y2="683.24" xlink:href="#linear-gradient-2"/><linearGradient id="linear-gradient-129" x1="1460.83" y1="685.3" x2="1464.95" y2="685.3" xlink:href="#linear-gradient-2"/><linearGradient id="linear-gradient-130" x1="1415.54" y1="712.44" x2="1419.67" y2="712.44" xlink:href="#linear-gradient-2"/><linearGradient id="linear-gradient-131" x1="1419.67" y1="655.45" x2="1423.79" y2="655.45" xlink:href="#linear-gradient-2"/><linearGradient id="linear-gradient-132" x1="1505.61" y1="655.06" x2="1509.74" y2="655.06" xlink:href="#linear-gradient-2"/><linearGradient id="linear-gradient-133" x1="1507.68" y1="675.17" x2="1511.8" y2="675.17" xlink:href="#linear-gradient-2"/><linearGradient id="linear-gradient-134" x1="1464.95" y1="658.97" x2="1469.08" y2="658.97" xlink:href="#linear-gradient-2"/><linearGradient id="linear-gradient-135" x1="1553.62" y1="666.09" x2="1557.74" y2="666.09" xlink:href="#linear-gradient-2"/><linearGradient id="linear-gradient-136" x1="1580.79" y1="675.17" x2="1584.92" y2="675.17" xlink:href="#linear-gradient-2"/><linearGradient id="linear-gradient-137" x1="1604.34" y1="652.78" x2="1608.47" y2="652.78" xlink:href="#linear-gradient-2"/><linearGradient id="linear-gradient-138" x1="1639.67" y1="659.58" x2="1643.79" y2="659.58" xlink:href="#linear-gradient-2"/><linearGradient id="linear-gradient-139" x1="1641.73" y1="683.24" x2="1645.85" y2="683.24" xlink:href="#linear-gradient-2"/><linearGradient id="linear-gradient-140" x1="1681.33" y1="652.78" x2="1685.46" y2="652.78" xlink:href="#linear-gradient-2"/><linearGradient id="linear-gradient-141" x1="1713.94" y1="657.52" x2="1718.06" y2="657.52" xlink:href="#linear-gradient-2"/><linearGradient id="linear-gradient-142" x1="1697.63" y1="680.22" x2="1701.76" y2="680.22" xlink:href="#linear-gradient-2"/><linearGradient id="linear-gradient-143" x1="1749.26" y1="677.23" x2="1753.39" y2="677.23" xlink:href="#linear-gradient-2"/><linearGradient id="linear-gradient-144" x1="1490.21" y1="721.87" x2="1494.34" y2="721.87" xlink:href="#linear-gradient-2"/><linearGradient id="linear-gradient-145" x1="1365.22" y1="715.68" x2="1369.35" y2="715.68" xlink:href="#linear-gradient-2"/><linearGradient id="linear-gradient-146" x1="978.75" y1="650.3" x2="982.88" y2="650.3" xlink:href="#linear-gradient-2"/><linearGradient id="linear-gradient-147" x1="988.41" y1="692.19" x2="992.54" y2="692.19" xlink:href="#linear-gradient-2"/><linearGradient id="linear-gradient-148" x1="991.43" y1="678.33" x2="995.56" y2="678.33" xlink:href="#linear-gradient-2"/><linearGradient id="linear-gradient-149" x1="456.79" y1="657.52" x2="460.92" y2="657.52" xlink:href="#linear-gradient-2"/><linearGradient id="linear-gradient-150" x1="582.44" y1="685.3" x2="586.57" y2="685.3" xlink:href="#linear-gradient-2"/><linearGradient id="linear-gradient-151" x1="591.22" y1="666.09" x2="595.34" y2="666.09" xlink:href="#linear-gradient-2"/><linearGradient id="linear-gradient-152" x1="680.29" y1="694.97" x2="684.42" y2="694.97" xlink:href="#linear-gradient-2"/><linearGradient id="linear-gradient-153" x1="355.55" y1="671.04" x2="359.68" y2="671.04" xlink:href="#linear-gradient-2"/><linearGradient id="linear-gradient-154" x1="504.98" y1="671.04" x2="509.1" y2="671.04" xlink:href="#linear-gradient-2"/><linearGradient id="linear-gradient-155" x1="638.35" y1="673.11" x2="642.48" y2="673.11" xlink:href="#linear-gradient-2"/><linearGradient id="linear-gradient-156" x1="651.51" y1="655.45" x2="655.64" y2="655.45" xlink:href="#linear-gradient-2"/><linearGradient id="linear-gradient-157" x1="1190.5" y1="186.52" x2="1194.62" y2="186.52" gradientTransform="translate(899.57 -544.68) rotate(90.01)" xlink:href="#linear-gradient-2"/><linearGradient id="linear-gradient-158" x1="987.35" y1="-285.94" x2="991.47" y2="-285.94" gradientTransform="translate(1723.96 376.36) rotate(179.99)" xlink:href="#linear-gradient-2"/><linearGradient id="linear-gradient-159" x1="538.5" y1="673.11" x2="542.62" y2="673.11" xlink:href="#linear-gradient-2"/><linearGradient id="linear-gradient-160" x1="876.09" y1="730.3" x2="880.21" y2="730.3" xlink:href="#linear-gradient-2"/><linearGradient id="linear-gradient-161" x1="847.14" y1="730.3" x2="851.26" y2="730.3" xlink:href="#linear-gradient-2"/><linearGradient id="linear-gradient-162" x1="538.5" y1="710.38" x2="542.62" y2="710.38" xlink:href="#linear-gradient-2"/><linearGradient id="linear-gradient-163" x1="401.52" y1="678.16" x2="405.64" y2="678.16" xlink:href="#linear-gradient-2"/><linearGradient id="linear-gradient-164" x1="269.96" y1="706.05" x2="274.08" y2="706.05" xlink:href="#linear-gradient-2"/><linearGradient id="linear-gradient-165" x1="187.05" y1="680.22" x2="191.18" y2="680.22" xlink:href="#linear-gradient-2"/><linearGradient id="linear-gradient-166" x1="591.92" y1="707.4" x2="596.04" y2="707.4" xlink:href="#linear-gradient-2"/><linearGradient id="linear-gradient-167" x1="427.56" y1="717.74" x2="431.68" y2="717.74" xlink:href="#linear-gradient-2"/><clipPath id="clip-path-2"><path class="cls-1" d="M1766.47,876.74v281.62H-31.5V921.3c137.11-59,296.89,4,447-6.41,61.68-4.29,122.49-21.25,184.29-19.24,46.3,1.58,91.52,13.7,137.55,19,76.84,8.86,154.94-1.47,231.89,6.63,119.4,12.55,240.59,68.91,354.82,31.9,34.56-11.2,66-30.54,100.38-42.39,42-14.51,86.9-17.5,131.14-20.38Q1661.09,883.58,1766.47,876.74Z"/></clipPath><linearGradient id="linear-gradient-168" x1="204.36" y1="1013.33" x2="244.13" y2="1123.44" gradientUnits="userSpaceOnUse"><stop offset="0.01" stop-color="#dc8129"/><stop offset="0.09" stop-color="#da8022"/><stop offset="0.38" stop-color="#d47e0f"/><stop offset="0.68" stop-color="#d17c04"/><stop offset="1" stop-color="#d07c00"/></linearGradient><linearGradient id="linear-gradient-169" x1="201.28" y1="1016.59" x2="234.35" y2="1108.12" gradientUnits="userSpaceOnUse"><stop offset="0.08" stop-color="#fce329"/><stop offset="0.28" stop-color="#fcd729"/><stop offset="0.64" stop-color="#fcb629"/><stop offset="1" stop-color="#fc9029"/></linearGradient><linearGradient id="linear-gradient-170" x1="200.9" y1="1017.02" x2="233.85" y2="1108.21" gradientUnits="userSpaceOnUse"><stop offset="0.01" stop-color="#fcc128"/><stop offset="0.14" stop-color="#fcb228"/><stop offset="0.37" stop-color="#fc9f29"/><stop offset="0.6" stop-color="#fc9429"/><stop offset="0.85" stop-color="#fc9029"/></linearGradient><linearGradient id="linear-gradient-171" x1="-138.84" y1="1046.95" x2="-110.96" y2="1124.14" gradientTransform="matrix(-1, 0, 0, 1, 1573.23, 0)" xlink:href="#linear-gradient-168"/><linearGradient id="linear-gradient-172" x1="-141" y1="1049.23" x2="-117.82" y2="1113.4" gradientTransform="matrix(-1, 0, 0, 1, 1573.23, 0)" xlink:href="#linear-gradient-169"/><linearGradient id="linear-gradient-173" x1="-141.26" y1="1049.53" x2="-118.17" y2="1113.47" gradientTransform="matrix(-1, 0, 0, 1, 1573.23, 0)" xlink:href="#linear-gradient-170"/></defs><title>randmizr-summer-banner</title><g class="cls-2"><g id="Layer_1" data-name="Layer 1"><rect class="cls-3" x="-31.49" y="-161.97" width="1999.49" height="1332.96"/><g class="cls-4"><path class="cls-5" d="M1968,643.16v346.4l-669.4,111.35-827.86-83.37s-241.93,6.25-315,8.21c-37.47,1-117.79-11.41-187.23-23.75V643.16Z"/><path class="cls-6" d="M-44.55,647.48c-2.21.13-4.37.29-6.53.46l125.82,3.64s1075-6.82,1743.89,9.59c11.06.27,9.9-3.9,16.69-7.94,5.6-3.33,136.61-7.39,132.06-11.14C1221.22,638.5,157.17,636-44.55,647.48Z"/><path class="cls-7" d="M2039.42,644S368,652.92,212.08,658.84c338.69-.61,1097.55,3.13,1148.92,11S2039.42,644,2039.42,644Z"/><g class="cls-8"><path class="cls-9" d="M1968,766.25V908.74c-46,21.25-95.67,36.47-143.78,54C1713.79,1003,1609,1057,1494.11,1085.47c-204.46,50.6-421.12,16.3-633,9.13-166.56-5.6-334.16,5.76-499.45-13.53-134.23-15.65-264.23-51.3-393.14-88.91V836.24c90.53-.33,181.25-17.88,271.3-8.86,56.81,5.71,112.59,22,169.77,20.11C457.74,846,504.21,831.68,552,826c128.61-15.38,255.65,31.79,385,40.6,102,7,205.55-10,306.41,5.22,47.93,7.23,99.72,21.19,143,1.2,23.75-10.92,40.92-30.71,63.16-43.91,32.27-19.08,72.4-23.1,110.78-26.52L1720.81,788l219-19.73C1949.14,767.44,1958.56,766.63,1968,766.25Z"/></g><circle class="cls-10" cx="377.82" cy="709.01" r="1.62"/><circle class="cls-11" cx="431.68" cy="675.17" r="1.62"/><circle class="cls-12" cx="493.22" cy="687.36" r="1.62"/><circle class="cls-13" cx="494.84" cy="664.03" r="1.62"/><circle class="cls-14" cx="542.62" cy="673.11" r="1.62"/><circle class="cls-15" cx="576.1" cy="671.49" r="1.62"/><circle class="cls-16" cx="619.97" cy="683.24" r="1.62"/><circle class="cls-17" cx="572.87" cy="690.85" r="1.62"/><circle class="cls-18" cx="542.62" cy="687.36" r="1.62"/><circle class="cls-19" cx="518.84" cy="697.04" r="1.62"/><circle class="cls-20" cx="471.86" cy="681.62" r="1.62"/><circle class="cls-21" cx="414.22" cy="692.91" r="1.62"/><circle class="cls-22" cx="359.68" cy="684.85" r="1.62"/><circle class="cls-23" cx="328.63" cy="686.47" r="1.62"/><circle class="cls-24" cx="275.7" cy="671.49" r="1.62"/><circle class="cls-25" cx="251.84" cy="695.42" r="1.62"/><circle class="cls-26" cx="250.22" cy="673.11" r="1.62"/><circle class="cls-27" cx="330.24" cy="652.19" r="1.62"/><circle class="cls-28" cx="389.96" cy="649.52" r="1.62"/><circle class="cls-29" cx="293.5" cy="651.13" r="1.62"/><circle class="cls-30" cx="295.12" cy="690.85" r="1.62"/><circle class="cls-31" cx="391.58" cy="667.71" r="1.62"/><circle class="cls-32" cx="331.86" cy="702.82" r="1.62"/><circle class="cls-33" cx="323.55" cy="741.1" r="1.62"/><circle class="cls-34" cx="261.41" cy="739.49" r="1.62"/><circle class="cls-35" cx="210.46" cy="743.16" r="1.62"/><circle class="cls-36" cx="187.05" cy="779.18" r="1.62"/><circle class="cls-37" cx="175.32" cy="736.04" r="1.62"/><circle class="cls-38" cx="176.94" cy="709.72" r="1.62"/><circle class="cls-39" cx="114.13" cy="741.1" r="1.62"/><circle class="cls-40" cx="68.42" cy="731.91" r="1.62"/><circle class="cls-41" cx="43.78" cy="685.75" r="1.62"/><circle class="cls-42" cx="45.39" cy="667.71" r="1.62"/><circle class="cls-43" cx="17.7" cy="666.09" r="1.62"/><circle class="cls-44" cx="-1.32" cy="704.43" r="1.62"/><circle class="cls-45" cx="429.62" cy="659.58" r="1.62"/><circle class="cls-46" cx="520.45" cy="661.03" r="1.62"/><circle class="cls-47" cx="571.25" cy="649.52" r="1.62"/><circle class="cls-48" cx="606.5" cy="649.52" r="1.62"/><circle class="cls-49" cx="629.6" cy="662.41" r="1.62"/><circle class="cls-50" cx="670.36" cy="683.24" r="1.62"/><circle class="cls-51" cx="692.52" cy="666.09" r="1.62" transform="translate(-182.28 268.61) rotate(-19.45)"/><circle class="cls-52" cx="709.19" cy="673.56" r="1.62" transform="translate(-183.88 274.73) rotate(-19.46)"/><circle class="cls-53" cx="736.37" cy="645.61" r="1.62" transform="translate(-186.32 317.45) rotate(-21.66)"/><circle class="cls-54" cx="682.35" cy="650.13" r="1.62" transform="translate(-177.6 264.45) rotate(-19.46)"/><circle class="cls-55" cx="671.97" cy="664.48" r="1.62" transform="translate(-182.95 261.75) rotate(-19.45)"/><circle class="cls-56" cx="638.35" cy="685.3" r="1.62"/><circle class="cls-57" cx="668.74" cy="707.4" r="1.62"/><circle class="cls-58" cx="724.48" cy="699.1" r="1.62"/><circle class="cls-59" cx="680.29" cy="715.68" r="1.62"/><circle class="cls-60" cx="746.76" cy="675.17" r="1.62"/><circle class="cls-61" cx="862.32" cy="676.79" r="1.62"/><circle class="cls-62" cx="1222.34" cy="697.48" r="1.62"/><circle class="cls-63" cx="978.75" cy="683.41" r="1.62"/><circle class="cls-64" cx="1219.11" cy="673.11" r="1.62"/><circle class="cls-65" cx="1233.77" cy="650.13" r="1.62"/><circle class="cls-66" cx="991.43" cy="659.75" r="1.62"/><circle class="cls-67" cx="1237.9" cy="658.52" r="1.62"/><circle class="cls-68" cx="1270.29" cy="659.58" r="1.62"/><circle class="cls-69" cx="1264.53" cy="692.19" r="1.62"/><circle class="cls-70" cx="1243.65" cy="676.09" r="1.62"/><circle class="cls-71" cx="1303.13" cy="666.09" r="1.62"/><circle class="cls-72" cx="1344.94" cy="651.74" r="1.62"/><circle class="cls-73" cx="1389.08" cy="647.9" r="1.62"/><circle class="cls-74" cx="1346.55" cy="667.71" r="1.62"/><circle class="cls-75" cx="1321.59" cy="643.99" r="1.62"/><circle class="cls-76" cx="1334.22" cy="680.01" r="1.62"/><circle class="cls-77" cx="1293.46" cy="690.85" r="1.62"/><circle class="cls-78" cx="1390.69" cy="684.13" r="1.62"/><circle class="cls-79" cx="1343.32" cy="704.43" r="1.62"/><circle class="cls-80" cx="1415.54" cy="664.03" r="1.62"/><circle class="cls-81" cx="1393.92" cy="655.45" r="1.62"/><circle class="cls-82" cx="1445.63" cy="643.99" r="1.62"/><circle class="cls-83" cx="1444.01" cy="676.09" r="1.62"/><circle class="cls-84" cx="1415.54" cy="685.3" r="1.62"/><circle class="cls-85" cx="1490.21" cy="671.94" r="1.62"/><circle class="cls-86" cx="1492.28" cy="655.45" r="1.62"/><circle class="cls-87" cx="1444.01" cy="664.85" r="1.62"/><circle class="cls-88" cx="1481.46" cy="647.9" r="1.62"/><circle class="cls-89" cx="1524.94" cy="647.9" r="1.62"/><circle class="cls-90" cx="1528.17" cy="678.39" r="1.62"/><circle class="cls-91" cx="1488.6" cy="701.2" r="1.62"/><circle class="cls-92" cx="1460.83" cy="723.93" r="1.62"/><circle class="cls-93" cx="1448.86" cy="692.19" r="1.62"/><circle class="cls-94" cx="1390.69" cy="707.4" r="1.62"/><circle class="cls-95" cx="1552" cy="650.13" r="1.62"/><circle class="cls-96" cx="1579.18" cy="661.03" r="1.62"/><circle class="cls-97" cx="1548.77" cy="692.19" r="1.62"/><circle class="cls-98" cx="1509.74" cy="690.85" r="1.62"/><circle class="cls-99" cx="1734.17" cy="697.48" r="1.62"/><circle class="cls-100" cx="1749.26" cy="652.78" r="1.62"/><circle class="cls-101" cx="220.13" cy="708.11" r="1.62"/><circle class="cls-102" cx="212.08" cy="678.16" r="1.62"/><circle class="cls-103" cx="227.58" cy="666.09" r="1.62"/><circle class="cls-104" cx="199.11" cy="656.91" r="1.62"/><circle class="cls-105" cx="176.94" cy="675.17" r="1.62"/><circle class="cls-106" cx="157.21" cy="669.88" r="1.62"/><circle class="cls-107" cx="139.97" cy="693.81" r="1.62"/><circle class="cls-108" cx="103.29" cy="673.55" r="1.62"/><circle class="cls-109" cx="115.75" cy="653.84" r="1.62"/><circle class="cls-110" cx="70.03" cy="656.91" r="1.62"/><circle class="cls-111" cx="68.42" cy="656.91" r="1.62"/><circle class="cls-112" cx="81.1" cy="706.49" r="1.62"/><circle class="cls-113" cx="473.48" cy="704.43" r="1.62"/><circle class="cls-114" cx="447.96" cy="685.3" r="2.06"/><circle class="cls-115" cx="308.7" cy="668.98" r="2.06"/><circle class="cls-116" cx="240.77" cy="656.91" r="2.06"/><circle class="cls-117" cx="231.26" cy="692.91" r="2.06"/><circle class="cls-118" cx="174.88" cy="661.18" r="2.06"/><circle class="cls-119" cx="117.81" cy="671.04" r="2.06"/><circle class="cls-120" cx="157.21" cy="690.85" r="2.06"/><circle class="cls-121" cx="128" cy="719.81" r="2.06"/><circle class="cls-122" cx="649.45" cy="759.39" r="2.06"/><circle class="cls-123" cx="640.41" cy="710.38" r="2.06"/><circle class="cls-124" cx="712.87" cy="721.87" r="2.06"/><circle class="cls-125" cx="1235.83" cy="694.97" r="2.06"/><circle class="cls-126" cx="869.71" cy="671.49" r="2.06"/><circle class="cls-127" cx="863.93" cy="716.33" r="2.06"/><circle class="cls-128" cx="869.55" cy="700.71" r="2.06" transform="translate(-247.12 713.63) rotate(-39.53)"/><circle class="cls-129" cx="988.41" cy="715.68" r="2.06"/><circle class="cls-130" cx="980.81" cy="709.25" r="2.06"/><circle class="cls-131" cx="1262.47" cy="721.87" r="2.06"/><circle class="cls-132" cx="1319.53" cy="682.28" r="2.06"/><circle class="cls-133" cx="1272.35" cy="671.04" r="2.06"/><circle class="cls-134" cx="1306.81" cy="654.85" r="2.06"/><circle class="cls-135" cx="1371.41" cy="666.92" r="2.06"/><circle class="cls-136" cx="1379.56" cy="683.24" r="2.06"/><circle class="cls-137" cx="1462.89" cy="685.3" r="2.06"/><circle class="cls-138" cx="1417.6" cy="712.44" r="2.06"/><circle class="cls-139" cx="1421.73" cy="655.45" r="2.06"/><circle class="cls-140" cx="1507.68" cy="655.06" r="2.06"/><circle class="cls-141" cx="1509.74" cy="675.17" r="2.06"/><circle class="cls-142" cx="1467.02" cy="658.97" r="2.06"/><circle class="cls-143" cx="1555.68" cy="666.09" r="2.06"/><circle class="cls-144" cx="1582.85" cy="675.17" r="2.06"/><circle class="cls-145" cx="1606.4" cy="652.78" r="2.06"/><circle class="cls-146" cx="1641.73" cy="659.58" r="2.06"/><circle class="cls-147" cx="1643.79" cy="683.24" r="2.06"/><circle class="cls-148" cx="1683.39" cy="652.78" r="2.06"/><circle class="cls-149" cx="1716" cy="657.52" r="2.06"/><circle class="cls-150" cx="1699.7" cy="680.22" r="2.06"/><circle class="cls-151" cx="1751.32" cy="677.23" r="2.06"/><circle class="cls-152" cx="1492.28" cy="721.87" r="2.06"/><circle class="cls-153" cx="1367.28" cy="715.68" r="2.06"/><circle class="cls-154" cx="980.81" cy="650.3" r="2.06"/><circle class="cls-155" cx="990.47" cy="692.19" r="2.06"/><circle class="cls-156" cx="993.49" cy="678.33" r="2.06"/><circle class="cls-157" cx="458.86" cy="657.52" r="2.06"/><circle class="cls-158" cx="584.51" cy="685.3" r="2.06"/><circle class="cls-159" cx="593.28" cy="666.09" r="2.06"/><circle class="cls-160" cx="682.35" cy="694.97" r="2.06"/><circle class="cls-161" cx="357.61" cy="671.04" r="2.06"/><circle class="cls-162" cx="507.04" cy="671.04" r="2.06"/><circle class="cls-163" cx="640.41" cy="673.11" r="2.06"/><circle class="cls-164" cx="653.57" cy="655.45" r="2.06"/><circle class="cls-165" cx="712.87" cy="647.9" r="2.06" transform="matrix(0.99, -0.14, 0.14, 0.99, -80.96, 102.19)"/><circle class="cls-166" cx="734.64" cy="662.41" r="2.06" transform="translate(-253.59 618.89) rotate(-39.52)"/><circle class="cls-167" cx="540.56" cy="673.11" r="2.06"/><circle class="cls-168" cx="878.15" cy="730.3" r="2.06"/><circle class="cls-169" cx="849.2" cy="730.3" r="2.06"/><circle class="cls-170" cx="540.56" cy="710.38" r="2.06"/><circle class="cls-171" cx="403.58" cy="678.16" r="2.06"/><circle class="cls-172" cx="272.02" cy="706.05" r="2.06"/><circle class="cls-173" cx="189.12" cy="680.22" r="2.06"/><circle class="cls-174" cx="593.98" cy="707.4" r="2.06"/><circle class="cls-175" cx="429.62" cy="717.74" r="2.06"/><g class="cls-176"><path class="cls-177" d="M643.23,966.51a2.58,2.58,0,0,1,3-4.19c.36.24,2.8-1.35,3.7-1.26a2.54,2.54,0,0,1,2.23,2,4.27,4.27,0,0,1-2.35,4.83c-2.27,1.11-4.73.06-6.59-1.35Z"/><path class="cls-177" d="M718.24,939.41a.46.46,0,0,0,.31-.87.46.46,0,0,0-.31.87Z"/><path class="cls-177" d="M645.12,899.23a2.28,2.28,0,0,0,1.55-4.28,2.28,2.28,0,0,0-1.55,4.28Z"/><path class="cls-177" d="M574.75,910.12a6.27,6.27,0,0,0-1.54,2.11,1.39,1.39,0,0,0,.85,1.77,6.56,6.56,0,0,0,2.66.2c3.89-.51.94-6.67-2-4.08Z"/><path class="cls-177" d="M585.66,934.47a1.92,1.92,0,0,0,1.3-3.6,1.92,1.92,0,0,0-1.3,3.6Z"/><path class="cls-177" d="M698.08,937.94a4,4,0,0,0,1.51-.39,1.44,1.44,0,0,0,.69-1.92,4,4,0,0,0-.91-1.26c-3.33-3.28-6,4-1.29,3.58Z"/><path class="cls-177" d="M720.88,948.29l-.62-.3a2.86,2.86,0,0,0-2.89.48,3,3,0,0,0-1,2.75,2.86,2.86,0,0,0,1.92,2.22l.67.16a2.82,2.82,0,0,0,1.92-5.3Z"/><path class="cls-177" d="M707.56,985.18a1.48,1.48,0,0,0,1-2.79,1.48,1.48,0,0,0-1,2.79Z"/><path class="cls-177" d="M630.23,927.17a4.5,4.5,0,0,0,3.66.93,1.19,1.19,0,0,0,.7-1.94,4.49,4.49,0,0,0-3.41-1.62,1.45,1.45,0,0,0-.95,2.62Z"/><path class="cls-177" d="M781.11,1011.28a7.47,7.47,0,0,0-1.38-1.11l1.37,1.61-.28-.58c-1.79-3.73-7.47-3.49-8.85.34s2.83,7.63,6.59,5.91l.58-.27-2.08.36a7.43,7.43,0,0,0,1.77,0c3.61-.16,5-3.86,2.27-6.29Z"/><path class="cls-177" d="M1021.41,1026.06a.46.46,0,0,0,.31-.87.46.46,0,0,0-.31.87Z"/><path class="cls-177" d="M1056.82,1033.14a.46.46,0,0,0,.31-.87.46.46,0,0,0-.31.87Z"/><path class="cls-177" d="M974.1,979.11c4,1.45,6.24-4.66,2.21-6.12s-6.24,4.66-2.21,6.12Z"/><path class="cls-177" d="M927.81,1049.78c-1.1-1.19-2.14-2.67-3.78-3.13a2.19,2.19,0,0,0-2.73,1.24c-.68,1.51-.18,3.24.07,4.82.92,6,10.61,1.61,6.44-2.93Z"/><path class="cls-177" d="M855.31,1026.06c-2-.21-2.35-1.89-3.42-3.18a1.39,1.39,0,0,0-2.16.07c-1.94,3.45,2,6.73,5.3,7.08,2.6.28,2.89-3.69.28-4Z"/><path class="cls-177" d="M1142.48,1037.49a7.53,7.53,0,0,0,2-1.46,1,1,0,0,0-.78-1.6,7.7,7.7,0,0,0-2.43.56c-1.7.59-.35,3.39,1.21,2.5Z"/><path class="cls-177" d="M1159.67,1063.8c3,1.08,4.65-3.47,1.65-4.56s-4.65,3.47-1.65,4.56Z"/><path class="cls-177" d="M74.44,822.63a2.58,2.58,0,0,1,3-4.19c.36.24,2.8-1.35,3.71-1.26a2.54,2.54,0,0,1,2.23,2A4.27,4.27,0,0,1,81,824c-2.27,1.11-4.73.06-6.59-1.35Z"/><path class="cls-177" d="M149.45,795.54a.46.46,0,0,0,.31-.87.46.46,0,0,0-.31.87Z"/><path class="cls-177" d="M76.33,755.36a2.28,2.28,0,0,0,1.55-4.28,2.28,2.28,0,0,0-1.55,4.28Z"/><path class="cls-177" d="M6,766.25a6.27,6.27,0,0,0-1.54,2.11,1.39,1.39,0,0,0,.85,1.77,6.56,6.56,0,0,0,2.66.2c3.89-.51.94-6.67-2-4.08Z"/><path class="cls-177" d="M16.87,790.6a1.92,1.92,0,0,0,1.3-3.6,1.92,1.92,0,0,0-1.3,3.6Z"/><path class="cls-177" d="M129.29,794.07a4,4,0,0,0,1.5-.39,1.44,1.44,0,0,0,.69-1.92,4,4,0,0,0-.91-1.26c-3.33-3.28-6,4-1.29,3.58Z"/><path class="cls-177" d="M152.09,804.42l-.62-.3a2.86,2.86,0,0,0-2.89.48,3,3,0,0,0-1,2.75,2.86,2.86,0,0,0,1.92,2.22l.67.16a2.82,2.82,0,0,0,1.92-5.3Z"/><path class="cls-177" d="M138.77,841.31a1.48,1.48,0,0,0,1-2.79,1.48,1.48,0,0,0-1,2.79Z"/><path class="cls-177" d="M61.44,783.3a4.5,4.5,0,0,0,3.66.93,1.19,1.19,0,0,0,.7-1.94,4.49,4.49,0,0,0-3.41-1.62,1.45,1.45,0,0,0-.95,2.62Z"/><path class="cls-177" d="M340.58,794.85a7.5,7.5,0,0,0-1.38-1.11l1.37,1.61-.28-.58c-1.79-3.73-7.47-3.49-8.85.34s2.83,7.63,6.59,5.91l.58-.27-2.08.36a7.44,7.44,0,0,0,1.77,0c3.61-.16,5-3.86,2.27-6.29Z"/><path class="cls-177" d="M452.62,882.19a.46.46,0,0,0,.31-.87.46.46,0,0,0-.31.87Z"/><path class="cls-177" d="M488,889.27a.46.46,0,0,0,.31-.87.46.46,0,0,0-.31.87Z"/><path class="cls-177" d="M405.31,835.24c4,1.45,6.24-4.66,2.21-6.12s-6.24,4.66-2.21,6.12Z"/><path class="cls-177" d="M369,852.45c-1.1-1.19-2.15-2.68-3.78-3.13a2.18,2.18,0,0,0-2.73,1.24c-.68,1.51-.18,3.24.07,4.82.92,6,10.61,1.61,6.44-2.93Z"/><path class="cls-177" d="M341.35,865.09c-2-.21-2.35-1.89-3.42-3.17a1.39,1.39,0,0,0-2.16.07c-1.94,3.45,2,6.73,5.3,7.08,2.6.28,2.89-3.69.29-4Z"/><path class="cls-177" d="M468.51,976.3c2.06-1.37,4.68-5.42,1.84-7.5s-6.12,1.66-7.06,3.89c-1.35,3.2,2.77,5.24,5.22,3.61Z"/><path class="cls-177" d="M421.19,944.39a10.56,10.56,0,0,0,3.3-2.29,2.19,2.19,0,0,0-.55-3,9.06,9.06,0,0,0-3.1-1.24c-2.44-.69-4.94.86-4.78,3.49.14,2.34,2.88,4.29,5.14,3.07Z"/><path class="cls-177" d="M478.71,947.44c4.07,1.47,6.31-4.71,2.23-6.19s-6.31,4.71-2.23,6.19Z"/><path class="cls-177" d="M500.58,952.38a15.35,15.35,0,0,0,2.55,3.19,1.36,1.36,0,0,0,2.14-1,14.85,14.85,0,0,0-.9-3.95c-1-3.33-5.81-1.16-3.8,1.73Z"/><path class="cls-177" d="M513.88,982.59l-1.31-.29a1,1,0,0,0-.64,1.77l1.19.61a1.15,1.15,0,1,0,.76-2.1Z"/><path class="cls-177" d="M457,1023.63a4.76,4.76,0,0,0-3.48,0l2.06-.08a3.86,3.86,0,0,0-1.29-.45,2,2,0,0,0-2.62,2.18,10,10,0,0,0,.58,1.87l-.11-2a3.72,3.72,0,0,0-.13,2.67,3.9,3.9,0,0,0,6.19,2.23,3.75,3.75,0,0,0-1.19-6.39Z"/><path class="cls-177" d="M310.69,1000.33l-.16.65a2.64,2.64,0,0,0,5,1.79l.29-.61c1.47-3.07-4.25-5.15-5.08-1.83Z"/><path class="cls-177" d="M130.64,892.69a2.24,2.24,0,0,0,1.52-4.22,2.24,2.24,0,0,0-1.52,4.22Z"/><path class="cls-177" d="M373.69,988.42a8.27,8.27,0,0,0,1.48-1.58,1.22,1.22,0,0,0-.91-1.89,8.68,8.68,0,0,0-2.2.1c-3.24.39-.76,5.56,1.63,3.38Z"/><path class="cls-177" d="M406,991a.46.46,0,0,0,.31-.87.46.46,0,0,0-.31.87Z"/><path class="cls-177" d="M447.75,996.33a8.69,8.69,0,0,0,1-1.8,1.59,1.59,0,0,0-1-2,9.28,9.28,0,0,0-2.09-.38,2.64,2.64,0,0,0-2.62,3.74,2.75,2.75,0,0,0,4.64.44Z"/><path class="cls-177" d="M627.69,1034.11c2.89-.54,6.39-1.46,8.57-3.5a2.27,2.27,0,0,0-.72-3.84c-2.84-1.12-6.43-.76-9.33-.22-4.93.92-3.47,8.49,1.47,7.57Z"/><path class="cls-177" d="M573.69,893.62a7.52,7.52,0,0,0,2-1.46,1,1,0,0,0-.77-1.6,7.72,7.72,0,0,0-2.43.56c-1.7.59-.35,3.39,1.21,2.5Z"/><path class="cls-177" d="M590.88,919.93c3,1.08,4.65-3.47,1.65-4.56s-4.65,3.47-1.65,4.56Z"/><path class="cls-177" d="M654.47,940a2.58,2.58,0,0,1,3-4.19c.36.24,2.8-1.35,3.71-1.26a2.54,2.54,0,0,1,2.23,2,4.28,4.28,0,0,1-2.35,4.83c-2.27,1.1-4.73.06-6.59-1.36Z"/><path class="cls-177" d="M729.48,912.92a.46.46,0,0,0,.31-.87.46.46,0,0,0-.31.87Z"/><path class="cls-177" d="M656.37,872.74a2.28,2.28,0,0,0,1.55-4.28,2.28,2.28,0,0,0-1.55,4.28Z"/><path class="cls-177" d="M586,883.63a6.28,6.28,0,0,0-1.54,2.11,1.39,1.39,0,0,0,.86,1.77,6.55,6.55,0,0,0,2.66.2c3.89-.51.94-6.67-2-4.08Z"/><path class="cls-177" d="M596.9,908a1.92,1.92,0,0,0,1.3-3.6,1.92,1.92,0,0,0-1.3,3.6Z"/><path class="cls-177" d="M709.32,911.45a4,4,0,0,0,1.5-.39,1.44,1.44,0,0,0,.69-1.92,4,4,0,0,0-.91-1.26c-3.33-3.28-6,4-1.29,3.58Z"/><path class="cls-177" d="M732.12,921.8l-.62-.3a2.86,2.86,0,0,0-2.89.48,3,3,0,0,0-1,2.75,2.86,2.86,0,0,0,1.92,2.22l.67.16a2.82,2.82,0,0,0,1.92-5.3Z"/><path class="cls-177" d="M718.8,958.68a1.48,1.48,0,0,0,1-2.79,1.48,1.48,0,0,0-1,2.79Z"/><path class="cls-177" d="M641.47,900.68a4.5,4.5,0,0,0,3.66.93,1.19,1.19,0,0,0,.7-1.94,4.49,4.49,0,0,0-3.41-1.62,1.45,1.45,0,0,0-.95,2.62Z"/><path class="cls-177" d="M901.19,772.92a7.46,7.46,0,0,0-1.38-1.11l1.37,1.61-.28-.58c-1.79-3.73-7.47-3.49-8.85.34s2.83,7.63,6.59,5.91l.58-.27-2.08.36a7.48,7.48,0,0,0,1.77,0c3.61-.16,5-3.86,2.27-6.29Z"/><path class="cls-177" d="M1032.65,999.57a.46.46,0,0,0,.31-.87.46.46,0,0,0-.31.87Z"/><path class="cls-177" d="M1068.06,1006.65a.46.46,0,0,0,.31-.87.46.46,0,0,0-.31.87Z"/><path class="cls-177" d="M985.34,952.62c4,1.45,6.25-4.66,2.21-6.12s-6.24,4.66-2.21,6.12Z"/><path class="cls-177" d="M949,969.82c-1.1-1.19-2.15-2.68-3.78-3.13a2.19,2.19,0,0,0-2.73,1.24c-.68,1.51-.18,3.24.07,4.82.92,6,10.61,1.61,6.44-2.93Z"/><path class="cls-177" d="M921.38,982.47c-2-.21-2.35-1.89-3.42-3.17a1.39,1.39,0,0,0-2.16.07c-1.94,3.45,2,6.73,5.3,7.08,2.6.28,2.89-3.69.29-4Z"/><path class="cls-177" d="M906.33,1061.88a10.57,10.57,0,0,0,3.3-2.29,2.19,2.19,0,0,0-.55-3,9.06,9.06,0,0,0-3.1-1.24c-2.44-.69-4.94.86-4.78,3.49.14,2.34,2.88,4.29,5.14,3.07Z"/><path class="cls-177" d="M1058.74,1064.82c4.07,1.47,6.31-4.71,2.23-6.19s-6.31,4.71-2.23,6.19Z"/><path class="cls-177" d="M1080.62,1069.76a15.35,15.35,0,0,0,2.55,3.19,1.36,1.36,0,0,0,2.14-1,14.91,14.91,0,0,0-.9-3.95c-1-3.33-5.81-1.16-3.8,1.73Z"/><path class="cls-177" d="M970.32,1083.17a2.24,2.24,0,0,0,1.52-4.22,2.24,2.24,0,0,0-1.52,4.22Z"/><path class="cls-177" d="M1153.72,1011a7.51,7.51,0,0,0,2-1.45,1,1,0,0,0-.78-1.6,7.69,7.69,0,0,0-2.42.56c-1.7.59-.35,3.39,1.21,2.5Z"/><path class="cls-177" d="M1170.91,1037.31c3,1.08,4.65-3.47,1.65-4.56s-4.65,3.47-1.65,4.56Z"/><path class="cls-177" d="M371.43,1063.59a2.28,2.28,0,0,0,1.55-4.28,2.28,2.28,0,0,0-1.55,4.28Z"/><path class="cls-177" d="M301.05,1074.48a6.26,6.26,0,0,0-1.54,2.11,1.39,1.39,0,0,0,.85,1.77,6.54,6.54,0,0,0,2.66.2c3.89-.51.94-6.67-2-4.08Z"/><path class="cls-177" d="M296.66,966.12a2.58,2.58,0,0,1,3-4.19c.36.24,2.8-1.35,3.71-1.26a2.54,2.54,0,0,1,2.23,2,4.28,4.28,0,0,1-2.35,4.83c-2.27,1.1-4.73.06-6.59-1.36Z"/><path class="cls-177" d="M371.67,939a.46.46,0,0,0,.31-.87.46.46,0,0,0-.31.87Z"/><path class="cls-177" d="M298.55,898.84a2.28,2.28,0,0,0,1.55-4.28,2.28,2.28,0,0,0-1.55,4.28Z"/><path class="cls-177" d="M88.35,884.89A6.27,6.27,0,0,0,86.81,887a1.39,1.39,0,0,0,.85,1.77,6.53,6.53,0,0,0,2.66.2c3.89-.51.94-6.67-2-4.08Z"/><path class="cls-177" d="M239.09,934.08a1.92,1.92,0,0,0,1.3-3.6,1.92,1.92,0,0,0-1.3,3.6Z"/><path class="cls-177" d="M351.5,937.55a4,4,0,0,0,1.5-.39,1.44,1.44,0,0,0,.69-1.92,4,4,0,0,0-.91-1.26c-3.33-3.28-6,4-1.29,3.58Z"/><path class="cls-177" d="M215.52,833.35l-.62-.3a2.86,2.86,0,0,0-2.89.48,3,3,0,0,0-1,2.75,2.86,2.86,0,0,0,1.92,2.22l.67.16a2.82,2.82,0,0,0,1.92-5.3Z"/><path class="cls-177" d="M361,984.79a1.48,1.48,0,0,0,1-2.79,1.48,1.48,0,0,0-1,2.79Z"/><path class="cls-177" d="M283.66,926.79a4.5,4.5,0,0,0,3.66.93,1.19,1.19,0,0,0,.7-1.94,4.49,4.49,0,0,0-3.41-1.62,1.45,1.45,0,0,0-.95,2.62Z"/><path class="cls-177" d="M674.84,1025.67a.46.46,0,0,0,.31-.87.46.46,0,0,0-.31.87Z"/><path class="cls-177" d="M710.25,1032.75a.46.46,0,0,0,.31-.87.46.46,0,0,0-.31.87Z"/><path class="cls-177" d="M627.53,978.72c4,1.45,6.25-4.66,2.21-6.12s-6.24,4.66-2.21,6.12Z"/><path class="cls-177" d="M591.17,995.93c-1.1-1.19-2.14-2.68-3.77-3.13a2.19,2.19,0,0,0-2.73,1.24c-.68,1.51-.18,3.24.07,4.82.92,6,10.61,1.61,6.44-2.93Z"/><path class="cls-177" d="M563.57,1008.57c-2-.21-2.35-1.89-3.42-3.18a1.39,1.39,0,0,0-2.16.07c-1.94,3.45,2,6.73,5.3,7.08,2.6.28,2.89-3.69.29-4Z"/><path class="cls-177" d="M795.91,1037.1a7.54,7.54,0,0,0,2-1.46,1,1,0,0,0-.77-1.6,7.74,7.74,0,0,0-2.43.56c-1.7.59-.35,3.39,1.21,2.5Z"/><path class="cls-177" d="M813.1,1063.41c3,1.08,4.65-3.47,1.65-4.56s-4.65,3.47-1.65,4.56Z"/><path class="cls-177" d="M94.28,986a7.49,7.49,0,0,0-1.38-1.11l1.37,1.61L94,985.9c-1.79-3.73-7.47-3.49-8.85.34s2.83,7.63,6.59,5.91l.58-.27-2.08.36a7.45,7.45,0,0,0,1.77,0c3.61-.16,5-3.86,2.27-6.29Z"/><path class="cls-177" d="M206.32,1073.32a.46.46,0,0,0,.31-.87.46.46,0,0,0-.31.87Z"/><path class="cls-177" d="M241.73,1080.4a.46.46,0,0,0,.31-.87.46.46,0,0,0-.31.87Z"/><path class="cls-177" d="M159,1026.37c4,1.45,6.25-4.66,2.21-6.12s-6.24,4.66-2.21,6.12Z"/><path class="cls-177" d="M122.65,1043.58c-1.1-1.19-2.15-2.68-3.78-3.13a2.19,2.19,0,0,0-2.73,1.24c-.68,1.51-.18,3.24.07,4.82.92,6,10.61,1.61,6.44-2.93Z"/><path class="cls-177" d="M95.05,1056.22c-2-.21-2.35-1.89-3.42-3.18a1.39,1.39,0,0,0-2.16.07c-1.94,3.45,2,6.73,5.3,7.08,2.6.28,2.89-3.69.29-4Z"/><path class="cls-177" d="M889.68,906.93a2.58,2.58,0,0,1,3-4.19c.36.24,2.8-1.35,3.7-1.26a2.54,2.54,0,0,1,2.23,2,4.28,4.28,0,0,1-2.35,4.83c-2.27,1.1-4.73.06-6.59-1.35Z"/><path class="cls-177" d="M964.69,879.83A.46.46,0,0,0,965,879a.46.46,0,0,0-.31.87Z"/><path class="cls-177" d="M891.58,839.65a2.28,2.28,0,0,0,1.55-4.28,2.28,2.28,0,0,0-1.55,4.28Z"/><path class="cls-177" d="M821.21,850.54a6.28,6.28,0,0,0-1.54,2.11,1.39,1.39,0,0,0,.86,1.77,6.54,6.54,0,0,0,2.66.2c3.89-.51.94-6.67-2-4.08Z"/><path class="cls-177" d="M832.11,874.89a1.92,1.92,0,0,0,1.3-3.6,1.92,1.92,0,0,0-1.3,3.6Z"/><path class="cls-177" d="M944.53,878.36A4,4,0,0,0,946,878a1.44,1.44,0,0,0,.7-1.92,4,4,0,0,0-.91-1.26c-3.33-3.28-6,4-1.29,3.58Z"/><path class="cls-177" d="M967.33,888.71l-.62-.3a2.86,2.86,0,0,0-2.89.48,3,3,0,0,0-1,2.75,2.86,2.86,0,0,0,1.92,2.22l.67.16a2.82,2.82,0,0,0,1.92-5.3Z"/><path class="cls-177" d="M954,925.6a1.48,1.48,0,0,0,1-2.79,1.48,1.48,0,0,0-1,2.79Z"/><path class="cls-177" d="M876.68,867.59a4.5,4.5,0,0,0,3.66.93,1.19,1.19,0,0,0,.7-1.94,4.5,4.5,0,0,0-3.41-1.62,1.45,1.45,0,0,0-.95,2.62Z"/><path class="cls-177" d="M1017.22,779.56a7.5,7.5,0,0,0-1.38-1.11l1.37,1.61-.28-.58c-1.79-3.73-7.47-3.49-8.85.34s2.83,7.63,6.59,5.91l.58-.27-2.08.36a7.44,7.44,0,0,0,1.77,0c3.61-.16,5-3.86,2.27-6.29Z"/><path class="cls-177" d="M1267.86,966.48a.46.46,0,0,0,.31-.87.46.46,0,0,0-.31.87Z"/><path class="cls-177" d="M1303.28,973.56a.46.46,0,0,0,.31-.87.46.46,0,0,0-.31.87Z"/><path class="cls-177" d="M1220.55,919.53c4,1.45,6.25-4.66,2.21-6.12s-6.25,4.66-2.21,6.12Z"/><path class="cls-177" d="M1184.19,936.74c-1.1-1.19-2.15-2.68-3.78-3.13a2.19,2.19,0,0,0-2.73,1.24c-.68,1.51-.18,3.24.07,4.82.92,6,10.61,1.61,6.44-2.93Z"/><path class="cls-177" d="M1156.59,949.38c-2-.21-2.35-1.89-3.42-3.17a1.39,1.39,0,0,0-2.16.07c-1.94,3.45,2,6.73,5.3,7.08,2.6.28,2.89-3.69.28-4Z"/><path class="cls-177" d="M1283.75,1060.59c2.06-1.37,4.68-5.42,1.84-7.5s-6.12,1.66-7.06,3.89c-1.35,3.2,2.77,5.24,5.22,3.61Z"/><path class="cls-177" d="M1236.43,1028.69a10.56,10.56,0,0,0,3.3-2.29,2.19,2.19,0,0,0-.55-3,9.06,9.06,0,0,0-3.1-1.24c-2.44-.69-4.94.86-4.78,3.49.14,2.34,2.88,4.29,5.14,3.07Z"/><path class="cls-177" d="M1293.95,1031.73c4.07,1.47,6.31-4.71,2.23-6.19s-6.31,4.71-2.23,6.19Z"/><path class="cls-177" d="M1315.83,1036.67a15.36,15.36,0,0,0,2.55,3.19,1.36,1.36,0,0,0,2.14-1,14.88,14.88,0,0,0-.9-3.95c-1-3.33-5.81-1.16-3.8,1.73Z"/><path class="cls-177" d="M1329.12,1066.88l-1.3-.29a1,1,0,0,0-.64,1.77l1.19.61a1.15,1.15,0,1,0,.76-2.1Z"/><path class="cls-177" d="M1205.53,1050.08a2.24,2.24,0,0,0,1.52-4.22,2.24,2.24,0,0,0-1.52,4.22Z"/><path class="cls-177" d="M1188.94,1072.71a8.28,8.28,0,0,0,1.48-1.58,1.22,1.22,0,0,0-.91-1.89,8.66,8.66,0,0,0-2.2.1c-3.24.39-.76,5.56,1.63,3.38Z"/><path class="cls-177" d="M1221.26,1075.29a.46.46,0,0,0,.31-.87.46.46,0,0,0-.31.87Z"/><path class="cls-177" d="M1263,1080.62a8.69,8.69,0,0,0,1-1.8,1.59,1.59,0,0,0-1-2,9.26,9.26,0,0,0-2.09-.38,2.64,2.64,0,0,0-2.62,3.74,2.75,2.75,0,0,0,4.64.44Z"/><path class="cls-177" d="M1388.93,977.91a7.53,7.53,0,0,0,2-1.45,1,1,0,0,0-.77-1.6,7.72,7.72,0,0,0-2.43.56c-1.7.59-.35,3.39,1.21,2.5Z"/><path class="cls-177" d="M1406.12,1004.22c3,1.08,4.65-3.47,1.64-4.56s-4.65,3.47-1.64,4.56Z"/><path class="cls-177" d="M1100.86,1010.25a2.58,2.58,0,0,1,3-4.19c.36.24,2.8-1.35,3.71-1.26a2.54,2.54,0,0,1,2.23,2,4.27,4.27,0,0,1-2.35,4.83c-2.27,1.1-4.73.06-6.59-1.35Z"/><path class="cls-177" d="M1175.88,983.16a.46.46,0,0,0,.31-.87.46.46,0,0,0-.31.87Z"/><path class="cls-177" d="M1102.76,943a2.28,2.28,0,0,0,1.55-4.28,2.28,2.28,0,0,0-1.55,4.28Z"/><path class="cls-177" d="M1032.39,953.87a6.28,6.28,0,0,0-1.54,2.11,1.39,1.39,0,0,0,.86,1.77,6.55,6.55,0,0,0,2.66.2c3.89-.51.94-6.67-2-4.08Z"/><path class="cls-177" d="M1043.29,978.22a1.92,1.92,0,0,0,1.3-3.6,1.92,1.92,0,0,0-1.3,3.6Z"/><path class="cls-177" d="M1155.71,981.69a4,4,0,0,0,1.5-.39,1.44,1.44,0,0,0,.69-1.92,4,4,0,0,0-.91-1.26c-3.33-3.28-6,4-1.29,3.58Z"/><path class="cls-177" d="M1178.51,992l-.62-.3a2.86,2.86,0,0,0-2.89.48,3,3,0,0,0-1,2.75,2.86,2.86,0,0,0,1.92,2.22l.67.16a2.82,2.82,0,0,0,1.91-5.3Z"/><path class="cls-177" d="M1165.19,1028.92a1.48,1.48,0,0,0,1-2.79,1.48,1.48,0,0,0-1,2.79Z"/><path class="cls-177" d="M1087.86,970.92a4.5,4.5,0,0,0,3.66.93,1.19,1.19,0,0,0,.7-1.94,4.49,4.49,0,0,0-3.41-1.62,1.45,1.45,0,0,0-.95,2.62Z"/><path class="cls-177" d="M1367,982.46a7.46,7.46,0,0,0-1.38-1.11L1367,983l-.28-.58c-1.79-3.73-7.47-3.49-8.85.34s2.83,7.63,6.59,5.91l.58-.27-2.08.36a7.47,7.47,0,0,0,1.77,0c3.61-.16,5-3.86,2.27-6.29Z"/><path class="cls-177" d="M1479,1069.81a.46.46,0,0,0,.31-.87.46.46,0,0,0-.31.87Z"/><path class="cls-177" d="M1514.46,1076.89a.46.46,0,0,0,.31-.87.46.46,0,0,0-.31.87Z"/><path class="cls-177" d="M1431.74,1022.85c4,1.45,6.25-4.66,2.21-6.12s-6.25,4.66-2.21,6.12Z"/><path class="cls-177" d="M1395.37,1040.06c-1.1-1.19-2.15-2.68-3.78-3.13a2.19,2.19,0,0,0-2.73,1.24c-.68,1.51-.18,3.24.07,4.82.92,6,10.61,1.61,6.44-2.93Z"/><path class="cls-177" d="M1367.77,1052.71c-2-.21-2.35-1.89-3.42-3.18a1.39,1.39,0,0,0-2.16.07c-1.94,3.45,2,6.73,5.3,7.08,2.6.28,2.89-3.69.29-4Z"/><path class="cls-177" d="M1600.11,1081.24a7.53,7.53,0,0,0,2-1.45,1,1,0,0,0-.77-1.6,7.7,7.7,0,0,0-2.42.56c-1.7.59-.35,3.39,1.21,2.5Z"/><path class="cls-177" d="M1219.34,862.3a2.58,2.58,0,0,1,3-4.19c.36.24,2.8-1.35,3.71-1.26a2.54,2.54,0,0,1,2.23,2,4.28,4.28,0,0,1-2.35,4.83c-2.27,1.11-4.73.06-6.59-1.35Z"/><path class="cls-177" d="M1294.35,835.21a.46.46,0,0,0,.31-.87.46.46,0,0,0-.31.87Z"/><path class="cls-177" d="M1221.23,795a2.28,2.28,0,0,0,1.55-4.28,2.28,2.28,0,0,0-1.55,4.28Z"/><path class="cls-177" d="M1150.86,805.92a6.27,6.27,0,0,0-1.54,2.11,1.39,1.39,0,0,0,.86,1.77,6.55,6.55,0,0,0,2.66.2c3.89-.51.94-6.67-2-4.08Z"/><path class="cls-177" d="M1161.77,830.27a1.92,1.92,0,0,0,1.3-3.6,1.92,1.92,0,0,0-1.3,3.6Z"/><path class="cls-177" d="M1274.18,833.74a4,4,0,0,0,1.5-.39,1.44,1.44,0,0,0,.69-1.92,4,4,0,0,0-.91-1.26c-3.33-3.28-6,4-1.29,3.58Z"/><path class="cls-177" d="M1297,844.09l-.62-.3a2.86,2.86,0,0,0-2.89.48,3,3,0,0,0-1,2.75,2.86,2.86,0,0,0,1.92,2.22l.67.16a2.82,2.82,0,0,0,1.92-5.3Z"/><path class="cls-177" d="M1283.66,881a1.48,1.48,0,0,0,1-2.79,1.48,1.48,0,0,0-1,2.79Z"/><path class="cls-177" d="M1206.34,823a4.5,4.5,0,0,0,3.66.93,1.19,1.19,0,0,0,.7-1.94,4.49,4.49,0,0,0-3.41-1.62,1.45,1.45,0,0,0-.95,2.62Z"/><path class="cls-177" d="M1416.26,862.27a7.47,7.47,0,0,0-1.38-1.11l1.37,1.61-.28-.58c-1.79-3.73-7.47-3.49-8.85.34s2.83,7.63,6.59,5.91l.58-.27-2.08.36a7.49,7.49,0,0,0,1.77,0c3.61-.16,5-3.86,2.27-6.29Z"/><path class="cls-177" d="M1597.51,921.86a.46.46,0,0,0,.31-.87.46.46,0,0,0-.31.87Z"/><path class="cls-177" d="M1632.93,928.94a.46.46,0,0,0,.31-.87.46.46,0,0,0-.31.87Z"/><path class="cls-177" d="M1550.21,874.91c4,1.45,6.25-4.66,2.21-6.12s-6.25,4.66-2.21,6.12Z"/><path class="cls-177" d="M1513.85,892.11c-1.1-1.19-2.15-2.68-3.77-3.13a2.19,2.19,0,0,0-2.73,1.24c-.68,1.51-.18,3.24.07,4.82.92,6,10.61,1.61,6.44-2.93Z"/><path class="cls-177" d="M1486.25,904.76c-2-.21-2.35-1.89-3.42-3.17a1.39,1.39,0,0,0-2.16.07c-1.94,3.45,2,6.73,5.3,7.08,2.6.28,2.89-3.69.29-4Z"/><path class="cls-177" d="M1613.41,1016c2.06-1.37,4.68-5.42,1.84-7.5s-6.12,1.66-7.06,3.89c-1.35,3.2,2.77,5.24,5.22,3.61Z"/><path class="cls-177" d="M1566.09,984.06a10.55,10.55,0,0,0,3.3-2.29,2.19,2.19,0,0,0-.55-3,9.05,9.05,0,0,0-3.1-1.24c-2.44-.69-4.94.86-4.78,3.49.14,2.34,2.88,4.29,5.14,3.07Z"/><path class="cls-177" d="M1623.61,987.11c4.07,1.47,6.31-4.71,2.23-6.19s-6.31,4.71-2.23,6.19Z"/><path class="cls-177" d="M1645.48,992a15.37,15.37,0,0,0,2.55,3.19,1.36,1.36,0,0,0,2.14-1,14.9,14.9,0,0,0-.9-3.95c-1-3.33-5.81-1.16-3.8,1.73Z"/><path class="cls-177" d="M1658.78,1022.26l-1.3-.29a1,1,0,0,0-.64,1.77l1.19.61a1.15,1.15,0,1,0,.76-2.1Z"/><path class="cls-177" d="M1601.86,1063.3a4.76,4.76,0,0,0-3.48,0l2.06-.08a3.85,3.85,0,0,0-1.29-.46,2,2,0,0,0-2.62,2.18,9.92,9.92,0,0,0,.58,1.87l-.11-2a3.73,3.73,0,0,0-.13,2.67,3.9,3.9,0,0,0,6.19,2.23,3.75,3.75,0,0,0-1.19-6.39Z"/><path class="cls-177" d="M1455.58,1040l-.16.65a2.64,2.64,0,0,0,5,1.79l.29-.61c1.47-3.07-4.25-5.15-5.08-1.83Z"/><path class="cls-177" d="M1535.19,1005.46a2.24,2.24,0,0,0,1.52-4.22,2.24,2.24,0,0,0-1.52,4.22Z"/><path class="cls-177" d="M1518.59,1028.09a8.27,8.27,0,0,0,1.48-1.58,1.22,1.22,0,0,0-.91-1.89,8.68,8.68,0,0,0-2.2.1c-3.24.39-.76,5.56,1.63,3.38Z"/><path class="cls-177" d="M1550.92,1030.66a.46.46,0,0,0,.31-.87.46.46,0,0,0-.31.87Z"/><path class="cls-177" d="M1592.65,1036a8.7,8.7,0,0,0,1-1.8,1.59,1.59,0,0,0-1-2,9.26,9.26,0,0,0-2.09-.38,2.64,2.64,0,0,0-2.62,3.74,2.75,2.75,0,0,0,4.64.44Z"/><path class="cls-177" d="M1772.59,1073.78c2.89-.54,6.39-1.46,8.57-3.5a2.27,2.27,0,0,0-.72-3.84c-2.84-1.12-6.43-.76-9.33-.22-4.93.92-3.47,8.49,1.47,7.57Z"/><path class="cls-177" d="M1718.59,933.29a7.49,7.49,0,0,0,2-1.45,1,1,0,0,0-.77-1.6,7.7,7.7,0,0,0-2.43.56c-1.7.59-.35,3.39,1.21,2.5Z"/><path class="cls-177" d="M1735.78,959.6c3,1.08,4.65-3.47,1.65-4.56s-4.65,3.47-1.65,4.56Z"/><path class="cls-177" d="M1472.89,848.31a2.58,2.58,0,0,1,3-4.19c.36.24,2.8-1.35,3.71-1.26a2.54,2.54,0,0,1,2.23,2,4.27,4.27,0,0,1-2.35,4.83c-2.27,1.11-4.73.06-6.59-1.35Z"/><path class="cls-177" d="M1547.9,821.22a.46.46,0,0,0,.31-.87.46.46,0,0,0-.31.87Z"/><path class="cls-177" d="M1484.66,727.27a2.28,2.28,0,0,0,1.55-4.28,2.28,2.28,0,0,0-1.55,4.28Z"/><path class="cls-177" d="M1404.41,791.93a6.27,6.27,0,0,0-1.54,2.11,1.39,1.39,0,0,0,.86,1.77,6.56,6.56,0,0,0,2.66.2c3.89-.51.94-6.67-2-4.08Z"/><path class="cls-177" d="M1415.32,816.28a1.92,1.92,0,0,0,1.3-3.6,1.92,1.92,0,0,0-1.3,3.6Z"/><path class="cls-177" d="M1527.74,819.75a4,4,0,0,0,1.5-.39,1.44,1.44,0,0,0,.69-1.92,4,4,0,0,0-.9-1.26c-3.33-3.28-6,4-1.29,3.58Z"/><path class="cls-177" d="M1550.54,830.1l-.62-.3a2.86,2.86,0,0,0-2.89.48,3,3,0,0,0-1,2.75,2.86,2.86,0,0,0,1.92,2.22l.67.16a2.82,2.82,0,0,0,1.92-5.3Z"/><path class="cls-177" d="M1537.22,867a1.48,1.48,0,0,0,1-2.79,1.48,1.48,0,0,0-1,2.79Z"/><path class="cls-177" d="M1459.89,809a4.5,4.5,0,0,0,3.66.93,1.19,1.19,0,0,0,.7-1.94,4.49,4.49,0,0,0-3.41-1.62,1.45,1.45,0,0,0-.95,2.62Z"/><path class="cls-177" d="M1739,820.53a7.45,7.45,0,0,0-1.38-1.11L1739,821l-.28-.58c-1.79-3.73-7.47-3.49-8.85.34s2.83,7.63,6.59,5.91l.58-.27-2.08.36a7.44,7.44,0,0,0,1.77,0c3.61-.16,5-3.86,2.27-6.29Z"/><path class="cls-177" d="M1851.07,907.87a.46.46,0,0,0,.31-.87.46.46,0,0,0-.31.87Z"/><path class="cls-177" d="M1886.48,915a.46.46,0,0,0,.31-.87.46.46,0,0,0-.31.87Z"/><path class="cls-177" d="M1803.76,860.92c4,1.45,6.24-4.66,2.21-6.12s-6.25,4.66-2.21,6.12Z"/><path class="cls-177" d="M1767.4,878.13c-1.1-1.19-2.15-2.68-3.78-3.13a2.19,2.19,0,0,0-2.73,1.24c-.68,1.51-.18,3.24.07,4.82.92,6,10.61,1.61,6.44-2.93Z"/><path class="cls-177" d="M1739.8,890.77c-2-.21-2.35-1.89-3.42-3.18a1.39,1.39,0,0,0-2.16.07c-1.94,3.45,2,6.73,5.3,7.08,2.6.28,2.89-3.69.29-4Z"/><path class="cls-177" d="M1867,1002c2.06-1.37,4.68-5.42,1.84-7.5s-6.12,1.66-7.06,3.89c-1.35,3.2,2.77,5.24,5.22,3.61Z"/><path class="cls-177" d="M1819.64,970.07a10.56,10.56,0,0,0,3.3-2.29,2.19,2.19,0,0,0-.55-3,9.06,9.06,0,0,0-3.1-1.24c-2.44-.69-4.94.86-4.78,3.49.14,2.34,2.88,4.29,5.14,3.07Z"/><path class="cls-177" d="M1877.16,973.12c4.07,1.47,6.31-4.71,2.23-6.19s-6.31,4.71-2.23,6.19Z"/><path class="cls-177" d="M1899,978.06a15.35,15.35,0,0,0,2.55,3.19,1.36,1.36,0,0,0,2.14-1,14.91,14.91,0,0,0-.9-3.95c-1-3.33-5.81-1.16-3.8,1.73Z"/><path class="cls-177" d="M1912.33,1008.27l-1.3-.29a1,1,0,0,0-.64,1.77l1.19.61a1.15,1.15,0,1,0,.76-2.1Z"/><path class="cls-177" d="M1855.41,1049.31a4.76,4.76,0,0,0-3.48,0l2.06-.08a3.84,3.84,0,0,0-1.29-.45,2,2,0,0,0-2.62,2.18,9.94,9.94,0,0,0,.58,1.87l-.11-2a3.73,3.73,0,0,0-.13,2.67,3.9,3.9,0,0,0,6.19,2.23,3.75,3.75,0,0,0-1.19-6.39Z"/><path class="cls-177" d="M1709.13,1026l-.16.65a2.64,2.64,0,0,0,5,1.79l.29-.61c1.47-3.07-4.25-5.15-5.08-1.83Z"/><path class="cls-177" d="M1788.74,991.47a2.24,2.24,0,0,0,1.52-4.22,2.24,2.24,0,0,0-1.52,4.22Z"/><path class="cls-177" d="M1772.14,1014.1a8.27,8.27,0,0,0,1.48-1.58,1.22,1.22,0,0,0-.91-1.89,8.68,8.68,0,0,0-2.2.1c-3.24.39-.76,5.56,1.63,3.38Z"/><path class="cls-177" d="M1804.47,1016.67a.46.46,0,0,0,.32-.87.46.46,0,0,0-.32.87Z"/><path class="cls-177" d="M1846.2,1022a8.68,8.68,0,0,0,1-1.8,1.59,1.59,0,0,0-1-2,9.3,9.3,0,0,0-2.09-.38,2.64,2.64,0,0,0-2.62,3.74,2.75,2.75,0,0,0,4.64.44Z"/></g><path class="cls-178" d="M286.16,1063.81c-3.09-5.79-26.65-12.78-34.05-15.25s13.64-12.79,5.28-15.62c-17.5-5.93-31.63,4.38-44.33,2.94-8.34-.95-16.73-2.09-23.6-2-2,0-10.1.38-11.36,1.9-2.56,3.1,11,15.92,9.66,19.37s-27.62,11.23-26.22,15.59,30.14,6.29,41.4,6.87c9.63.49,26.95,20.7,33.46,20.7s1.91-29.38,10.33-30.09S289.25,1069.61,286.16,1063.81Z"/><path class="cls-179" d="M276.87,1061.63c-3.09-5.79-28.57-10.55-36-13s24.87-12.84,16.5-15.67c-17.5-5.93-31.63,4.38-44.33,2.94-8.34-.95-16.73-2.09-23.6-2-2,0-10.1.38-11.36,1.9-2.56,3.1,14.68,11.73,13.3,15.18s-31.27,15.41-29.87,19.78,32.63-3.12,43.88-2.55c9.63.49,19.26,17.78,25.77,17.78s.29-20.29,8.7-21S280,1067.42,276.87,1061.63Z"/><g class="cls-180"><path class="cls-181" d="M234.25,1044.62c-.48-8.25,23.56-8.16,24.49-10.56.68,3.8-24.49,12.34-17.86,14.55s27.61,6.24,34.23,11.2C264.57,1056.18,234.72,1052.75,234.25,1044.62ZM191.39,1051c-.81,2-11.46,7-19.83,11.63,10.7-5.14,25.39-11,25.7-13.28,1.1-8.07-21.73-10.44-19.17-13.53C175.53,1038.91,192.77,1047.55,191.39,1051Zm46.83,7.24c-8.41.71-2.19,21-8.7,21s-16.14-17.29-25.77-17.78c-10.24-.53-36.43,10.81-42.1,9.55,2.45,3.86,32.71-3.34,43.75-2.77,9.63.49,19.26,17.78,25.77,17.78s.29-20.29,8.7-21c7.07-.59,30.57,1.51,36.05-1.25C267.76,1063.85,244.81,1057.68,238.22,1058.24Z"/></g><path class="cls-182" d="M1654.73,1082.34c2.16-4.06,18.68-9,23.87-10.69s-9.56-9-3.7-11c12.27-4.15,22.18,3.07,31.08,2.06,5.85-.66,11.73-1.46,16.55-1.38,1.39,0,7.08.27,8,1.33,1.8,2.17-7.73,11.16-6.77,13.58s19.37,7.87,18.38,10.93-21.13,4.41-29,4.81c-6.75.35-18.89,14.51-23.46,14.51s-1.34-20.6-7.24-21.09S1652.56,1086.4,1654.73,1082.34Z"/><path class="cls-183" d="M1661.24,1080.81c2.16-4.06,20-7.4,25.23-9.13s-17.43-9-11.57-11c12.27-4.15,22.18,3.07,31.08,2.06,5.85-.66,11.73-1.46,16.55-1.38,1.39,0,7.08.27,8,1.33,1.8,2.17-10.29,8.23-9.33,10.64s21.92,10.81,20.94,13.87-22.87-2.19-30.76-1.79c-6.75.35-13.5,12.47-18.07,12.47s-.2-14.22-6.1-14.72S1659.08,1084.87,1661.24,1080.81Z"/><g class="cls-180"><path class="cls-184" d="M1662.47,1079.54c4.64-3.48,19.36-6.31,24-7.85s-13-7.54-12.52-10.2c.66,1.68,17.51,1.62,17.17,7.4S1669.86,1077,1662.47,1079.54Zm68-16.83c1.8,2.17-14.21,3.83-13.44,9.49.22,1.61,10.52,5.71,18,9.31-5.87-3.25-13.34-6.73-13.9-8.16C1720.2,1070.94,1732.29,1064.88,1730.49,1062.71Zm-68.59,19.6c3.84,1.93,20.32.46,25.27.87,5.9.49,1.54,14.72,6.1,14.72s11.32-12.12,18.07-12.47c7.74-.4,29,4.65,30.67,1.94-4,.88-22.33-7.07-29.51-6.7-6.75.35-13.5,12.47-18.07,12.47s-.2-14.22-6.1-14.72C1683.72,1078,1667.63,1082.37,1661.9,1082.31Z"/></g></g><ellipse class="cls-185" cx="1690.9" cy="1019.51" rx="209.1" ry="26.49"/><circle class="cls-186" cx="596" cy="958" r="83"/><circle class="cls-186" cx="596" cy="958" r="83"/><path class="cls-187" d="M615.37,960.91s-63.07,6.78-101.6,8.43a83.09,83.09,0,0,0,57.45,67.89c27.6-26.94,44.15-76.32,44.15-76.32Z"/><path class="cls-188" d="M678.23,946.69A83.06,83.06,0,0,0,635.57,885c-2.89,19.69-8.71,48.44-20.2,75.89C615.37,960.91,647.27,955.2,678.23,946.69Z"/><path class="cls-189" d="M668.52,949.27c3.22-.83,6.47-1.68,9.71-2.57A83.06,83.06,0,0,0,635.57,885q-.41,2.77-.89,5.77A82.93,82.93,0,0,1,668.52,949.27Z"/><path class="cls-190" d="M615.37,960.91s13.46,22.66,32,62.25A82.85,82.85,0,0,0,679,958a83.71,83.71,0,0,0-.77-11.31c-31,8.51-62.86,14.22-62.86,14.22Z"/><path class="cls-191" d="M678.23,946.69c-3.24.89-6.49,1.75-9.71,2.57A84,84,0,0,1,669,958a82.74,82.74,0,0,1-24.53,58.91q1.46,3.06,3,6.26A82.85,82.85,0,0,0,679,958a83.71,83.71,0,0,0-.77-11.31Z"/><path class="cls-192" d="M571.22,1037.24a83.15,83.15,0,0,0,76.18-14.07c-18.57-39.59-32-62.25-32-62.25s-16.55,49.38-44.15,76.32Z"/><path class="cls-193" d="M591,1040.85q2.5.15,5,.15a82.64,82.64,0,0,0,51.4-17.83q-1.5-3.2-3-6.26A82.72,82.72,0,0,1,591,1040.85Z"/><path class="cls-194" d="M615.37,960.91c11.49-27.45,17.31-56.2,20.2-75.89a83.06,83.06,0,0,0-87.07,4.91C588,919.61,615.37,960.91,615.37,960.91Z"/><path class="cls-195" d="M635.57,885A82.63,82.63,0,0,0,596,875q-2.54,0-5.05.15a82.56,82.56,0,0,1,43.73,15.64Q635.17,887.8,635.57,885Z"/><circle class="cls-196" cx="615.37" cy="960.91" r="19.37"/><path class="cls-197" d="M615.37,941.54a19.39,19.39,0,0,0-5,.66,19.38,19.38,0,0,1,0,37.43,19.37,19.37,0,1,0,5-38.09Z"/><path class="cls-198" d="M1817.82,705.33l-191.9-62.52a527,527,0,0,1,25.42-63.89c8.85,3.77,18,7.27,27.41,10.35a271.77,271.77,0,0,0,162.31,5.12A496.39,496.39,0,0,1,1817.82,705.33Z"/><path class="cls-199" d="M1596,1012.88a16.82,16.82,0,0,1-10.78-21.2l114.62-351.82a16.82,16.82,0,1,1,32,10.42L1617.24,1002.1A16.82,16.82,0,0,1,1596,1012.88Z"/><path class="cls-200" d="M-365.55,1045.19c-12.38-24.46,81.75-34.66,186.74-58s200.5-52.93,307-75.1C470,841,887.07,854.38,1257.1,898.11c195.62,23.12,385,54.09,581.91,75.46s249.82,45.8,449.64,29.22c-73.35,34.47-42.61,34.25-156.55,32.75-1131.34-14.82-190.19,52-2468.75,16.17"/><path class="cls-198" d="M-477,1073.26c73.13-116.09,326-87.41,558-101s455.81-31.14,683.35-4,475,63.5,701.46,33.86c124.82-16.34,232.67-5.82,358-21C2111.31,946.19,2267,1014.2,2543,1069c-1047.61,101.41-1955.87,41.3-3018.73,3.22"/><path class="cls-201" d="M-189,1048.46c449.87-86.34,995-82.46,1447.14,2-714.71,19.87-917,7.07-1447.14-2"/><path class="cls-199" d="M1784.39,482.16a16.82,16.82,0,0,1-10.78-21.2l15.63-48a16.82,16.82,0,1,1,32,10.42l-15.63,48A16.82,16.82,0,0,1,1784.39,482.16Z"/><path class="cls-202" d="M1957.4,671.45c0,.21,0,.43,0,.64q0,3.23,0,6.47a.14.14,0,0,1,0,.09,235.49,235.49,0,0,1-10.84,66c-.26.8-.51,1.59-.77,2.38L1498,601.12c.25-.78.51-1.55.77-2.32s.52-1.55.79-2.31l.81-2.3a237.83,237.83,0,0,1,12.48-28.6c.36-.7.73-1.4,1.1-2.1s.73-1.39,1.12-2.08.75-1.38,1.14-2.07.76-1.38,1.15-2.06.94-1.63,1.42-2.44c.57-1,1.15-1.94,1.73-2.9,1.11-1.84,2.26-3.66,3.42-5.46l.41-.63c56.62-87.38,166.8-129.46,270.48-95.67a235,235,0,0,1,146.88,139.5l.13.33q1,2.63,2,5.29c.37,1,.73,2,1.08,3.07q.39,1.16.78,2.32c.59,1.8,1.17,3.6,1.72,5.41a1.21,1.21,0,0,0,.05.18c.41,1.37.81,2.75,1.2,4.13a.14.14,0,0,1,0,.06c.34,1.2.67,2.4,1,3.61.42,1.59.83,3.18,1.21,4.78q.33,1.34.63,2.67c0,.12.06.23.08.35l.42,1.88c.18.8.36,1.61.52,2.42.12.56.23,1.13.35,1.69.18.87.35,1.74.5,2.61.12.6.23,1.21.34,1.82.17.9.33,1.79.47,2.69.1.58.19,1.16.29,1.74.16.93.3,1.86.43,2.79l.24,1.63c.07.42.13.85.17,1.27.15,1,.28,2.1.41,3.15.08.6.16,1.21.22,1.81s.13,1,.17,1.55c.11,1,.21,1.91.29,2.86.05.48.09,1,.13,1.43.1.92.17,1.85.24,2.77,0,.59.08,1.17.13,1.76v.07c.07.93.13,1.87.18,2.8,0,.55.06,1.09.08,1.64.06.92.1,1.85.13,2.77,0,.41,0,.81,0,1.22s0,1.1.05,1.65C1957.36,669.08,1957.38,670.26,1957.4,671.45Z"/><path class="cls-199" d="M1500.36,594.19a231.44,231.44,0,0,1,12.48-28.6A237.83,237.83,0,0,0,1500.36,594.19Z"/><path class="cls-203" d="M1625.92,642.81c40.28-123.65,115.9-209.89,168.89-192.63s63.29,131.5,23,255.15Z"/><path class="cls-203" d="M146,881.28a277.72,277.72,0,0,1,4.32-203.66l18.2-43.43a23.14,23.14,0,0,1,38.34-6.76L238.78,662a277.72,277.72,0,0,1,73.74,189.92l-.79,149.28-114,20.09Z"/><path class="cls-202" d="M230.63,874.49l81.69,27.43L312,955.44l-71.32-24-58.82,46.91-18.61-50.18Z"/><path class="cls-199" d="M174.9,625.41a23.51,23.51,0,0,1,22.8-4.05l66.42,376.31-23.26,1.62-66-373.88Z"/><g class="cls-204"><path class="cls-201" d="M361.07,899.82l538.55-.26c10.18,0,23.57,2.69,24.55,12.83,1,10.37-12.15,15.47-22.45,17a1314.07,1314.07,0,0,1-545.26-34.09"/></g><path class="cls-205" d="M-287.63,1102.22l623-156.42c63-15.82,131-32.12,201.81-28.26C707,926.8,773.29,1005.81,941,1021.6c103.76,9.77,207.15,12.32,282.44-22.91s145.4-76.68,245.33-93.13c159.16-26.2,327.14,19.83,467.88,63.74S2239,1125,2404.88,1031.64C1513,1187,609.94,1130.57-289.45,1099.68"/><ellipse class="cls-206" cx="656.5" cy="1004" rx="98.5" ry="19"/><circle class="cls-186" cx="644.5" cy="917.5" r="81.5"/><circle class="cls-202" cx="644.5" cy="917.5" r="81.5"/><path class="cls-203" d="M663.52,920.36s-61.93,6.66-99.76,8.28a81.59,81.59,0,0,0,56.41,66.66c27.1-26.45,43.35-74.94,43.35-74.94Z"/><path class="cls-203" d="M725.24,906.4a81.56,81.56,0,0,0-41.89-60.56c-2.83,19.33-8.55,47.56-19.83,74.52C663.52,920.36,694.84,914.75,725.24,906.4Z"/><path class="cls-202" d="M663.52,920.36s13.22,22.25,31.45,61.13a81.35,81.35,0,0,0,31-64,82.2,82.2,0,0,0-.76-11.1c-30.4,8.36-61.72,14-61.72,14Z"/><path class="cls-199" d="M620.17,995.31A81.64,81.64,0,0,0,695,981.49c-18.23-38.87-31.45-61.13-31.45-61.13s-16.25,48.49-43.35,74.94Z"/><path class="cls-199" d="M663.52,920.36c11.28-27,17-55.19,19.83-74.52a81.56,81.56,0,0,0-85.5,4.82C636.67,879.8,663.52,920.36,663.52,920.36Z"/><circle class="cls-196" cx="663.52" cy="920.36" r="19.02"/><path class="cls-197" d="M663.52,901.34a19,19,0,0,0-4.92.65,19,19,0,0,1,0,36.76,19,19,0,1,0,4.92-37.4Z"/><path class="cls-196" d="M782.62,529.32a16.33,16.33,0,0,1,8.54-2.47V546.7h-5.27q-5.27,0-7.75,1.84t-2.47,6.53v19.34H757.08V527.19h18.59v8.71A22.57,22.57,0,0,1,782.62,529.32Z"/><path class="cls-196" d="M796.22,537.86a19.51,19.51,0,0,1,7-8.37,17.87,17.87,0,0,1,10-2.89,16,16,0,0,1,8,1.88,12.77,12.77,0,0,1,5.11,5.15v-6.45h18.51v47.22H826.24V568a12.76,12.76,0,0,1-5.11,5.15,16,16,0,0,1-8,1.88,17.87,17.87,0,0,1-10-2.89,19.5,19.5,0,0,1-7-8.37,34,34,0,0,1,0-25.87Zm28.09,7.08a6.88,6.88,0,0,0-9.88,0,9.88,9.88,0,0,0,0,11.72,6.88,6.88,0,0,0,9.88,0,9.88,9.88,0,0,0,0-11.72Z"/><path class="cls-196" d="M898.88,532.3q4.56,5.44,4.56,14.74v27.38h-18.5v-25a7.58,7.58,0,0,0-1.8-5.32,6.92,6.92,0,0,0-9.67,0,7.68,7.68,0,0,0-1.76,5.32v25H853.12V527.19h18.59v7.2a16.81,16.81,0,0,1,5.82-5.44,17.12,17.12,0,0,1,8.67-2.09Q894.31,526.85,898.88,532.3Z"/><path class="cls-196" d="M911.52,537.86a19.48,19.48,0,0,1,7-8.37,17.87,17.87,0,0,1,10-2.89,15.74,15.74,0,0,1,7.91,1.88,12.86,12.86,0,0,1,5.07,5.15V512.45H960v62H941.45V568a12.85,12.85,0,0,1-5.07,5.15,15.72,15.72,0,0,1-7.91,1.88,17.87,17.87,0,0,1-10-2.89,19.48,19.48,0,0,1-7-8.37,34,34,0,0,1,0-25.87Zm28.09,7.08a6.88,6.88,0,0,0-9.88,0,9.87,9.87,0,0,0,0,11.72,6.88,6.88,0,0,0,9.88,0,9.88,9.88,0,0,0,0-11.72Z"/><path class="cls-196" d="M1045.49,532.3q5,5.44,5,14.74v27.38H1032v-25a6.23,6.23,0,0,0-1.8-4.73,7.67,7.67,0,0,0-9.67,0,6.3,6.3,0,0,0-1.76,4.73v25h-18.5v-25a6.23,6.23,0,0,0-1.8-4.73,7.67,7.67,0,0,0-9.67,0,6.31,6.31,0,0,0-1.76,4.73v25H968.42V527.19H987v6.36a14.72,14.72,0,0,1,5.48-4.86,17.19,17.19,0,0,1,8.16-1.84,18.11,18.11,0,0,1,9,2.22,16.65,16.65,0,0,1,6.28,6.24,21.25,21.25,0,0,1,6.62-6.07,17.07,17.07,0,0,1,8.88-2.39Q1040.51,526.85,1045.49,532.3Z"/><path class="cls-196" d="M1060.1,520.83a8.35,8.35,0,0,1-2.93-6.53,8.57,8.57,0,0,1,2.93-6.66,11.2,11.2,0,0,1,7.79-2.64,11.08,11.08,0,0,1,7.7,2.64,8.57,8.57,0,0,1,2.93,6.66,8.36,8.36,0,0,1-2.93,6.53,11.18,11.18,0,0,1-7.7,2.6A11.31,11.31,0,0,1,1060.1,520.83Zm17,6.36v47.22h-18.59V527.19Z"/><path class="cls-196" d="M1103.3,559H1123v15.41h-40V559.84l18-17.25h-17.75V527.19h38.93v14.57Z"/><path class="cls-196" d="M1154.38,529.32a16.33,16.33,0,0,1,8.54-2.47V546.7h-5.28q-5.27,0-7.75,1.84t-2.47,6.53v19.34h-18.59V527.19h18.59v8.71A22.6,22.6,0,0,1,1154.38,529.32Z"/><g class="cls-204"><path class="cls-201" d="M1375.69,1000.19c10.74-21.6,32.83-35.8,56-42.54s47.65-7,71.78-7.14l120.8-.88c16.66-.12,33.87-.14,49.2,6.4s28.37,21.47,27.29,38.1c-1,15-13.24,27.47-27.23,33.08s-29.5,5.69-44.56,5.38a1111.7,1111.7,0,0,1-255.08-35.1"/></g></g></g></svg>