<svg id="Layer_1" data-name="Layer 1" xmlns="http://www.w3.org/2000/svg" xmlns:xlink="http://www.w3.org/1999/xlink" viewBox="0 0 1920 1080"><defs><style>.cls-1{fill:url(#linear-gradient);}.cls-2{fill:#8a6762;}.cls-3{fill:url(#linear-gradient-2);}.cls-4{fill:url(#linear-gradient-3);}.cls-5{fill:#cba07a;}.cls-6{fill:url(#linear-gradient-5);}.cls-7{fill:url(#linear-gradient-6);}.cls-8{fill:url(#linear-gradient-7);}.cls-9{fill:#ffd39f;}.cls-10{fill:#231f20;}.cls-11{fill:url(#linear-gradient-8);}.cls-12{fill:url(#linear-gradient-9);}.cls-13{fill:#7ece67;}.cls-14{fill:url(#linear-gradient-10);}.cls-15{fill:url(#linear-gradient-11);}.cls-16{fill:url(#linear-gradient-12);}.cls-17{fill:#e8677d;}.cls-18{fill:url(#linear-gradient-13);}.cls-19{fill:#cf4055;}.cls-20{fill:url(#linear-gradient-14);}.cls-21{fill:url(#linear-gradient-15);}.cls-22{fill:url(#linear-gradient-16);}.cls-23{fill:url(#linear-gradient-17);}.cls-24{fill:#f6b756;}.cls-25{fill:url(#linear-gradient-18);}.cls-26{fill:url(#linear-gradient-19);}.cls-27{fill:url(#linear-gradient-20);}.cls-28{fill:url(#linear-gradient-21);}.cls-29{fill:url(#linear-gradient-22);}.cls-30{fill:url(#linear-gradient-23);}.cls-31{fill:url(#linear-gradient-24);}.cls-32{fill:url(#linear-gradient-25);}.cls-33{fill:url(#linear-gradient-26);}.cls-34{fill:url(#linear-gradient-27);}.cls-35{fill:url(#linear-gradient-28);}.cls-36{fill:url(#linear-gradient-29);}.cls-37{fill:url(#linear-gradient-30);}.cls-38{fill:url(#linear-gradient-31);}.cls-39{fill:url(#linear-gradient-32);}.cls-40{fill:url(#linear-gradient-33);}.cls-41{fill:url(#linear-gradient-35);}.cls-42{fill:url(#linear-gradient-36);}.cls-43{fill:url(#linear-gradient-37);}.cls-44{fill:#f2b1d9;}.cls-45{fill:#d861b0;}.cls-46{fill:url(#linear-gradient-39);}.cls-47{fill:#ffabb7;}.cls-48{fill:url(#linear-gradient-41);}.cls-49{fill:url(#linear-gradient-42);}.cls-50{fill:url(#linear-gradient-43);}.cls-51{fill:url(#linear-gradient-44);}.cls-52{fill:url(#linear-gradient-45);}.cls-53{fill:url(#linear-gradient-46);}.cls-54{fill:url(#linear-gradient-47);}.cls-55{fill:url(#linear-gradient-48);}.cls-56{fill:url(#linear-gradient-49);}.cls-57{fill:url(#linear-gradient-50);}.cls-58{fill:url(#linear-gradient-51);}.cls-59{fill:url(#linear-gradient-52);}.cls-60{fill:url(#linear-gradient-53);}.cls-61{fill:url(#linear-gradient-54);}.cls-62{fill:#e8c4a6;}.cls-63{fill:url(#linear-gradient-55);}.cls-64{fill:url(#linear-gradient-56);}.cls-65{fill:url(#linear-gradient-57);}.cls-66{fill:url(#linear-gradient-59);}.cls-67{fill:url(#linear-gradient-60);}.cls-68{fill:url(#linear-gradient-61);}.cls-69{fill:url(#linear-gradient-62);}.cls-70{fill:url(#linear-gradient-63);}.cls-71{fill:url(#linear-gradient-64);}.cls-72{fill:url(#linear-gradient-65);}.cls-73{fill:url(#linear-gradient-66);}.cls-74{fill:url(#linear-gradient-67);}.cls-75{fill:url(#linear-gradient-68);}.cls-76{fill:url(#linear-gradient-71);}.cls-77{fill:url(#linear-gradient-73);}.cls-78{fill:url(#linear-gradient-74);}.cls-79{fill:url(#linear-gradient-75);}.cls-80{fill:url(#linear-gradient-76);}.cls-81{fill:url(#linear-gradient-77);}.cls-82{fill:url(#linear-gradient-78);}.cls-83{fill:url(#linear-gradient-79);}.cls-84{fill:url(#linear-gradient-81);}.cls-85{fill:url(#linear-gradient-82);}.cls-86{fill:url(#linear-gradient-83);}.cls-87{fill:url(#linear-gradient-84);}.cls-88{fill:url(#linear-gradient-85);}.cls-89{fill:#fce2d0;}.cls-90{fill:url(#linear-gradient-86);}.cls-91{fill:url(#linear-gradient-87);}.cls-92{fill:url(#linear-gradient-88);}.cls-93{fill:url(#linear-gradient-89);}.cls-94{fill:url(#linear-gradient-90);}.cls-95{fill:url(#linear-gradient-91);}.cls-96{fill:url(#linear-gradient-92);}.cls-97{fill:url(#linear-gradient-93);}.cls-98{fill:#c7cdd8;}.cls-99{fill:url(#linear-gradient-94);}.cls-100{fill:url(#linear-gradient-95);}.cls-101{fill:url(#linear-gradient-96);}.cls-102{fill:url(#linear-gradient-97);}.cls-103{fill:url(#linear-gradient-98);}.cls-104{fill:url(#linear-gradient-99);}.cls-105{fill:url(#linear-gradient-100);}.cls-106{fill:url(#linear-gradient-101);}.cls-107{fill:url(#linear-gradient-102);}.cls-108{fill:url(#linear-gradient-103);}.cls-109{fill:url(#linear-gradient-104);}</style><linearGradient id="linear-gradient" x1="1013.78" y1="795.29" x2="1093.74" y2="795.29" gradientTransform="matrix(0.92, 0.39, 0.39, -0.92, -151.81, 565.9)" gradientUnits="userSpaceOnUse"><stop offset="0" stop-color="#9b756d"/><stop offset="1" stop-color="#bc9388"/></linearGradient><linearGradient id="linear-gradient-2" x1="1013.81" y1="808.15" x2="1093.74" y2="808.15" gradientTransform="matrix(0.92, 0.39, 0.39, -0.92, -151.81, 565.9)" gradientUnits="userSpaceOnUse"><stop offset="0" stop-color="#da5466"/><stop offset="1" stop-color="#f4929c"/></linearGradient><linearGradient id="linear-gradient-3" x1="1053.77" y1="787.52" x2="1053.77" y2="768.18" gradientTransform="matrix(0.92, 0.39, 0.39, -0.92, -151.81, 565.9)" gradientUnits="userSpaceOnUse"><stop offset="0" stop-color="#d1a788"/><stop offset="1" stop-color="#f2d3b8"/></linearGradient><linearGradient id="linear-gradient-5" x1="1016.38" y1="799.77" x2="1091.15" y2="799.77" gradientTransform="matrix(0.92, 0.39, 0.39, -0.92, -151.81, 565.9)" gradientUnits="userSpaceOnUse"><stop offset="0" stop-color="#fbcc88"/><stop offset="1" stop-color="#ffe5c3"/></linearGradient><linearGradient id="linear-gradient-6" x1="1013.85" y1="786.87" x2="1093.7" y2="786.87" gradientTransform="matrix(0.92, 0.39, 0.39, -0.92, -151.81, 565.9)" gradientUnits="userSpaceOnUse"><stop offset="0" stop-color="#8cdd79"/><stop offset="1" stop-color="#d4e6b6"/></linearGradient><linearGradient id="linear-gradient-7" x1="1053.77" y1="810.73" x2="1053.77" y2="840.38" xlink:href="#linear-gradient-3"/><linearGradient id="linear-gradient-8" x1="823.29" y1="373.64" x2="823.29" y2="406.25" gradientTransform="matrix(0.95, 0.32, 0.32, -0.95, -70.15, 926.23)" xlink:href="#linear-gradient-6"/><linearGradient id="linear-gradient-9" x1="822.97" y1="373.64" x2="822.97" y2="395.39" gradientTransform="matrix(0.95, 0.32, 0.32, -0.95, -70.15, 926.23)" xlink:href="#linear-gradient-6"/><linearGradient id="linear-gradient-10" x1="808.79" y1="299.41" x2="808.79" y2="382.7" gradientTransform="matrix(0.95, 0.32, 0.32, -0.95, -70.15, 926.23)" xlink:href="#linear-gradient-3"/><linearGradient id="linear-gradient-11" x1="828.71" y1="299.41" x2="828.71" y2="382.69" gradientTransform="matrix(0.95, 0.32, 0.32, -0.95, -70.15, 926.23)" xlink:href="#linear-gradient-3"/><linearGradient id="linear-gradient-12" x1="827.6" y1="378.55" x2="827.6" y2="398.99" gradientTransform="matrix(0.95, 0.32, 0.32, -0.95, -70.15, 926.23)" xlink:href="#linear-gradient-2"/><linearGradient id="linear-gradient-13" x1="816.85" y1="373.86" x2="816.85" y2="389.95" gradientTransform="matrix(0.95, 0.32, 0.32, -0.95, -70.15, 926.23)" xlink:href="#linear-gradient-2"/><linearGradient id="linear-gradient-14" x1="690.6" y1="620.49" x2="690.6" y2="664.38" gradientTransform="matrix(0.88, -0.48, -0.48, -0.88, 389.72, 1266.01)" xlink:href="#linear-gradient"/><linearGradient id="linear-gradient-15" x1="690.6" y1="570.55" x2="690.6" y2="637.13" gradientTransform="matrix(0.88, -0.48, -0.48, -0.88, 389.72, 1266.01)" xlink:href="#linear-gradient-2"/><linearGradient id="linear-gradient-16" x1="690.6" y1="582.65" x2="690.6" y2="633.31" gradientTransform="matrix(0.88, -0.48, -0.48, -0.88, 389.72, 1266.01)" xlink:href="#linear-gradient-5"/><linearGradient id="linear-gradient-17" x1="692.12" y1="602.33" x2="692.12" y2="640.16" gradientTransform="matrix(0.88, -0.48, -0.48, -0.88, 389.72, 1266.01)" gradientUnits="userSpaceOnUse"><stop offset="0" stop-color="#d4d8e1"/><stop offset="1" stop-color="#f3f4f5"/></linearGradient><linearGradient id="linear-gradient-18" x1="1228.25" y1="306.14" x2="1228.25" y2="374.38" gradientTransform="matrix(1, 0, 0, -1, 0, 1082)" xlink:href="#linear-gradient-3"/><linearGradient id="linear-gradient-19" x1="1228.25" y1="337.02" x2="1228.25" y2="350.02" gradientTransform="matrix(1, 0, 0, -1, 0, 1082)" xlink:href="#linear-gradient"/><linearGradient id="linear-gradient-20" x1="1231.5" y1="358.15" x2="1231.5" y2="367.9" gradientTransform="matrix(1, 0, 0, -1, 0, 1082)" xlink:href="#linear-gradient"/><linearGradient id="linear-gradient-21" x1="1210.37" y1="353.27" x2="1210.37" y2="359.77" gradientTransform="matrix(1, 0, 0, -1, 0, 1082)" xlink:href="#linear-gradient"/><linearGradient id="linear-gradient-22" x1="1243.68" y1="320.77" x2="1243.68" y2="328.89" gradientTransform="matrix(1, 0, 0, -1, 0, 1082)" xlink:href="#linear-gradient"/><linearGradient id="linear-gradient-23" x1="1251" y1="345.14" x2="1251" y2="351.64" gradientTransform="matrix(1, 0, 0, -1, 0, 1082)" xlink:href="#linear-gradient"/><linearGradient id="linear-gradient-24" x1="1195.73" y1="273.64" x2="1195.73" y2="341.85" gradientTransform="matrix(1, 0, 0, -1, 0, 1082)" xlink:href="#linear-gradient-3"/><linearGradient id="linear-gradient-25" x1="1215.25" y1="301.27" x2="1215.25" y2="314.27" gradientTransform="matrix(1, 0, 0, -1, 0, 1082)" xlink:href="#linear-gradient"/><linearGradient id="linear-gradient-26" x1="1177.87" y1="291.52" x2="1177.87" y2="301.27" gradientTransform="matrix(1, 0, 0, -1, 0, 1082)" xlink:href="#linear-gradient"/><linearGradient id="linear-gradient-27" x1="1172.99" y1="315.08" x2="1172.99" y2="323.21" gradientTransform="matrix(1, 0, 0, -1, 0, 1082)" xlink:href="#linear-gradient"/><linearGradient id="linear-gradient-28" x1="1194.12" y1="306.95" x2="1194.12" y2="315.08" gradientTransform="matrix(1, 0, 0, -1, 0, 1082)" xlink:href="#linear-gradient"/><linearGradient id="linear-gradient-29" x1="1190.87" y1="330.52" x2="1190.87" y2="337.02" gradientTransform="matrix(1, 0, 0, -1, 0, 1082)" xlink:href="#linear-gradient"/><linearGradient id="linear-gradient-30" x1="1198.99" y1="283.39" x2="1198.99" y2="289.89" gradientTransform="matrix(1, 0, 0, -1, 0, 1082)" xlink:href="#linear-gradient"/><linearGradient id="linear-gradient-31" x1="1369" y1="558.95" x2="1369" y2="591" gradientTransform="matrix(1, 0, 0, -1, 0, 1082)" xlink:href="#linear-gradient-3"/><linearGradient id="linear-gradient-32" x1="1344.53" y1="567.34" x2="1344.53" y2="604.5" gradientTransform="matrix(1, 0, 0, -1, 0, 1082)" xlink:href="#linear-gradient-3"/><linearGradient id="linear-gradient-33" x1="1369" y1="569.06" x2="1369" y2="616.31" gradientTransform="matrix(1, 0, 0, -1, 0, 1082)" xlink:href="#linear-gradient-3"/><linearGradient id="linear-gradient-35" x1="1393.47" y1="567.34" x2="1393.47" y2="604.5" gradientTransform="matrix(1, 0, 0, -1, 0, 1082)" xlink:href="#linear-gradient-3"/><linearGradient id="linear-gradient-36" x1="423.98" y1="506.67" x2="423.98" y2="609.32" gradientTransform="matrix(1, 0, 0, -1, 0, 1082)" xlink:href="#linear-gradient-3"/><linearGradient id="linear-gradient-37" x1="423.98" y1="516.62" x2="423.98" y2="609.3" gradientTransform="matrix(1, 0, 0, -1, 0, 1082)" gradientUnits="userSpaceOnUse"><stop offset="0" stop-color="#d96bb0"/><stop offset="1" stop-color="#e49fc6"/></linearGradient><linearGradient id="linear-gradient-39" x1="279.03" y1="-39.12" x2="279.03" y2="23.26" gradientTransform="matrix(0.91, 0.42, 0.42, -0.91, -10.15, 680.35)" xlink:href="#linear-gradient-2"/><linearGradient id="linear-gradient-41" x1="272.8" y1="26.38" x2="282.15" y2="26.38" gradientTransform="matrix(0.91, 0.42, 0.42, -0.91, -10.15, 680.35)" gradientUnits="userSpaceOnUse"><stop offset="0" stop-color="#e9a254"/><stop offset="1" stop-color="#f4bb79"/></linearGradient><linearGradient id="linear-gradient-42" x1="242.85" y1="32.64" x2="254.56" y2="32.64" xlink:href="#linear-gradient-41"/><linearGradient id="linear-gradient-43" x1="265" y1="28.91" x2="274.36" y2="28.91" xlink:href="#linear-gradient-41"/><linearGradient id="linear-gradient-44" x1="258.76" y1="33.64" x2="268.12" y2="33.64" xlink:href="#linear-gradient-41"/><linearGradient id="linear-gradient-45" x1="249.4" y1="38.08" x2="258.76" y2="38.08" xlink:href="#linear-gradient-41"/><linearGradient id="linear-gradient-46" x1="268.12" y1="48.21" x2="277.47" y2="48.21" xlink:href="#linear-gradient-41"/><linearGradient id="linear-gradient-47" x1="297.75" y1="36.52" x2="307.11" y2="36.52" xlink:href="#linear-gradient-41"/><linearGradient id="linear-gradient-48" x1="289.95" y1="29.32" x2="299.31" y2="29.32" xlink:href="#linear-gradient-41"/><linearGradient id="linear-gradient-49" x1="282.15" y1="33.44" x2="291.51" y2="33.44" xlink:href="#linear-gradient-41"/><linearGradient id="linear-gradient-50" x1="303.27" y1="33.34" x2="315.34" y2="33.34" xlink:href="#linear-gradient-41"/><linearGradient id="linear-gradient-51" x1="266.56" y1="-11.05" x2="291.51" y2="-11.05" gradientTransform="matrix(0, 1, 1, 0, 249.78, 527.97)" xlink:href="#linear-gradient-5"/><linearGradient id="linear-gradient-52" x1="1490.69" y1="992.84" x2="1490.69" y2="1069.44" gradientTransform="matrix(0.96, 0.28, 0.28, -0.96, -106, 786.05)" xlink:href="#linear-gradient"/><linearGradient id="linear-gradient-53" x1="1490.69" y1="1005.31" x2="1490.69" y2="1069.44" gradientTransform="matrix(0.96, 0.28, 0.28, -0.96, -106, 786.05)" xlink:href="#linear-gradient-37"/><linearGradient id="linear-gradient-54" x1="1490.69" y1="959" x2="1490.69" y2="992.84" gradientTransform="matrix(0.96, 0.28, 0.28, -0.96, -106, 786.05)" xlink:href="#linear-gradient-3"/><linearGradient id="linear-gradient-55" x1="1658.18" y1="254.14" x2="1658.18" y2="283.85" gradientTransform="matrix(1, 0, 0, -1, 0, 1082)" xlink:href="#linear-gradient-41"/><linearGradient id="linear-gradient-56" x1="1686.11" y1="254.14" x2="1686.11" y2="297.55" gradientTransform="matrix(1, 0, 0, -1, 0, 1082)" xlink:href="#linear-gradient-3"/><linearGradient id="linear-gradient-57" x1="1642.46" y1="278.73" x2="1642.46" y2="293.4" gradientTransform="matrix(1, 0, 0, -1, 0, 1082)" xlink:href="#linear-gradient-3"/><linearGradient id="linear-gradient-59" x1="1605.96" y1="241.65" x2="1605.96" y2="285.08" gradientTransform="matrix(1, 0, 0, -1, 0, 1082)" xlink:href="#linear-gradient-3"/><linearGradient id="linear-gradient-60" x1="1605.96" y1="198.25" x2="1605.96" y2="241.65" gradientTransform="matrix(1, 0, 0, -1, 0, 1082)" xlink:href="#linear-gradient-3"/><linearGradient id="linear-gradient-61" x1="1642.47" y1="189.91" x2="1642.47" y2="204.58" gradientTransform="matrix(1, 0, 0, -1, 0, 1082)" xlink:href="#linear-gradient-3"/><linearGradient id="linear-gradient-62" x1="1678.98" y1="198.23" x2="1678.98" y2="241.65" gradientTransform="matrix(1, 0, 0, -1, 0, 1082)" xlink:href="#linear-gradient-3"/><linearGradient id="linear-gradient-63" x1="1621.06" y1="204.58" x2="1621.06" y2="241.65" gradientTransform="matrix(1, 0, 0, -1, 0, 1082)" xlink:href="#linear-gradient-5"/><linearGradient id="linear-gradient-64" x1="1642.47" y1="241.65" x2="1642.47" y2="284.48" gradientTransform="matrix(1, 0, 0, -1, 0, 1082)" xlink:href="#linear-gradient-5"/><linearGradient id="linear-gradient-65" x1="1621.06" y1="241.65" x2="1621.06" y2="278.73" gradientTransform="matrix(1, 0, 0, -1, 0, 1082)" xlink:href="#linear-gradient-5"/><linearGradient id="linear-gradient-66" x1="1656.74" y1="254.14" x2="1656.74" y2="278.76" gradientTransform="matrix(1, 0, 0, -1, 0, 1082)" xlink:href="#linear-gradient-41"/><linearGradient id="linear-gradient-67" x1="1642.47" y1="198.82" x2="1642.47" y2="241.65" gradientTransform="matrix(1, 0, 0, -1, 0, 1082)" xlink:href="#linear-gradient-5"/><linearGradient id="linear-gradient-68" x1="1663.88" y1="204.58" x2="1663.88" y2="241.65" gradientTransform="matrix(1, 0, 0, -1, 0, 1082)" xlink:href="#linear-gradient-5"/><linearGradient id="linear-gradient-71" x1="1671.01" y1="254.14" x2="1671.01" y2="291.22" gradientTransform="matrix(1, 0, 0, -1, 0, 1082)" xlink:href="#linear-gradient-5"/><linearGradient id="linear-gradient-73" x1="1671.91" y1="261.28" x2="1671.91" y2="270.2" gradientTransform="matrix(1, 0, 0, -1, 0, 1082)" xlink:href="#linear-gradient-2"/><linearGradient id="linear-gradient-74" x1="1643.36" y1="263.06" x2="1643.36" y2="271.99" gradientTransform="matrix(1, 0, 0, -1, 0, 1082)" xlink:href="#linear-gradient-2"/><linearGradient id="linear-gradient-75" x1="1668.34" y1="218.46" x2="1668.34" y2="227.38" gradientTransform="matrix(1, 0, 0, -1, 0, 1082)" xlink:href="#linear-gradient-2"/><linearGradient id="linear-gradient-76" x1="1641.58" y1="213.11" x2="1641.58" y2="222.03" gradientTransform="matrix(1, 0, 0, -1, 0, 1082)" xlink:href="#linear-gradient-2"/><linearGradient id="linear-gradient-77" x1="1618.38" y1="222.03" x2="1618.38" y2="230.95" gradientTransform="matrix(1, 0, 0, -1, 0, 1082)" xlink:href="#linear-gradient-2"/><linearGradient id="linear-gradient-78" x1="1614.81" y1="250.58" x2="1614.81" y2="259.5" gradientTransform="matrix(1, 0, 0, -1, 0, 1082)" xlink:href="#linear-gradient-2"/><linearGradient id="linear-gradient-79" x1="418.49" y1="984.72" x2="418.49" y2="1000.98" gradientTransform="matrix(0.97, -0.26, -0.26, -0.97, 171.75, 1322.22)" xlink:href="#linear-gradient-3"/><linearGradient id="linear-gradient-81" x1="418.49" y1="997.51" x2="418.49" y2="1034.07" gradientTransform="matrix(0.97, -0.26, -0.26, -0.97, 171.75, 1322.22)" xlink:href="#linear-gradient-3"/><linearGradient id="linear-gradient-82" x1="369.23" y1="1003.91" x2="403.87" y2="1003.91" gradientTransform="matrix(0.97, -0.26, -0.26, -0.97, 171.75, 1322.22)" xlink:href="#linear-gradient-2"/><linearGradient id="linear-gradient-83" x1="421.99" y1="993.57" x2="421.99" y2="1017.61" gradientTransform="matrix(0.97, -0.26, -0.26, -0.97, 171.75, 1322.22)" xlink:href="#linear-gradient-37"/><linearGradient id="linear-gradient-84" x1="449.54" y1="993.88" x2="449.54" y2="1010.3" gradientTransform="matrix(0.97, -0.26, -0.26, -0.97, 171.75, 1322.22)" xlink:href="#linear-gradient-2"/><linearGradient id="linear-gradient-85" x1="361.9" y1="1007.56" x2="475.07" y2="1007.56" gradientTransform="matrix(0.97, -0.26, -0.26, -0.97, 171.75, 1322.22)" xlink:href="#linear-gradient-6"/><linearGradient id="linear-gradient-86" x1="418.49" y1="1012.13" x2="418.49" y2="1028.39" gradientTransform="matrix(0.97, -0.26, -0.26, -0.97, 171.75, 1322.22)" xlink:href="#linear-gradient-3"/><linearGradient id="linear-gradient-87" x1="1620.26" y1="507.76" x2="1656.38" y2="507.76" gradientTransform="matrix(0.99, 0.17, 0.17, -0.99, -68.65, 790.71)" xlink:href="#linear-gradient-41"/><linearGradient id="linear-gradient-88" x1="1676.95" y1="500.45" x2="1676.95" y2="522.41" gradientTransform="matrix(0.99, 0.17, 0.17, -0.99, -68.65, 790.71)" xlink:href="#linear-gradient-41"/><linearGradient id="linear-gradient-89" x1="1618.22" y1="500.45" x2="1618.22" y2="524.2" gradientTransform="matrix(0.99, 0.17, 0.17, -0.99, -68.65, 790.71)" xlink:href="#linear-gradient-41"/><linearGradient id="linear-gradient-90" x1="1649.75" y1="508.11" x2="1649.75" y2="535.2" gradientTransform="matrix(0.99, 0.17, 0.17, -0.99, -68.65, 790.71)" xlink:href="#linear-gradient-41"/><linearGradient id="linear-gradient-91" x1="1616.62" y1="590.03" x2="1708.11" y2="590.03" gradientTransform="matrix(0.99, 0.17, 0.17, -0.99, -68.65, 790.71)" gradientUnits="userSpaceOnUse"><stop offset="0" stop-color="#a0a6ba"/><stop offset="1" stop-color="#c6ccda"/></linearGradient><linearGradient id="linear-gradient-92" x1="1623.92" y1="522.83" x2="1623.92" y2="533.36" gradientTransform="matrix(0.99, 0.17, 0.17, -0.99, -68.65, 790.71)" xlink:href="#linear-gradient-2"/><linearGradient id="linear-gradient-93" x1="1664.33" y1="516.49" x2="1664.33" y2="529.68" gradientTransform="matrix(0.99, 0.17, 0.17, -0.99, -68.65, 790.71)" xlink:href="#linear-gradient-2"/><linearGradient id="linear-gradient-94" x1="1627.59" y1="500.45" x2="1627.59" y2="511.42" gradientTransform="matrix(0.99, 0.17, 0.17, -0.99, -68.65, 790.71)" xlink:href="#linear-gradient-2"/><linearGradient id="linear-gradient-95" x1="1649.52" y1="485.83" x2="1649.52" y2="500.45" gradientTransform="matrix(0.99, 0.17, 0.17, -0.99, -68.65, 790.71)" xlink:href="#linear-gradient-17"/><linearGradient id="linear-gradient-96" x1="675" y1="368.66" x2="675" y2="471.34" gradientTransform="matrix(1, 0, 0, -1, 0, 1082)" xlink:href="#linear-gradient-17"/><linearGradient id="linear-gradient-97" x1="689.17" y1="400.54" x2="689.17" y2="451.47" gradientTransform="matrix(1, 0, 0, -1, 0, 1082)" xlink:href="#linear-gradient"/><linearGradient id="linear-gradient-98" x1="652.66" y1="423.59" x2="652.66" y2="436.28" gradientTransform="matrix(1, 0, 0, -1, 0, 1082)" xlink:href="#linear-gradient-41"/><linearGradient id="linear-gradient-99" x1="655.95" y1="433.21" x2="655.95" y2="439.87" gradientTransform="matrix(1, 0, 0, -1, 0, 1082)" xlink:href="#linear-gradient-41"/><linearGradient id="linear-gradient-100" x1="660.94" y1="418.53" x2="660.94" y2="428.55" gradientTransform="matrix(1, 0, 0, -1, 0, 1082)" xlink:href="#linear-gradient-41"/><linearGradient id="linear-gradient-101" x1="641.88" y1="410.89" x2="660.09" y2="410.89" gradientTransform="matrix(1, 0, 0, -1, 0, 1082)" xlink:href="#linear-gradient-2"/><linearGradient id="linear-gradient-102" x1="656.15" y1="407.58" x2="673.34" y2="407.58" gradientTransform="matrix(1, 0, 0, -1, 0, 1082)" xlink:href="#linear-gradient-2"/><linearGradient id="linear-gradient-103" x1="666.72" y1="396.4" x2="683.51" y2="396.4" gradientTransform="matrix(1, 0, 0, -1, 0, 1082)" gradientUnits="userSpaceOnUse"><stop offset="0" stop-color="#6ab891"/><stop offset="1" stop-color="#85cba9"/></linearGradient><linearGradient id="linear-gradient-104" x1="680.32" y1="392.59" x2="693.04" y2="392.59" xlink:href="#linear-gradient-103"/></defs><title>randmizrbannerregular</title><path d="M820.26,528.09a13,13,0,0,1,6.78-2v15.74h-4.19q-4.19,0-6.15,1.46t-2,5.18v15.35H800V526.39h14.75v6.91A17.91,17.91,0,0,1,820.26,528.09Z"/><path d="M831.06,534.86a15.47,15.47,0,0,1,5.55-6.64,14.18,14.18,0,0,1,7.91-2.29,12.67,12.67,0,0,1,6.31,1.49,10.14,10.14,0,0,1,4.05,4.09v-5.12h14.68v37.47H854.87v-5.11a10.14,10.14,0,0,1-4.05,4.09,12.67,12.67,0,0,1-6.31,1.49,14.17,14.17,0,0,1-7.91-2.29,15.45,15.45,0,0,1-5.55-6.64,27,27,0,0,1,0-20.53Zm22.29,5.61a5.46,5.46,0,0,0-7.84,0,7.84,7.84,0,0,0,0,9.3,5.46,5.46,0,0,0,7.84,0,7.84,7.84,0,0,0,0-9.3Z"/><path d="M912.51,530.44q3.62,4.32,3.62,11.69v21.72H901.44V544a6,6,0,0,0-1.43-4.22,5.5,5.5,0,0,0-7.67,0,6.1,6.1,0,0,0-1.39,4.22v19.86H876.2V526.39h14.75v5.71a13.32,13.32,0,0,1,4.62-4.32,13.57,13.57,0,0,1,6.88-1.66Q908.88,526.13,912.51,530.44Z"/><path d="M922.54,534.86a15.47,15.47,0,0,1,5.55-6.64,14.18,14.18,0,0,1,7.91-2.29,12.49,12.49,0,0,1,6.28,1.49,10.2,10.2,0,0,1,4,4.09V514.7H961v49.16H946.29v-5.11a10.21,10.21,0,0,1-4,4.09,12.49,12.49,0,0,1-6.28,1.49,14.17,14.17,0,0,1-7.91-2.29,15.45,15.45,0,0,1-5.55-6.64,27,27,0,0,1,0-20.53Zm22.29,5.61a5.45,5.45,0,0,0-7.84,0,7.84,7.84,0,0,0,0,9.3,5.45,5.45,0,0,0,7.84,0,7.84,7.84,0,0,0,0-9.3Z"/><path d="M1028.83,530.44q4,4.32,4,11.69v21.72H1018.1V544a4.94,4.94,0,0,0-1.43-3.75,6.09,6.09,0,0,0-7.67,0,5,5,0,0,0-1.39,3.75v19.86H992.92V544a4.94,4.94,0,0,0-1.43-3.75,6.08,6.08,0,0,0-7.67,0,5,5,0,0,0-1.4,3.75v19.86H967.68V526.39h14.75v5a11.69,11.69,0,0,1,4.35-3.85,13.64,13.64,0,0,1,6.48-1.46,14.37,14.37,0,0,1,7.18,1.76,13.21,13.21,0,0,1,5,4.95,16.85,16.85,0,0,1,5.25-4.82,13.54,13.54,0,0,1,7-1.89Q1024.88,526.13,1028.83,530.44Z"/><path d="M1040.42,521.34a6.63,6.63,0,0,1-2.33-5.18,6.8,6.8,0,0,1,2.33-5.28,8.88,8.88,0,0,1,6.18-2.09,8.79,8.79,0,0,1,6.11,2.09,6.8,6.8,0,0,1,2.33,5.28,6.63,6.63,0,0,1-2.33,5.18,8.88,8.88,0,0,1-6.11,2.06A9,9,0,0,1,1040.42,521.34Zm13.49,5v37.47h-14.75V526.39Z"/><path d="M1074.7,551.64h15.61v12.22h-31.76V552.3l14.28-13.69h-14.08V526.39h30.89V538Z"/><path d="M1115.22,528.09a13,13,0,0,1,6.78-2v15.74h-4.18q-4.19,0-6.15,1.46t-2,5.18v15.35H1095V526.39h14.75v6.91A17.91,17.91,0,0,1,1115.22,528.09Z"/><g id="Burger"><path class="cls-1" d="M1164.66,253.4l-1,2.38a3.87,3.87,0,0,1-5.06,2.07L1092,230a3.87,3.87,0,0,1-2.07-5.06c.91-2.18,1.31-3.9,3.31-4.58s-3.43-2.46,69.34,28A3.87,3.87,0,0,1,1164.66,253.4Z"/><path class="cls-2" d="M1164.6,250.21a5.07,5.07,0,0,1-4.12.05l-16.94-7.09c-7.5,3.07-8.38,3.86-10,2.82l-23.4-16.78-14.09-5.9a5.07,5.07,0,0,1-2.85-3,3.87,3.87,0,0,1,2.74.13C1168.53,250.83,1163.63,248.35,1164.6,250.21Z"/><path class="cls-3" d="M1165.77,244.08l-69-28.87a2.58,2.58,0,1,1,2-4.76l69,28.87a2.58,2.58,0,0,1-2,4.76Z"/><path class="cls-4" d="M1157.3,264.3a15.47,15.47,0,0,1-20.24,8.3l-40.44-16.92a15.47,15.47,0,0,1-8.3-20.24c.5-1.19,1.18-1.29,3.87-2.57l64.22,26.88C1157.38,262.53,1157.8,263.11,1157.3,264.3Z"/><path class="cls-4" d="M1157.3,264.3a15.47,15.47,0,0,1-20.24,8.3l-40.44-16.92a15.47,15.47,0,0,1-8.3-20.24c.5-1.19,1.18-1.29,3.87-2.57l64.22,26.88C1157.38,262.53,1157.8,263.11,1157.3,264.3Z"/><path class="cls-5" d="M1157.3,264.3a15.47,15.47,0,0,1-20.24,8.3l-40.44-16.92a15.47,15.47,0,0,1-8.3-20.24,2.41,2.41,0,0,1,.66-.91,15.47,15.47,0,0,0,9.13,17.59L1138.55,269a15.47,15.47,0,0,0,18.94-5.82A2.58,2.58,0,0,1,1157.3,264.3Z"/><path class="cls-6" d="M1161.48,247.88l-17.92-7.5-8.44,3.46-23.68-16.9-14.35-6c-3.06-1.28-1.08-6,2-4.76l64.39,26.95C1166.56,244.42,1164.49,249.14,1161.48,247.88Z"/><path class="cls-7" d="M1159.1,262.45c-2.5-.42-3.7,1.05-6.8-.25-3.69-1.54-2.69-3.92-6.38-5.46s-4.68.84-8.38-.71-2.68-3.92-6.37-5.46-4.68.84-8.37-.71-2.69-3.92-6.38-5.46-4.68.84-8.37-.71-2.69-3.92-6.38-5.46-4.68.84-8.37-.71c-3.09-1.29-2.87-3.17-4.93-4.66a2,2,0,0,1,1.93-3.58l70,29.29a2,2,0,0,1-1.19,3.89Z"/><path class="cls-8" d="M1164.11,237.8,1102.43,212a5.25,5.25,0,0,1-2.81-6.87A24.42,24.42,0,0,1,1131.55,192l26.33,11A24.42,24.42,0,0,1,1171,235,5.25,5.25,0,0,1,1164.11,237.8Z"/><path class="cls-5" d="M1171,235a5.25,5.25,0,0,1-6.87,2.81L1102.43,212a5.25,5.25,0,0,1-2.81-6.87,25.54,25.54,0,0,1,1.15-2.38,5.26,5.26,0,0,0,3.2,5.7l61.63,25.79a5.25,5.25,0,0,0,6.31-1.72A25.54,25.54,0,0,1,1171,235Z"/><path class="cls-9" d="M1164.81,246.38c0,.08,3.34,1.5-69-28.79a2.58,2.58,0,0,1,3.29-1.42l64.39,26.95A2.5,2.5,0,0,1,1164.81,246.38Z"/><path class="cls-10" d="M1164.89,248.44a4,4,0,0,0,1.39-2.91,3.87,3.87,0,0,0,2.86-6.84,6.45,6.45,0,0,0,3-3.21,25.78,25.78,0,0,0-13.78-33.62l-26.33-11a25.78,25.78,0,0,0-33.62,13.78,6.45,6.45,0,0,0-.2,4.39,3.87,3.87,0,0,0-2.86,6.84,4,4,0,0,0-1.1,3,5.16,5.16,0,0,0-4.53,3.17c-1,2.38-1.84,3.72-1.09,5.94a3.33,3.33,0,0,0-.88,6,4,4,0,0,0-.63.94,16.76,16.76,0,0,0,9,21.93l40.44,16.92a16.76,16.76,0,0,0,21.93-9c.41-1,.1-1.13.44-1.06a3.33,3.33,0,0,0,3.44-4.89c2.11-1,2.47-2.57,3.47-4.95A5.16,5.16,0,0,0,1164.89,248.44Zm-21.34-9.35c-.36,0,.17-.17-8.26,3.28-24.63-17.58-23.14-16.53-23.34-16.62l-14.35-6a1.29,1.29,0,0,1,1-2.38L1163,244.31a1.29,1.29,0,1,1-1,2.38C1142.6,238.58,1143.93,239.13,1143.55,239.09Zm-12.5-45.87,26.33,11a23.21,23.21,0,0,1,12.4,30.25,4,4,0,0,1-5.18,2.12l-61.68-25.81a4,4,0,0,1-2.12-5.18A23.21,23.21,0,0,1,1131.05,193.22Zm-32.77,18.43,69,28.87a1.29,1.29,0,1,1-1,2.38l-69-28.87a1.29,1.29,0,0,1,1-2.38Zm-6.17,11.4a2.58,2.58,0,0,1,3.37-1.38l15.33,6.42,23.54,16.84c.79.55.52.43,9.18-3.14l18.54,7.76a2.58,2.58,0,0,1,1.38,3.37l-1,2.38a2.58,2.58,0,0,1-3.37,1.38l-66.6-27.87a2.58,2.58,0,0,1-1.38-3.37Zm45.44,48.37-40.44-16.92a14.18,14.18,0,0,1-7.67-18.41,7.19,7.19,0,0,0,3.36,2.63c4,1.68,5.27-.59,8.37.71s2.37,3.79,6.38,5.46,5.27-.59,8.37.71,2.37,3.79,6.38,5.46,5.27-.59,8.37.71,2.31,3.76,6.37,5.46,5.3-.58,8.38.71,2.37,3.79,6.38,5.46a7.36,7.36,0,0,0,4.24.55A14.18,14.18,0,0,1,1137.56,271.41Zm21.76-10.24c-2.9-.47-3.78,1-6.52-.16-3.09-1.29-2.37-3.79-6.38-5.46s-5.28.59-8.38-.71-2.36-3.78-6.37-5.46-5.27.59-8.36-.7-2.37-3.79-6.38-5.46-5.27.59-8.37-.71-2.33-3.77-6.38-5.46-5.27.59-8.37-.71c-2.72-1.14-2.32-2.81-4.67-4.53a.75.75,0,1,1,.67-1.34l70,29.29a.75.75,0,1,1-.48,1.42Z"/><path class="cls-10" d="M1141.73,204.67A1.29,1.29,0,1,0,1141,203,1.29,1.29,0,0,0,1141.73,204.67Z"/><path class="cls-10" d="M1133.49,211a1.29,1.29,0,1,0-.69-1.69A1.29,1.29,0,0,0,1133.49,211Z"/><path class="cls-10" d="M1124,207a1.29,1.29,0,1,0-.69-1.69A1.29,1.29,0,0,0,1124,207Z"/><path class="cls-10" d="M1114.46,203a1.29,1.29,0,1,0-.69-1.69A1.29,1.29,0,0,0,1114.46,203Z"/><path class="cls-10" d="M1143,215a1.29,1.29,0,1,0-.69-1.69A1.29,1.29,0,0,0,1143,215Z"/><path class="cls-10" d="M1152.52,219a1.29,1.29,0,1,0-.69-1.69A1.29,1.29,0,0,0,1152.52,219Z"/><path class="cls-10" d="M1162,223a1.29,1.29,0,1,0-.69-1.69A1.29,1.29,0,0,0,1162,223Z"/><path class="cls-10" d="M1132.22,200.69a1.29,1.29,0,1,0-.69-1.69A1.29,1.29,0,0,0,1132.22,200.69Z"/><path class="cls-10" d="M1122.7,196.71A1.29,1.29,0,1,0,1122,195,1.29,1.29,0,0,0,1122.7,196.71Z"/><path class="cls-10" d="M1151.25,208.66a1.29,1.29,0,1,0-.69-1.69A1.29,1.29,0,0,0,1151.25,208.66Z"/><path class="cls-10" d="M1160.76,212.64a1.29,1.29,0,1,0-.69-1.69A1.29,1.29,0,0,0,1160.76,212.64Z"/></g><g id="Burrito"><path class="cls-11" d="M866.74,826.78a6.39,6.39,0,0,1-5.33,5c-1.14.23,1.24.41-32.45-.35l-24.63-17.73c-4-1.31-5.31-7.95-1.07-8.9a3.62,3.62,0,0,0,2.93-3.64,4.42,4.42,0,0,1,6.28-4.32,3.62,3.62,0,0,0,4.35-.58,5.18,5.18,0,0,1,8.72,1.83,1.81,1.81,0,0,0,2.71,1,4.76,4.76,0,0,1,4.11-.88,6.68,6.68,0,0,1,3.33,2.1,3.86,3.86,0,0,0,4,1.23,5.32,5.32,0,0,1,5.83,2.32,3.62,3.62,0,0,0,3.87,1.51,9.05,9.05,0,0,1,5.33.26c5.05,1.68,2.23,5.64,6.78,6.36a5.3,5.3,0,0,1,3.7,7.24,3.73,3.73,0,0,0,.73,4.35A3.06,3.06,0,0,1,866.74,826.78Z"/><path class="cls-12" d="M861.41,831.75c-1.14.23,1.24.41-32.45-.35-34.17-24.62-24.79-17.27-26.38-18.73a3.62,3.62,0,0,0,.18-1.24,4.42,4.42,0,0,1,6.28-4.32,3.62,3.62,0,0,0,4.35-.58,5.18,5.18,0,0,1,8.72,1.83,1.81,1.81,0,0,0,2.71,1,4.76,4.76,0,0,1,4.11-.88,6.68,6.68,0,0,1,3.33,2.1,3.86,3.86,0,0,0,4,1.31,5.32,5.32,0,0,1,5.83,2.32,3.62,3.62,0,0,0,3.87,1.51,9.05,9.05,0,0,1,5.36.18c5.05,1.68,2.23,5.64,6.78,6.36a5.43,5.43,0,0,1,3.94,6.59l0,.14A4.45,4.45,0,0,0,861.41,831.75Z"/><path class="cls-13" d="M861.41,831.75c-1.14.23,1.24.41-32.45-.35l-3.83-2.76c12.74-4.46,24.57-3.7,36.83.38A4.45,4.45,0,0,0,861.41,831.75Z"/><path class="cls-13" d="M833.06,830.53l-.31.94-3.79-.08-24.63-17.73c-.41-.14-1.8-.83-1.74-1,.38-1.15,0-1.92.43-3.24C815.53,813.58,823.79,818.23,833.06,830.53Z"/><path class="cls-14" d="M829,831.19l-20.7,62.26A50.86,50.86,0,0,1,778,892.7l26.27-79A50.8,50.8,0,0,1,829,831.19Z"/><path class="cls-5" d="M829,831.19l-20.7,62.26c-1.25.37-2.5.68-3.79,1-17.6-25.06-7-56.75,22-66.25C827.43,829.15,828.25,830.15,829,831.19Z"/><path class="cls-15" d="M859.3,831.94,833,911a50.7,50.7,0,0,1-24.7-17.52C782.68,859.36,816.85,817.83,859.3,831.94Z"/><path class="cls-5" d="M833,911c-.95,2.85-14,1.06-29.2-4S777.1,895.55,778,892.7a50.86,50.86,0,0,0,30.28.75A50.7,50.7,0,0,0,833,911Z"/><path class="cls-16" d="M850.71,829.09c-.53,1.6.46,0-8.73.15-5.24,0-2.91,1.34-4-3.41a16.3,16.3,0,0,0-14.76-13,16.3,16.3,0,0,1,27.45,16.26Z"/><path class="cls-17" d="M842,829.24c-5.24,0-2.91,1.34-4-3.41a16.3,16.3,0,0,0-14.76-13,16.3,16.3,0,0,1,3.87-3A19.92,19.92,0,0,1,842,829.24Z"/><path class="cls-18" d="M838.37,829.43a49.07,49.07,0,0,0-9.34,1.76,49.77,49.77,0,0,0-17.46-14.51,16.08,16.08,0,0,1,11.77-3.83h0A16.3,16.3,0,0,1,838.37,829.43Z"/><path class="cls-17" d="M832.85,830.25c-1.31.25-2.58.57-3.82.94a49.77,49.77,0,0,0-17.46-14.51,16,16,0,0,1,3.48-2.26A53.47,53.47,0,0,1,832.85,830.25Z"/><path class="cls-19" d="M850.46,829.84A49.28,49.28,0,0,0,829,831.19c-.78-1-1.59-2-2.46-3a52.87,52.87,0,0,1,24.8-1.83A14.14,14.14,0,0,1,850.46,829.84Z"/><path class="cls-10" d="M868.46,827.35c1.4-4.21-2.87-5-1.67-7.33a7.13,7.13,0,0,0-5-9.86c-2.94-.44-.74-4.37-6.48-6.28-5.48-1.82-6.86,1-8.25-1.06a7.24,7.24,0,0,0-7.77-3.08c-2.51.61-1.57-1.7-6.31-3.28a6.34,6.34,0,0,0-5.67,1.05A7,7,0,0,0,815.5,795c-1.33,1.47-2.44-.81-5.73-.28a5.79,5.79,0,0,0-5.42,6.14q0,.18,0,.37a1.81,1.81,0,0,1-1.51,1.79c-5.58,1.22-4.86,8.88-.76,11.59l-25.78,77.54c-2.18,6.55,22,15,26.92,16.58s29.32,9.38,31.49,2.84l25.89-77.86A8.36,8.36,0,0,0,868.46,827.35Zm-36.58,81.33c-22.62-8.4-35.44-31.13-28.67-51.51s30.64-30.87,53.8-24.09Zm8.24-81.21a17.94,17.94,0,0,0-12.71-15.67,14.48,14.48,0,0,1,21.8,16A52.51,52.51,0,0,0,840.12,827.47Zm-3.65.31a49.86,49.86,0,0,0-6.77,1.36A51.11,51.11,0,0,0,815,816.49a14.48,14.48,0,0,1,21.46,11.33ZM826,830.25c-26.64,9.44-36.34,38.54-20.63,62.06a48.56,48.56,0,0,1-25-.76L805.47,816A48.56,48.56,0,0,1,826,830.29ZM783.31,896a51.67,51.67,0,0,0,24.33-.48,52,52,0,0,0,19.16,15C815,909.56,793.28,902.34,783.31,896Zm76.22-65.86a55.11,55.11,0,0,0-6.75-1.73c4.46-17.6-17.07-30.15-30.14-17.35a18.11,18.11,0,0,0-11.31,3.53,58.43,58.43,0,0,0-6.44-2.62,4,4,0,0,1-2.29-4.58,1.19,1.19,0,0,1,1-.84A5.43,5.43,0,0,0,808,801a2.3,2.3,0,0,1,2.32-2.78,2.34,2.34,0,0,1,1.38.15,5.43,5.43,0,0,0,6.45-1,2.93,2.93,0,0,1,3.36-1c3.44,1.14,1.43,3.34,4.58,4.48,2.84,1,3.75-1.71,5.73-1.05a5.27,5.27,0,0,1,2.48,1.49,5.63,5.63,0,0,0,5.81,1.93,3.51,3.51,0,0,1,3.91,1.57,5.43,5.43,0,0,0,5.85,2.25c2.2-.6,6,.1,6.64,2.51a5.61,5.61,0,0,0,4.71,4.14,3.62,3.62,0,0,1,2.29,4.58,5.59,5.59,0,0,0,1,6.44c.62.65.56,1.06.45,1.41C864.49,827.83,863.75,830,859.53,830.11Z"/><path class="cls-10" d="M822.1,852a1.81,1.81,0,1,0-1.15-2.29A1.81,1.81,0,0,0,822.1,852Z"/><path class="cls-10" d="M811.81,871.49a1.81,1.81,0,1,0-1.15-2.29A1.81,1.81,0,0,0,811.81,871.49Z"/><path class="cls-10" d="M834.72,877.19a1.81,1.81,0,1,0-1.15-2.29A1.81,1.81,0,0,0,834.72,877.19Z"/><path class="cls-10" d="M843.86,849.7a1.81,1.81,0,1,0-1.15-2.29A1.81,1.81,0,0,0,843.86,849.7Z"/><path class="cls-10" d="M811.78,831.41a1.81,1.81,0,1,0-1.15-2.29A1.81,1.81,0,0,0,811.78,831.41Z"/><path class="cls-10" d="M788.92,883a1.81,1.81,0,1,0-1.15-2.29A1.81,1.81,0,0,0,788.92,883Z"/><path class="cls-10" d="M821.56,893.81a1.81,1.81,0,1,0-1.15-2.29A1.81,1.81,0,0,0,821.56,893.81Z"/></g><g id="Chocolate"><polyline class="cls-20" points="677.45 403.05 656.66 364.8 701.87 340.23 722.83 378.79"/><path class="cls-21" d="M716.21,363.44,748,421.94l-47.87,26-22.4-41.22Z"/><rect class="cls-2" x="680.51" y="357.09" width="9.08" height="12.11" transform="translate(-90.26 371.18) rotate(-28.52)"/><rect class="cls-2" x="693.8" y="349.87" width="9.08" height="12.11" transform="translate(-85.2 376.66) rotate(-28.52)"/><path class="cls-2" d="M698.92,379.17l-4.1-7.55-8,4.34c6.22,11.45,5.78,10.64,5.86,10.59"/><rect class="cls-2" x="667.21" y="364.32" width="9.08" height="12.11" transform="translate(-95.32 365.71) rotate(-28.52)"/><rect class="cls-2" x="675.88" y="380.28" width="9.08" height="12.11" transform="translate(-101.89 371.79) rotate(-28.52)"/><polyline class="cls-2" points="702.8 373.63 700.13 368.73 708.11 364.39 709.11 366.23"/><path class="cls-22" d="M708.73,371.86l24.19,44.5-29.25,15.9-18.35-33.77C686.09,397.2,683.44,400.29,708.73,371.86Z"/><path class="cls-17" d="M685.31,398.49,691,409a10.23,10.23,0,0,1-3.48.17c-1.13,3.08-1.72,6.79-2.94,10.21l-6.89-12.67C686.63,396.74,686.4,396.69,685.31,398.49Z"/><path class="cls-17" d="M716.21,363.44l7.56,13.91a20.9,20.9,0,0,1-9.29,1.38c-.32.46-.68,1.06-1.07,1.74l-4.68-8.6Z"/><path class="cls-9" d="M708.73,371.86l4.68,8.6c-2.14,3.7-4.89,10-2.2,15l1.45,2.66c-3.42,1.86-6.69,4.39-14.61,1-.5,4.63-2.45,8.77-7,9.89l-5.73-10.54C686.09,397.2,683.44,400.29,708.73,371.86Z"/><path class="cls-23" d="M730.57,367.69a16.78,16.78,0,0,1-17.52,7.8s-9.57,12.09-4.51,21.4c-5.32,2.89-13.64-2.92-13.64-2.92s2.21,15.16-9.08,11.82c-3,5.09-3.07,15.45-7.52,17.86l-4.5-13.06a5.34,5.34,0,0,1,2.47-6.51c10.62-9,30.09-34.83,38.47-43.3a7,7,0,0,1,7.59.59Z"/><rect class="cls-19" x="695.74" y="430.69" width="54.48" height="4.54" transform="translate(-118.99 397.77) rotate(-28.52)"/><rect class="cls-24" x="700.56" y="420.05" width="33.29" height="4.54" transform="translate(-114.61 393.72) rotate(-28.52)"/><path class="cls-10" d="M684.67,372l8-4.34a1.51,1.51,0,0,0,.61-2.05l-5.78-10.64a1.51,1.51,0,0,0-2.05-.61l-8,4.34a1.51,1.51,0,0,0-.61,2.05l5.78,10.64A1.51,1.51,0,0,0,684.67,372Zm-4.45-11.36,5.32-2.89,4.34,8-5.32,2.89Z"/><path class="cls-10" d="M698,364.74l8-4.34a1.51,1.51,0,0,0,.61-2.05l-5.78-10.64a1.51,1.51,0,0,0-2.05-.61l-8,4.34a1.51,1.51,0,0,0-.61,2.05l5.78,10.64A1.51,1.51,0,0,0,698,364.74Zm-4.45-11.36,5.32-2.89,4.34,8-5.32,2.89Z"/><path class="cls-10" d="M671.37,379.19l8-4.34a1.51,1.51,0,0,0,.61-2.05l-5.78-10.64a1.51,1.51,0,0,0-2.05-.61l-8,4.34a1.51,1.51,0,0,0-.61,2.05l5.78,10.64A1.51,1.51,0,0,0,671.37,379.19Zm-4.45-11.36,5.32-2.89,4.34,8-5.32,2.89Z"/><path class="cls-10" d="M731.49,366.48c-8.46-6.5-9.39-7.78-12.73-8.05a8.57,8.57,0,0,0-4.72,1L703.2,339.5a1.51,1.51,0,0,0-2.05-.61l-45.21,24.57a1.51,1.51,0,0,0-.61,2.05c21.75,40,20.3,37.2,20.09,37.31a6.84,6.84,0,0,0-3.07,8.2c4.84,14,4.49,13.68,5.42,14A1.51,1.51,0,0,0,679,425a9.66,9.66,0,0,0,3.95-5.42l15.83,29.12a1.51,1.51,0,0,0,2.05.61l47.87-26a1.51,1.51,0,0,0,.61-2.05l-24.91-45.83a18.05,18.05,0,0,0,7.44-6.9A1.51,1.51,0,0,0,731.49,366.48Zm-72.77-1.08,42.55-23.12,10.55,19.41c-2.59,2.84-2,2.58-2.37,2a1.51,1.51,0,0,0-2.05-.61l-8,4.34a1.51,1.51,0,0,0-.61,2.05l2.46,4.53-2.09,2.5-3-5.58a1.51,1.51,0,0,0-2.05-.61l-8,4.34a1.51,1.51,0,0,0-.61,2.05l5.3,9.75c-2.49,2.9-2.09,2.5-2.18,2.34l-5.78-10.64a1.51,1.51,0,0,0-2.05-.61l-8,4.34a1.51,1.51,0,0,0-.61,2.05L678,394.54a1.51,1.51,0,0,0,2.05.61l6-3.27c-2.95,3.32-5.78,6.36-8.23,8.73Zm48.84,1.12-4.19,5-1.17-2.15C708.1,366.12,707.51,366.44,707.55,366.52ZM692.91,384l-4-7.39,5.32-2.89L697.1,379Zm-7.66,4.92-5.32,2.89-4.34-8,5.32-2.89Zm15.49,57-16.51-30.38a55.39,55.39,0,0,1,2.4-8,10.29,10.29,0,0,0,2,.18L702.33,433a1.51,1.51,0,0,0,2.05.61l29.25-15.9a1.51,1.51,0,0,0,.61-2.05c-22.33-41.09-20.86-38-20.51-38.53a20,20,0,0,0,7.83-.64L746,421.34Zm-4.15-49.19c8.34,4.37,14.73,2.1,13.29-.56-2.84-5.23-.42-11.64,1.8-15.7l19.19,35.3-26.59,14.45-12.51-23C695.58,405.53,696.59,400.9,696.59,396.71ZM713.35,374a1.51,1.51,0,0,0-1.45.5c-.4.51-9.13,11.73-5.39,21.5-3.7.77-8.87-2.07-10.72-3.32a1.51,1.51,0,0,0-2.36,1.46c.3,2,.51,7.56-2,9.68a3.74,3.74,0,0,1-2.15.86c-2.51.23-3.88-1.34-4.78.29-2.6,4.44-3.15,12.37-5.53,15.94L675.24,410a3.81,3.81,0,0,1,1.77-4.6c5-2.7,32.44-37.06,38.66-43.4a5.64,5.64,0,0,1,2.85-.55c2.16.17,2.53.81,10,6.61A15.13,15.13,0,0,1,713.35,374Z"/></g><g id="Cookies"><path class="cls-25" d="M1262.37,741.73a34.13,34.13,0,0,1-32.5,34.13l-35.75-35.75a33.33,33.33,0,0,1,10-22.51C1225.52,696.23,1262.37,711.46,1262.37,741.73Z"/><circle class="cls-26" cx="1228.25" cy="738.48" r="6.5"/><circle class="cls-27" cx="1231.5" cy="718.98" r="4.88"/><circle class="cls-28" cx="1210.37" cy="725.48" r="3.25"/><circle class="cls-29" cx="1243.68" cy="757.17" r="4.06"/><circle class="cls-30" cx="1251" cy="733.61" r="3.25"/><path class="cls-5" d="M1262.37,739.18a34.13,34.13,0,0,1-22.28,29.64,6.5,6.5,0,0,1-8.29-4l-.07-.2c-5.12-17.24-23.58-27.22-37.39-24.54,0-.39-.08-.78-.11-1.17-.11,1.84-3.87-2.58,35.64,36.92a34.13,34.13,0,0,0,32.57-35.62Q1262.41,739.71,1262.37,739.18Z"/><path class="cls-31" d="M1229.87,774.23a34.13,34.13,0,0,1-34.13,34.13h0c-30.49,0-45.5-37-24.13-58.26S1229.87,744,1229.87,774.23Z"/><path class="cls-5" d="M1195.74,808.36c-21.56,0-35.36-18.49-34-36.87a34.13,34.13,0,0,0,68.06.24,34.13,34.13,0,0,1-31.53,36.54Q1197,808.36,1195.74,808.36Z"/><circle class="cls-32" cx="1215.25" cy="774.23" r="6.5"/><circle class="cls-33" cx="1177.87" cy="785.61" r="4.88"/><circle class="cls-34" cx="1172.99" cy="762.86" r="4.06"/><circle class="cls-35" cx="1194.12" cy="770.98" r="4.06"/><circle class="cls-36" cx="1190.87" cy="748.23" r="3.25"/><circle class="cls-37" cx="1198.99" cy="795.36" r="3.25"/><path class="cls-10" d="M1264,741.73a35.13,35.13,0,0,0-22.1-32.94,35.61,35.61,0,0,0-49.27,29.8,35,35,0,0,0-22.17,10.35c-22.39,22.39-6.58,61,25.29,61a35.75,35.75,0,0,0,35.61-32.6C1247.93,776.52,1264,761.56,1264,741.73Zm-68.25,65a31.92,31.92,0,0,1-30-20,32.5,32.5,0,1,1,30,20ZM1231.5,774a35.75,35.75,0,0,0-35.61-35.54,32.36,32.36,0,0,1,44.76-26.68C1271.95,724.75,1264.89,770.74,1231.5,774Z"/><path class="cls-10" d="M1215.25,766.11a8.13,8.13,0,1,0,8.13,8.13A8.13,8.13,0,0,0,1215.25,766.11Zm0,13a4.88,4.88,0,1,1,4.88-4.88A4.88,4.88,0,0,1,1215.25,779.11Z"/><path class="cls-10" d="M1177.87,779.11a6.5,6.5,0,1,0,6.5,6.5A6.5,6.5,0,0,0,1177.87,779.11Zm0,9.75a3.25,3.25,0,1,1,3.25-3.25A3.25,3.25,0,0,1,1177.87,788.86Z"/><path class="cls-10" d="M1178.68,762.86a5.69,5.69,0,1,0-5.69,5.69A5.69,5.69,0,0,0,1178.68,762.86Zm-5.69-2.44a2.44,2.44,0,1,1-2.44,2.44A2.44,2.44,0,0,1,1173,760.42Z"/><path class="cls-10" d="M1199.81,771a5.69,5.69,0,1,0-5.69,5.69A5.69,5.69,0,0,0,1199.81,771Zm-5.69-2.44a2.44,2.44,0,1,1-2.44,2.44A2.44,2.44,0,0,1,1194.12,768.55Z"/><path class="cls-10" d="M1195.74,748.23a4.88,4.88,0,1,0-4.88,4.88A4.88,4.88,0,0,0,1195.74,748.23Zm-4.88-1.63a1.63,1.63,0,1,1-1.63,1.63A1.63,1.63,0,0,1,1190.87,746.61Z"/><path class="cls-10" d="M1199,790.48a4.88,4.88,0,1,0,4.88,4.88h0A4.88,4.88,0,0,0,1199,790.48Zm0,6.5a1.63,1.63,0,1,1,1.63-1.63A1.63,1.63,0,0,1,1199,797Z"/><path class="cls-10" d="M1228.25,730.36a8.13,8.13,0,1,0,8.13,8.13A8.13,8.13,0,0,0,1228.25,730.36Zm0,13a4.88,4.88,0,1,1,4.88-4.88A4.88,4.88,0,0,1,1228.25,743.36Z"/><path class="cls-10" d="M1231.5,725.48a6.5,6.5,0,1,0-6.5-6.5A6.5,6.5,0,0,0,1231.5,725.48Zm0-9.75a3.25,3.25,0,1,1-3.25,3.25A3.25,3.25,0,0,1,1231.5,715.73Z"/><path class="cls-10" d="M1210.37,720.6a4.88,4.88,0,1,0,4.88,4.88A4.88,4.88,0,0,0,1210.37,720.6Zm0,6.5a1.63,1.63,0,1,1,1.63-1.63A1.63,1.63,0,0,1,1210.37,727.11Z"/><path class="cls-10" d="M1243.68,751.48a5.69,5.69,0,1,0,5.69,5.69A5.69,5.69,0,0,0,1243.68,751.48Zm0,8.13a2.44,2.44,0,1,1,2.44-2.44A2.44,2.44,0,0,1,1243.68,759.61Z"/><path class="cls-10" d="M1251,728.73a4.88,4.88,0,1,0,4.88,4.88A4.88,4.88,0,0,0,1251,728.73Zm0,6.5a1.63,1.63,0,1,1,1.63-1.63A1.63,1.63,0,0,1,1251,735.23Z"/></g><g id="Croissant"><path class="cls-38" d="M1421.31,512.94c0,2.78-.29,6.75-2.11,8.84a3.71,3.71,0,0,1-2.45,1.28c-5.38.54-10.33-10.12-22.41-10.12h-14.17c-2.73-1.47-2.73-3.37-2.73-3.37a12.23,12.23,0,0,1-16.87,0s0,1.91-2.73,3.38h-14.14c-12.12,0-17,10.63-22.44,10.13a3.73,3.73,0,0,1-2.45-1.25c-1.82-2.13-2.11-6.09-2.11-8.88,0-13.5,11.81-21.94,11.81-21.94h81S1421.31,499.44,1421.31,512.94Z"/><path class="cls-5" d="M1421.13,516.31c-.34,2.84-1.23,6.13-4,6.63-4.71,1.57-10.46-10.12-22.75-10.12h-14.17c-2.73-1.35-2.73-3.26-2.73-3.26a12.23,12.23,0,0,1-16.87,0s0,1.91-2.73,3.38h-14.14c-12.37,0-18,11.63-22.78,10.13-2.8-.61-3.7-3.9-4-6.75a4,4,0,0,0,3.38,1.69c4.74,0,9.48-8.44,19.46-9.89,2.21-.34-1.47-.24,55.47-.24,12.12,0,17.42,10.13,22.61,10.13A4,4,0,0,0,1421.13,516.31Z"/><path class="cls-39" d="M1360.56,509.56s0,1.91-2.73,3.38a19.17,19.17,0,0,1-9.08,1.69c-11.81,0-11.81-21.94-20.25-23.62,0-10.12,15.19-13.5,15.19-13.5C1349.61,480.44,1358.39,503.35,1360.56,509.56Z"/><path class="cls-40" d="M1394.31,477.5c-6.48,3-16.87,31.89-16.87,32.06a12.23,12.23,0,0,1-16.87,0c-2.14-6.07-11-29.13-16.87-32.06,1.69-8.44,10.13-11.81,25.31-11.81S1392.63,469.06,1394.31,477.5Z"/><path class="cls-40" d="M1394.31,477.5c-6.48,3-16.87,31.89-16.87,32.06a12.23,12.23,0,0,1-16.87,0c-2.14-6.07-11-29.13-16.87-32.06,1.69-8.44,10.13-11.81,25.31-11.81S1392.63,469.06,1394.31,477.5Z"/><path class="cls-5" d="M1390.2,476.72c-4.51,6.6-10.12,20.25-12.72,27.69a12.37,12.37,0,0,1-8.44,3.38,12.74,12.74,0,0,1-8.44-3.37c-2.48-6.94-8.47-21.5-12.79-27.69a2.26,2.26,0,0,0-4.12.78c-.46.46.79-.88,4.83,5.45,3.9,5.84,12,26,12,26.44a12.32,12.32,0,0,0,9.23,3.54,13.3,13.3,0,0,0,7.64-3.37c2-5.92,11.26-29.26,16.88-32.06C1394.31,475.81,1391.46,474.87,1390.2,476.72Z"/><path class="cls-41" d="M1409.5,491c-8.44,1.69-8.44,23.63-20.25,23.63a19.17,19.17,0,0,1-9.08-1.69c-2.73-1.47-2.73-3.37-2.73-3.37.51-1,10.13-28.69,16.88-32.06C1394.31,477.5,1409.5,480.88,1409.5,491Z"/><path class="cls-5" d="M1360.56,509.56s0,1.91-2.73,3.38a19.17,19.17,0,0,1-9.08,1.69c-11.81,0-11.81-21.94-20.25-23.62a2.6,2.6,0,0,1,4.81-1.32c4.27,6.75,6.43,19.64,15.44,19.64,3.38,0,8.25-.44,10.68-2.85C1359.72,507.2,1360.31,508.84,1360.56,509.56Z"/><path class="cls-5" d="M1409.5,491c-8.44,1.69-8.44,23.63-20.25,23.63a19.17,19.17,0,0,1-9.08-1.69c-2.73-1.47-2.73-3.37-2.73-3.37s.17-.56,1-2.67c.3-.83-.22-.32,1.69.74a19.17,19.17,0,0,0,9.08,1.69c9,0,11.19-12.89,15.44-19.64a2.6,2.6,0,0,1,4.88,1.32Z"/><path class="cls-10" d="M1411.19,490.11c-.71-9.2-11.95-13-15.42-14-3.14-10.8-16.64-12.12-26.76-12.12s-23.62,1.32-26.68,12.12c-3.48,1-14.72,4.79-15.42,14-2.55,2-11.9,10.29-11.9,22.83,0,7.85,2.28,11.81,6.75,11.81,6,0,10.46-9.79,21.43-10.12a9.82,9.82,0,0,0,5.57,1.69c7.88,0,11.15-2.19,12.52-4.08a13.65,13.65,0,0,0,15.46,0c1.37,1.89,4.64,4.08,12.52,4.08a9.82,9.82,0,0,0,5.57-1.69c10.93.3,15.46,10.13,21.43,10.13,4.47,0,6.75-4,6.75-11.81C1423,500.4,1413.65,492.13,1411.19,490.11Zm-84.05,28.13c-2.13,1.69-4,3.14-5.38,3.14-2.24,0-3.37-2.84-3.37-8.44,0-10.66,8.07-18.09,10.45-20,4.46,1.87,6.4,12.57,11.15,18.71A28.69,28.69,0,0,0,1327.13,518.24Zm21.62-5.3c-9.86,0-10.29-19.56-18.48-23.14,1-6.75,10.5-9.75,13.11-10.48,5.2,3.59,13.21,24.11,15.44,30.38C1358.54,510.46,1357,512.94,1348.75,512.94ZM1362,508.6c-2.67-7.48-10.23-26.9-16.4-31.84,1.94-6.48,9.23-9.38,23.39-9.38s21.45,2.9,23.39,9.38c-6.18,4.94-13.75,24.37-16.4,31.84A10.55,10.55,0,0,1,1362,508.6Zm17.11,1.11c2.14-6,10.13-26.76,15.44-30.37,2.62.73,12.08,3.78,13.11,10.48-8.15,3.58-8.59,23.12-18.43,23.12C1380.91,512.94,1379.43,510.39,1379.13,509.71Zm37.13,11.66c-1.42,0-3.26-1.45-5.38-3.14A28.69,28.69,0,0,0,1398,511.6c4.76-6.13,6.75-16.87,11.15-18.71,2.38,2,10.45,9.38,10.45,20C1419.63,518.54,1418.49,521.38,1416.25,521.38Z"/></g><g id="Donut"><path class="cls-42" d="M424,472.68A51.32,51.32,0,1,0,475.3,524,51.32,51.32,0,0,0,424,472.68Zm0,33.11A18.21,18.21,0,1,1,405.77,524,18.21,18.21,0,0,1,424,505.79Z"/><path class="cls-5" d="M424,575.33c-30.33,0-53-26.09-51.32-53.64a51.32,51.32,0,0,0,102.64,0C477,549.3,454.24,575.33,424,575.33Z"/><path class="cls-43" d="M465.47,504.6c-1-3.74-.88-7.95-2.76-11.22s-5.66-5.31-8.28-8c-1.66-1.66-3.86-4.73-5.25-6.13a51.42,51.42,0,0,0-50.31.07c-.91.89.41.46-5.25,6.13-2.75,2.63-6.42,4.62-8.36,7.95s-1.77,7.45-2.76,11.22-3.21,7.2-3.21,11.13,2.23,7.5,3.21,11.13.88,7.95,2.76,11.22,5.66,5.31,8.36,8c6.62,6.62,2.07,14,4.85,16.67a3.31,3.31,0,0,0,5.65-2.52v-1.66a2.65,2.65,0,0,1,3.82-2.37c3.16,1.64,2.8,2,2.8,5.86a3.31,3.31,0,0,0,6.62,0,2.32,2.32,0,0,1,3-2.22c3.77,1.09,6.29.6,13.43-1.89a2.6,2.6,0,0,1,3.46,2.45,3.31,3.31,0,0,0,6.62,0v-8.28a3.31,3.31,0,0,1,6.62,0v1.66a3.31,3.31,0,1,0,6.62,0c0-9,4.5-13.71,5.61-15.73,1.89-3.31,1.77-7.48,2.76-11.22s3.21-7.2,3.21-11.13S466.44,508.23,465.47,504.6ZM424,542.22A18.21,18.21,0,1,1,442.19,524,18.21,18.21,0,0,1,424,542.22Z"/><path class="cls-43" d="M465.47,504.6c-1-3.74-.88-7.95-2.76-11.22s-5.66-5.31-8.28-8c-1.66-1.66-3.86-4.73-5.25-6.13a51.42,51.42,0,0,0-50.31.07c-.91.89.41.46-5.25,6.13-2.75,2.63-6.42,4.62-8.36,7.95s-1.77,7.45-2.76,11.22-3.21,7.2-3.21,11.13,2.23,7.5,3.21,11.13.88,7.95,2.76,11.22,5.66,5.31,8.36,8c6.62,6.62,2.07,14,4.85,16.67a3.31,3.31,0,0,0,5.65-2.52v-1.66a2.65,2.65,0,0,1,3.82-2.37c3.16,1.64,2.8,2,2.8,5.86a3.31,3.31,0,0,0,6.62,0,2.32,2.32,0,0,1,3-2.22c3.77,1.09,6.29.6,13.43-1.89a2.6,2.6,0,0,1,3.46,2.45,3.31,3.31,0,0,0,6.62,0v-8.28a3.31,3.31,0,0,1,6.62,0v1.66a3.31,3.31,0,1,0,6.62,0c0-9,4.5-13.71,5.61-15.73,1.89-3.31,1.77-7.48,2.76-11.22s3.21-7.2,3.21-11.13S466.44,508.23,465.47,504.6ZM424,542.22A18.21,18.21,0,1,1,442.19,524,18.21,18.21,0,0,1,424,542.22Z"/><path class="cls-44" d="M465.47,504.6c-1-3.74-.88-7.95-2.76-11.22s-5.66-5.31-8.28-8c-1.66-1.66-3.86-4.73-5.25-6.13a51.42,51.42,0,0,0-50.31.07c-.91.89.41.46-5.25,6.13-2.75,2.63-6.42,4.62-8.36,7.95s-1.77,7.45-2.76,11.22c-1.19,4.4-3.81,8-3.08,12.78.48-3.31,2.23-6.36,3.08-9.47,1-3.74.88-7.95,2.76-11.22s5.66-5.31,8.36-8c5.53-5.51,4.4-5.25,5.23-6.06a51.55,51.55,0,0,1,9.67-4.21C414,477.48,415.2,476,424,476s10.35,1.56,15.46,2.37a45.11,45.11,0,0,1,9.67,4.25c1.85,1.92,3.31,4.25,5.23,6.11,2.7,2.7,6.42,4.69,8.28,8s1.77,7.48,2.76,11.22c.84,3.11,2.6,6.18,3.08,9.47C469.27,512.58,466.62,508.87,465.47,504.6Z"/><path class="cls-45" d="M442.19,525.66a18.21,18.21,0,0,1-36.26,0,18.21,18.21,0,1,0,36.26,0Z"/><path class="cls-10" d="M446.72,476.18C411.28,459.31,371,485.46,371,524a53,53,0,1,0,75.72-47.83Zm.43,71a5,5,0,0,0-5,5v8.28a1.66,1.66,0,1,1-3.31,0,4.24,4.24,0,0,0-5.66-4c-7.14,2.47-9.25,2.78-12.42,1.85a4,4,0,0,0-5.1,3.81,1.66,1.66,0,0,1-2.83,1.14c-.65-.61-.48-1.14-.48-3.68,0-2.9-2.1-3.92-3.71-4.72a4.25,4.25,0,0,0-4.19.18c-2.2,1.36-2,3.31-2,5.23a1.66,1.66,0,0,1-2.83,1.32c-.65-.61-.48-.83-.48-6.19a14.9,14.9,0,0,0-4.35-10.46,40.76,40.76,0,0,0-3.31-2.83c-8.84-7.05-4.35-8.28-8.81-19.63-4.16-10.65.36-9.55,2.23-21.62,1-6.26,1.66-7.4,6.62-11.39,2.65-2.14,7.05-6.36,8.36-8.81.48-.91,23.76-13.59,48.19,0,1.66,1.84,3.2,4.07,5.08,6,2.73,2.63,6.37,4.64,8.1,7.6s1.66,7.07,2.6,10.83S467,512.2,467,515.73s-2.19,7.07-3.16,10.69-.89,7.9-2.62,10.86c-1.14,2.09-5.81,7-5.81,16.52a1.66,1.66,0,0,1-3.31,0v-1.66A5,5,0,0,0,447.16,547.18ZM424,573.67c-39.09,0-62.91-43.36-41.82-76.39-.56,2.7-.71,4.82-1.23,6.85-1,3.58-3.31,7.23-3.31,11.59s2.3,7.95,3.31,11.59.84,8,2.95,11.59,5.89,5.63,8.66,8.41c3.87,3.91,3.29,8.15,3.29,13.11a5,5,0,0,0,4.95,5l.47,0a5.12,5.12,0,0,0,4.52-5.15v-1.66a1,1,0,0,1,1.44-.88c1.32.65,1.87.81,1.87,1.75,0,2.48-.28,4.34,1.44,6a5,5,0,0,0,7,0c1.94-1.9,1.11-3.58,1.74-4s1.66.51,4.7.51a38.41,38.41,0,0,0,10.33-2.55,1,1,0,0,1,1.26,1,5,5,0,0,0,9.93,0v-8.28a1.66,1.66,0,0,1,3.31,0v1.66c0,6.39,9.93,7.05,9.93-.63s4.59-12.81,5.4-14.27c2.07-3.61,2-8,2.93-11.59s3.31-7.23,3.31-11.59-2.3-7.95-3.31-11.59c-.55-2-.71-4.21-1.27-6.89C486.89,530.25,463.15,573.67,424,573.67Z"/><path class="cls-10" d="M424,504.14A19.87,19.87,0,1,0,443.84,524,19.87,19.87,0,0,0,424,504.14Zm0,36.42A16.56,16.56,0,1,1,440.53,524,16.56,16.56,0,0,1,424,540.56Z"/><path class="cls-10" d="M427.29,494.21h3.31a1.66,1.66,0,0,0,0-3.31h-3.31a1.66,1.66,0,1,0,0,3.31Z"/><path class="cls-10" d="M438.13,502.3c3.64,1.84,3.53,1.84,4.06,1.84a1.66,1.66,0,0,0,.74-3.13l-3.31-1.66a1.66,1.66,0,0,0-1.49,2.95Z"/><path class="cls-10" d="M452.12,514.07a1.66,1.66,0,0,0,.74-3.13l-3.31-1.66a1.66,1.66,0,0,0-1.49,2.95C451.71,514.07,451.59,514.07,452.12,514.07Z"/><path class="cls-10" d="M452.12,525.66h3.31a1.66,1.66,0,0,0,0-3.31h-3.31a1.66,1.66,0,0,0,0,3.31Z"/><path class="cls-10" d="M463.71,517.38v-3.31a1.66,1.66,0,1,0-3.31,0v3.31a1.66,1.66,0,1,0,3.31,0Z"/><path class="cls-10" d="M453.78,500.83v-3.31a1.66,1.66,0,1,0-3.31,0v3.31a1.66,1.66,0,1,0,3.31,0Z"/><path class="cls-10" d="M443.84,485.93h-3.31a1.66,1.66,0,1,0,0,3.31h3.31a1.66,1.66,0,1,0,0-3.31Z"/><path class="cls-10" d="M402.46,510.76v-3.31a1.66,1.66,0,0,0-3.31,0v3.31a1.66,1.66,0,0,0,3.31,0Z"/><path class="cls-10" d="M392.52,507.45v-5a1.66,1.66,0,1,0-3.31,0v5a1.66,1.66,0,1,0,3.31,0Z"/><path class="cls-10" d="M403.48,537l-5-1.66a1.66,1.66,0,0,0-1,3.15l5,1.66a1.66,1.66,0,0,0,1-3.15Z"/><path class="cls-10" d="M414,545.53h-5a1.66,1.66,0,0,0,0,3.31h5a1.66,1.66,0,1,0,0-3.31Z"/><path class="cls-10" d="M423.8,548.09a1.66,1.66,0,0,0-2.95,1.49c1.66,3.31,1.82,4.22,3.13,4.22a1.66,1.66,0,0,0,1.47-2.4Z"/><path class="cls-10" d="M440,545.61l-5,1.66a1.66,1.66,0,0,0,1.06,3.15l5-1.66a1.66,1.66,0,1,0-1.06-3.15Z"/><path class="cls-10" d="M453.78,538.91a1.66,1.66,0,0,0,1.18-2.83l-3.31-3.31a1.66,1.66,0,0,0-2.35,2.35C452.9,538.72,452.88,538.91,453.78,538.91Z"/><path class="cls-10" d="M412.39,499.17l3.31,1.66a1.66,1.66,0,0,0,1.47-3l-3.31-1.66a1.66,1.66,0,0,0-1.47,3Z"/><path class="cls-10" d="M396.81,525.1l-1.66-3.31a1.66,1.66,0,0,0-3,1.47l1.66,3.31a1.66,1.66,0,0,0,3-1.47Z"/><path class="cls-10" d="M424,482.62v-3.31a1.66,1.66,0,0,0-3.31,0v3.31a1.66,1.66,0,1,0,3.31,0Z"/><path class="cls-10" d="M407,486.67c3.64,1.8,3.53,1.82,4.06,1.82a1.66,1.66,0,0,0,.74-3.13l-3.31-1.66a1.66,1.66,0,1,0-1.49,3Z"/><path class="cls-10" d="M400.8,497.52h3.31a1.66,1.66,0,0,0,0-3.31H400.8a1.66,1.66,0,1,0,0,3.31Z"/></g><g id="Fried_Fries" data-name="Fried Fries"><path class="cls-46" d="M287.07,791.48,254.46,840l-6.21,2.3c-9.51-8.91-29.53-18.13-42.5-19.55l-2.3-6.21,15.62-56.33,9.92,4.56c2.21,8.07,14.32,19.77,30.59,23.05,7.83,1.64,14.57.52,17.58-.89Z"/><path class="cls-46" d="M287.07,791.48,254.46,840l-6.21,2.3c-9.51-8.91-29.53-18.13-42.5-19.55l-2.3-6.21,15.62-56.33,9.92,4.56c2.21,8.07,14.32,19.77,30.59,23.05,7.83,1.64,14.57.52,17.58-.89Z"/><path class="cls-47" d="M287.07,791.48l-2.65,3.93-9.22-4.24c-11.25,5.31-34.25-1.49-44.46-15.3A24.7,24.7,0,0,1,227,769l-9.22-4.24,1.26-4.57,9.92,4.56c2.21,8.07,14.32,19.77,30.59,23.05,7.83,1.64,14.57.52,17.58-.89Z"/><path class="cls-19" d="M256.84,836.45,254.46,840l-6.21,2.3c-9.51-8.91-29.53-18.13-42.5-19.55l-2.3-6.21,1.14-4.11,2.24,5.66c13.33,1.62,34.22,11.18,44.26,20.36Z"/><path class="cls-48" d="M262.42,763,252,785.55a51.47,51.47,0,0,1-8.38-4.17l10.27-22.33Z"/><path class="cls-49" d="M230,767.34a16.16,16.16,0,0,1-1.06-2.58l-6.89-3.17,6.33-18.75,8.91,3Z"/><path class="cls-50" d="M257.29,755.46l-2,4.25-1.42-.65-10.27,22.33a42.84,42.84,0,0,1-6.39-4.78l11.53-25.06Z"/><path class="cls-51" d="M254.89,745.77l-3.26,7.08-2.83-1.3-11.53,25.06a34.56,34.56,0,0,1-4.57-5l13.69-29.75Z"/><path class="cls-52" d="M249,736.19l-16.3,35.42a27.4,27.4,0,0,1-2.65-4.28l7.25-21.51-2.63-.88,5.83-12.67Z"/><polygon class="cls-53" points="265.99 744.01 258.17 761.01 255.34 759.71 257.29 755.46 251.63 752.85 257.49 740.1 265.99 744.01"/><path class="cls-54" d="M291.61,759.23l-3.79,8.25-.93-.56-12.67,20.93a27.23,27.23,0,0,1-4.69.71L280,765.89l-1.42-.65,4.56-9.92Z"/><path class="cls-55" d="M280,765.89l-10.43,22.67a36.46,36.46,0,0,1-10-.75L271.46,762Z"/><path class="cls-56" d="M276.79,754.13l-3.91,8.5-1.42-.65-11.88,25.83a44.25,44.25,0,0,1-7.55-2.25l16.26-35.34Z"/><path class="cls-57" d="M294.91,771.75l-11,18.25-6.72-3.09a16.16,16.16,0,0,1-2.94.93l12.67-20.93Z"/><circle class="cls-58" cx="238.73" cy="807" r="12.48" transform="translate(-594.19 686.6) rotate(-65.3)"/><path class="cls-24" d="M233.52,818.34a12.48,12.48,0,0,1-5.38-17.93,12.48,12.48,0,0,0,22.5,10.35,12.48,12.48,0,0,1-17.12,7.58Z"/><path class="cls-10" d="M288.58,791.05c-.24-.83-.72-.93-2.46-1.73,11-18.16,10.54-17,10.31-17.93s-.15-.64-6.6-4.53l3.21-7a1.56,1.56,0,0,0-.77-2.07l-8.5-3.91a1.56,1.56,0,0,0-2.07.77l-3.91,8.5-2.83-1.3,3.26-7.08a1.56,1.56,0,0,0-.77-2.07l-8.5-3.91a1.56,1.56,0,0,0-2.07.77l-5.21,11.33-1.42-.65,7.17-15.59a1.56,1.56,0,0,0-.77-2.07l-8.5-3.91a1.56,1.56,0,0,0-2.07.77l-2,4.25-5.67-2.61,2-4.25a1.56,1.56,0,0,0-.77-2.07l-8.5-3.91a1.56,1.56,0,0,0-2.07.77L233.86,743l-4.9-1.66a1.56,1.56,0,0,0-2,1h0l-5.84,17.14-1.42-.65a1.56,1.56,0,0,0-2.17,1C200.86,820,201.79,816.4,202,817.07c2.4,6.46,2.31,7.07,3.56,7.2,12.58,1.38,32.31,10.42,41.6,19.14a1.56,1.56,0,0,0,1.57.31c6.87-2.44,6.66-2.27,7.06-2.85C291.16,788.2,288.86,792.08,288.58,791.05Zm-5.31-3-5.67-2.61,9.82-16.34,5.38,3.23Zm.61-30.62,5.67,2.61-2.48,5.38c-1.42-.17-.61-.76-13.83,21.1l-1.12.2,9.27-20.15a1.56,1.56,0,0,0-.77-2.07ZM272.23,764l5.67,2.61L268.53,787a35,35,0,0,1-6.68-.4Zm-3.17-11.76,5.67,2.61-2.61,5.67a1.56,1.56,0,0,0-2.07.77L258.69,786a43.81,43.81,0,0,1-4.53-1.35Zm-17.83,31.28a41,41,0,0,1-5.59-2.78l9-19.67,5.67,2.61Zm4-27.35-.65,1.42a1.56,1.56,0,0,0-2.07.77L243,779.08a40.11,40.11,0,0,1-3.82-2.89l10.38-22.57Zm3-14.06,5.67,2.61-5.21,11.33a1.56,1.56,0,0,0-.77-2.07l-4.25-2Zm-5.44,4.36-2,4.25-1.42-.65a1.56,1.56,0,0,0-2.07.77l-10.61,23.05a33,33,0,0,1-2.25-2.58l12.63-27.44Zm-11.56-12.19,5.67,2.61-14.48,31.47c-.26-.45-.5-.85-.7-1.23,7.89-23.42,8.4-22,5.06-23.16ZM229.4,744.81l5.94,2-5.61,16.56-5.67-2.61Zm24,93.89-4.85,1.8a92.11,92.11,0,0,0-41.71-19.19l-1.78-4.85,15-54.09,7.64,3.51c5.91,16.45,33,28.93,49.42,22.74l7.64,3.51Z"/><path class="cls-10" d="M244.6,794.25a14,14,0,1,0,6.89,18.62A14,14,0,0,0,244.6,794.25Zm-10.43,22.67a10.92,10.92,0,1,1,14.48-5.36h0A10.92,10.92,0,0,1,234.17,816.92Z"/></g><g id="Stick_Ice" data-name="Stick Ice"><path class="cls-59" d="M1621.76,260.54l-34.17-10.08a7.12,7.12,0,0,1-4.82-8.85l12.6-42.71A24.94,24.94,0,1,1,1643.2,213l-12.6,42.71A7.12,7.12,0,0,1,1621.76,260.54Z"/><path class="cls-2" d="M1632.12,250.6l-1.51,5.13a7.12,7.12,0,0,1-8.85,4.82l-34.17-10.08a7.12,7.12,0,0,1-4.82-8.85l1.51-5.13a7.12,7.12,0,0,0,4.82,8.85l34.17,10.08A7.12,7.12,0,0,0,1632.12,250.6Z"/><path class="cls-60" d="M1595.37,198.9l-3.53,12a8.91,8.91,0,0,1,6,11.06l-2,6.83a5.34,5.34,0,0,0,10.25,3l2-6.83a5.34,5.34,0,0,1,10.25,3l-3.53,12a5.34,5.34,0,1,0,10.25,3l1-3.42a8.91,8.91,0,0,1,11.06-6l6-20.5a24.94,24.94,0,1,0-47.84-14.11Z"/><path class="cls-44" d="M1643.2,213l-1,3.42a24.94,24.94,0,1,0-47.84-14.11l1-3.42a24.94,24.94,0,0,1,12-14.85C1626.86,173.48,1649.46,191.81,1643.2,213Z"/><path class="cls-2" d="M1596.85,225.34a8.91,8.91,0,0,0-6-11.06l1-3.42a8.91,8.91,0,0,1,5.31,4.28C1599.24,219,1597.82,222.08,1596.85,225.34Z"/><path class="cls-2" d="M1603.53,235a5.34,5.34,0,0,0,2.57-3.18l-1,3.42a5.34,5.34,0,0,1-10.25-3l1-3.42a5.34,5.34,0,0,0,7.68,6.2Z"/><path class="cls-2" d="M1622.52,246.13a5.34,5.34,0,0,0,2.57-3.18l-1,3.42a5.34,5.34,0,1,1-10.25-3l1-3.42a5.34,5.34,0,0,0,7.68,6.2Z"/><path class="cls-2" d="M1637.16,233.51l-1,3.42a8.91,8.91,0,0,0-11.06,6l1-3.42A8.91,8.91,0,0,1,1637.16,233.51Z"/><path class="cls-61" d="M1595.1,288a5.34,5.34,0,0,1-3.61-6.64l8.06-27.34,10.25,3-8.06,27.34A5.34,5.34,0,0,1,1595.1,288Z"/><rect class="cls-62" x="1601.24" y="252.72" width="5.34" height="10.69" transform="translate(902.63 1723.44) rotate(-73.57)"/><path class="cls-10" d="M1626.84,180.33a26.72,26.72,0,0,0-33.19,18.07l-12.6,42.71a8.91,8.91,0,0,0,6,11.06l10.25,3-7.56,25.63a7.12,7.12,0,1,0,13.67,4l7.56-25.63,10.25,3a8.91,8.91,0,0,0,11.06-6l12.6-42.71A26.72,26.72,0,0,0,1626.84,180.33Zm-29.77,19.08a23.16,23.16,0,1,1,44.42,13.1l-5.58,18.93a10.69,10.69,0,0,0-11.53,7.59l-1,3.42a3.56,3.56,0,0,1-6.83-2l3.53-12a7.12,7.12,0,1,0-13.67-4l-2,6.83a3.56,3.56,0,0,1-6.83-2l2-6.83a10.69,10.69,0,0,0-5.56-12.63Zm3,84.44a3.56,3.56,0,1,1-6.83-2l7.56-25.63,6.83,2Zm22.23-25-34.17-10.08a5.34,5.34,0,0,1-3.61-6.64l8.5-28.8a7.13,7.13,0,0,1,3.18,8.11l-2,6.83a7.13,7.13,0,0,0,13.67,4l2-6.83a3.56,3.56,0,1,1,6.83,2l-3.53,12a7.12,7.12,0,1,0,13.67,4l1-3.42a7.13,7.13,0,0,1,7.07-5.08l-6,20.26A5.34,5.34,0,0,1,1622.26,258.83Z"/><path class="cls-10" d="M1604.57,206.17l.7,3.92a1.78,1.78,0,0,0,3.49-.64l-.7-3.92a1.78,1.78,0,0,0-3.49.64Z"/><path class="cls-10" d="M1618.78,207.66l3.42,1a1.78,1.78,0,0,0,1-3.42l-3.42-1a1.78,1.78,0,1,0-1,3.42Z"/><path class="cls-10" d="M1633.05,200.53c3.2,3,3.08,3,3.63,3.13a1.78,1.78,0,0,0,1.72-3l-2.91-2.72a1.78,1.78,0,0,0-2.43,2.59Z"/><path class="cls-10" d="M1624.52,194.5l1-3.42a1.78,1.78,0,1,0-3.42-1l-1,3.42a1.78,1.78,0,0,0,3.42,1Z"/><path class="cls-10" d="M1625.8,218.82c3.2,3,3.08,3,3.63,3.13a1.78,1.78,0,0,0,1.72-3l-2.91-2.72a1.78,1.78,0,0,0-2.43,2.59Z"/><path class="cls-10" d="M1607.22,195.8l2.72-2.91a1.78,1.78,0,0,0-2.59-2.43l-2.72,2.91a1.78,1.78,0,0,0,2.59,2.43Z"/></g><g id="Pizza"><path class="cls-63" d="M1666.75,798.15c-.16.43-17,29.71-17.15,29.71C1666.11,799.31,1662.86,804.86,1666.75,798.15Z"/><path class="cls-64" d="M1701.2,824a3.57,3.57,0,0,1-3.31,3.81h-5.47A42.82,42.82,0,0,0,1671,790.78l2.62-4.53a3.57,3.57,0,0,1,4.87-1.32l.18.11A51.63,51.63,0,0,1,1701.2,824Z"/><path class="cls-5" d="M1701.2,824a3.57,3.57,0,0,1-3.25,3.86h-5.53A42.82,42.82,0,0,0,1671,790.78l1.53-2.64a42.82,42.82,0,0,1,19.63,31.33c.55,4.94,7.39,6.62,8.92,2.46A20,20,0,0,0,1701.2,824Z"/><path class="cls-65" d="M1666.75,798.15l-2.87,5.08a42.71,42.71,0,0,0-42.73,0l-2.69-4.5a3.57,3.57,0,0,1,1.28-4.88l.21-.12a51.9,51.9,0,0,1,45,0A3.57,3.57,0,0,1,1666.75,798.15Z"/><path class="cls-5" d="M1666.75,798.15l-2.87,5.08a42.71,42.71,0,0,0-42.73,0c-2.46-4.09-4-5.71-2.69-8.06l.91,1.57a3.57,3.57,0,0,0,4.62,1.41,42.82,42.82,0,0,1,36.91,0,3.57,3.57,0,0,0,4.62-1.43l.93-1.61A3.57,3.57,0,0,1,1666.75,798.15Z"/><path class="cls-63" d="M1666.75,798.15c-.16.43-17,29.71-17.15,29.71C1666.11,799.31,1662.86,804.86,1666.75,798.15Z"/><path class="cls-66" d="M1621.06,803.27a42.82,42.82,0,0,0-21.41,37.08h-5.21a3.57,3.57,0,0,1-3.58-3.56q0-.13,0-.26a51.74,51.74,0,0,1,22.5-39,3.57,3.57,0,0,1,5,1l.13.22Z"/><path class="cls-5" d="M1621.06,803.27a42.82,42.82,0,0,0-21.41,37.08h-5.21a3.57,3.57,0,0,1-3.58-3.56q0-.16,0-.32a19.48,19.48,0,0,1,.2-2.05c1.45,4.14,8.3,2.48,8.85-2.46a42.82,42.82,0,0,1,19.63-31.33Z"/><path class="cls-67" d="M1621.06,877.42l-2.62,4.53a3.57,3.57,0,0,1-4.87,1.33l-.22-.13a51.74,51.74,0,0,1-22.48-39,3.57,3.57,0,0,1,3.31-3.81h5.47A42.82,42.82,0,0,0,1621.06,877.42Z"/><path class="cls-68" d="M1665,886.95a51.9,51.9,0,0,1-45,0,3.57,3.57,0,0,1-1.61-4.78l.12-.21,2.6-4.53a42.68,42.68,0,0,0,42.82,0l2.62,4.53a3.57,3.57,0,0,1-1.3,4.88Z"/><path class="cls-5" d="M1665,886.95a51.9,51.9,0,0,1-45,0,3.57,3.57,0,0,1-1.6-4.79l.1-.19a3.57,3.57,0,0,0,1.5,1.41,51.9,51.9,0,0,0,45,0,3.57,3.57,0,0,0,1.5-1.41,3.57,3.57,0,0,1-1.31,4.87Z"/><path class="cls-69" d="M1694.07,844.16a51.74,51.74,0,0,1-22.5,39,3.57,3.57,0,0,1-5-1l-.13-.22-2.6-4.55a42.82,42.82,0,0,0,21.41-37.08h5.21a3.57,3.57,0,0,1,3.58,3.56Q1694.08,844,1694.07,844.16Z"/><path class="cls-5" d="M1621.06,877.42l-2.62,4.53a3.57,3.57,0,0,1-4.87,1.33l-.22-.13a51.74,51.74,0,0,1-22.48-39,3.57,3.57,0,0,1,.2-1.46,51.74,51.74,0,0,0,22.3,36.9,3.57,3.57,0,0,0,5-1l.13-.22,1.09-1.89Z"/><path class="cls-5" d="M1671.57,883.17a3.57,3.57,0,0,1-5-1l-.13-.22-2.6-4.55c.52-.3,1-.61,1.53-.93l1.09,1.89a3.57,3.57,0,0,0,4.87,1.33l.22-.13a51.74,51.74,0,0,0,22.3-36.88C1695.12,846.3,1691.64,869.48,1671.57,883.17Z"/><path class="cls-70" d="M1642.47,840.35l-21.41,37.08a42.82,42.82,0,0,1-21.41-37.08Z"/><path class="cls-71" d="M1642.47,840.35l-21.41-37.08a42.71,42.71,0,0,1,42.82,0Z"/><path class="cls-24" d="M1642.47,840.35l-21.41-37.08c.77-.45,1.55-.87,2.36-1.27l16,27.64a3.57,3.57,0,0,0,6.17,0l15.9-27.67c.8.39,1.59.82,2.36,1.27Z"/><path class="cls-72" d="M1642.47,840.35h-42.82a42.82,42.82,0,0,1,21.41-37.08Z"/><path class="cls-24" d="M1642.47,840.35h-42.82a26.41,26.41,0,0,1,.16-3.57h40.61Z"/><path class="cls-73" d="M1663.88,803.27c-14.88,25.76-14.09,24.59-14.27,24.59C1664,802.88,1663.68,803.09,1663.88,803.27Z"/><path class="cls-74" d="M1663.88,877.42a42.68,42.68,0,0,1-42.82,0l21.41-37.08Z"/><path class="cls-24" d="M1663.88,877.42a42.68,42.68,0,0,1-42.82,0l1.57-2.71a42.66,42.66,0,0,0,39.64,0Z"/><path class="cls-75" d="M1685.29,840.35a42.82,42.82,0,0,1-21.41,37.08l-21.41-37.08Z"/><path class="cls-70" d="M1642.47,840.35l-21.41,37.08a42.82,42.82,0,0,1-21.41-37.08Z"/><path class="cls-75" d="M1685.29,840.35a42.82,42.82,0,0,1-21.41,37.08l-21.41-37.08Z"/><path class="cls-24" d="M1684.07,850.44a42.82,42.82,0,0,1-20.2,27l-21.41-37.08h3.21l16.24,27a5.35,5.35,0,0,0,7.34,1.84l.38-.25A43.07,43.07,0,0,0,1684.07,850.44Z"/><path class="cls-24" d="M1600.86,850.44a42.82,42.82,0,0,0,20.2,27l21.41-37.08h-3.21l-16.24,27a5.35,5.35,0,0,1-7.34,1.84l-.38-.25A43.07,43.07,0,0,1,1600.86,850.44Z"/><path class="cls-76" d="M1692.42,827.86H1649.6c22.25-38.45,16.77-29.06,21.41-37.08A42.82,42.82,0,0,1,1692.42,827.86Z"/><path class="cls-24" d="M1692.42,827.86H1649.6l2.05-3.57h40.61A26.41,26.41,0,0,1,1692.42,827.86Z"/><path class="cls-63" d="M1666.75,798.15c-.16.43-17,29.71-17.15,29.71C1666.11,799.31,1662.86,804.86,1666.75,798.15Z"/><circle class="cls-77" cx="1671.91" cy="816.26" r="4.46"/><circle class="cls-78" cx="1643.36" cy="814.48" r="4.46"/><circle class="cls-79" cx="1668.34" cy="859.08" r="4.46"/><circle class="cls-80" cx="1641.58" cy="864.43" r="4.46"/><circle class="cls-81" cx="1618.38" cy="855.51" r="4.46"/><circle class="cls-82" cx="1614.81" cy="826.96" r="4.46"/><path class="cls-10" d="M1679.7,783.59a5.35,5.35,0,0,0-7.43,1.45l-.21.33-4.62,8c-3.14-3.57-25.89-12.1-48.17-1.27a6.37,6.37,0,0,1-6.8,3.94,53.2,53.2,0,0,0-23.19,40.32,6.81,6.81,0,0,1-.2,7.89,53.2,53.2,0,0,0,23.28,40.32,5.21,5.21,0,0,0,4.09.79,5.35,5.35,0,0,0,2.71,3.12,53.63,53.63,0,0,0,46.6,0,5.35,5.35,0,0,0,2.71-3.16,5.21,5.21,0,0,0,4.09-.79,53.2,53.2,0,0,0,23.28-40.32,5.35,5.35,0,0,0-1.41-3.91c-2.16-2.3-.34-1.78-48.89-1.78l5.16-8.92h46.92a5.35,5.35,0,0,0,5.37-5.34q0-.19,0-.39A53.2,53.2,0,0,0,1679.7,783.59Zm-18.29,93.15a40.93,40.93,0,0,1-37.9,0l18.95-32.83Zm-18.95-40L1623.52,804a40.88,40.88,0,0,1,37.82,0C1642.47,836.78,1649.05,825.38,1642.47,836.78Zm-3.09,1.78h-37.95a41,41,0,0,1,19-32.81Zm0,3.57-18.95,32.81a41,41,0,0,1-19-32.81Zm-19.63-45.73a1.78,1.78,0,0,1,.89-1.05,50.12,50.12,0,0,1,43.5,0,1.78,1.78,0,0,1,.89,1.05c.27.91-.16,1.28-2,4.44a44.46,44.46,0,0,0-41.39,0c-1.52-2.73-2.16-3.32-1.84-4.44ZM1614.4,799a1.78,1.78,0,0,1,1.3-.25c1,.23,1.12.8,2.91,3.89a44.6,44.6,0,0,0-20.75,35.9h-3.43a1.78,1.78,0,0,1-1.79-1.78s0-.07,0-.11A49.74,49.74,0,0,1,1614.39,799Zm0,82.64A49.71,49.71,0,0,1,1592.64,844a1.78,1.78,0,0,1,.48-1.32c.7-.75,1.18-.57,4.75-.57a44.6,44.6,0,0,0,20.79,35.9c-1.91,3.35-1.94,3.68-2.94,3.89a1.78,1.78,0,0,1-1.32-.25Zm50.72,2.62a1.78,1.78,0,0,1-.89,1.05,50.12,50.12,0,0,1-43.5,0,1.78,1.78,0,0,1-.89-1.05c-.3-1,.12-1.37,1.91-4.46a44.6,44.6,0,0,0,41.46,0c1.57,2.75,2.21,3.34,1.89,4.46Zm26.76-41.59a1.78,1.78,0,0,1,.48,1.32,49.71,49.71,0,0,1-21.75,37.65,1.78,1.78,0,0,1-2.47-.53l0-.08-1.78-3a44.6,44.6,0,0,0,20.75-35.9c3.57,0,4.05-.18,4.75.57Zm-27.39,32.24-18.95-32.81h37.95A41,41,0,0,1,1664.5,874.94Zm-11.74-48.87c1.53-2.64,17.36-30.19,18.88-32.81a41.18,41.18,0,0,1,19,32.81Zm46.19-.57c-.71.75-1.23.57-4.8.57a44.69,44.69,0,0,0-20.75-35.9l1.78-3a1.78,1.78,0,0,1,2.44-.65l.08,0a49.71,49.71,0,0,1,21.75,37.65A1.78,1.78,0,0,1,1699,825.5Z"/><path class="cls-10" d="M1671.91,810a6.24,6.24,0,1,0,6.24,6.24A6.24,6.24,0,0,0,1671.91,810Zm0,8.92a2.68,2.68,0,1,1,2.68-2.68A2.68,2.68,0,0,1,1671.91,818.94Z"/><path class="cls-10" d="M1637.12,814.48a6.24,6.24,0,1,0,6.24-6.24A6.24,6.24,0,0,0,1637.12,814.48Zm6.24-2.68a2.68,2.68,0,1,1-2.68,2.68,2.68,2.68,0,0,1,2.68-2.68Z"/><path class="cls-10" d="M1668.34,852.83a6.24,6.24,0,1,0,6.24,6.24A6.24,6.24,0,0,0,1668.34,852.83Zm0,8.92a2.68,2.68,0,1,1,2.68-2.68A2.68,2.68,0,0,1,1668.34,861.76Z"/><path class="cls-10" d="M1641.58,858.19a6.24,6.24,0,1,0,6.24,6.24A6.24,6.24,0,0,0,1641.58,858.19Zm0,8.92a2.68,2.68,0,1,1,2.68-2.68A2.68,2.68,0,0,1,1641.58,867.11Z"/><path class="cls-10" d="M1618.38,861.76a6.24,6.24,0,1,0-6.24-6.24A6.24,6.24,0,0,0,1618.38,861.76Zm0-8.92a2.68,2.68,0,1,1-2.68,2.68A2.68,2.68,0,0,1,1618.38,852.83Z"/><path class="cls-10" d="M1608.57,827a6.24,6.24,0,1,0,6.24-6.24A6.24,6.24,0,0,0,1608.57,827Zm6.24-2.68a2.68,2.68,0,1,1,0,5.35h0a2.68,2.68,0,1,1,0-5.35Z"/><path class="cls-10" d="M1673.32,802.36l4.46,4.46a1.79,1.79,0,0,0,2.53-2.53l-4.46-4.46a1.79,1.79,0,0,0-2.53,2.53Z"/><path class="cls-10" d="M1663.88,849.27H1671a1.78,1.78,0,1,0,0-3.57h-7.14a1.78,1.78,0,0,0,0,3.57Z"/><path class="cls-10" d="M1646.46,877.81l7.14-1.78a1.83,1.83,0,0,0-.86-3.57l-7.14,1.78a1.83,1.83,0,1,0,.86,3.57Z"/><path class="cls-10" d="M1627.21,850.75a1.78,1.78,0,0,0,2-3l-5.35-3.57a1.78,1.78,0,0,0-2,3Z"/><path class="cls-10" d="M1623.82,831.23c7.71,3.85,7.35,3.76,7.94,3.76a1.78,1.78,0,0,0,.8-3.37l-7.14-3.57a1.78,1.78,0,0,0-1.61,3.18Z"/><path class="cls-10" d="M1638.1,803.07l-7.14,3.57a1.78,1.78,0,0,0,.8,3.37c.61,0,.23.09,7.94-3.76a1.78,1.78,0,0,0-1.61-3.18Z"/></g><g id="Sandwitch"><path class="cls-83" d="M357.33,238.18l8.18-2.22a3.47,3.47,0,0,0,2.44-4.26h0l3.3,12.17a3.65,3.65,0,0,1-2.57,4.48L266.41,276.13a3.65,3.65,0,0,1-4.48-2.57l-3.3-12.17a3.47,3.47,0,0,0,4.26,2.44h0l8.18-2.22"/><path class="cls-83" d="M357.33,238.18l8.18-2.22a3.47,3.47,0,0,0,2.44-4.26h0l3.3,12.17a3.65,3.65,0,0,1-2.57,4.48L266.41,276.13a3.65,3.65,0,0,1-4.48-2.57l-3.3-12.17a3.47,3.47,0,0,0,4.26,2.44h0l8.18-2.22"/><path class="cls-5" d="M370.29,240.34l1,3.53a3.65,3.65,0,0,1-2.57,4.48L266.41,276.13a3.65,3.65,0,0,1-4.48-2.57L261,270a3.65,3.65,0,0,0,4.48,2.57l102.27-27.77A3.65,3.65,0,0,0,370.29,240.34Z"/><path class="cls-84" d="M365.51,236,262.88,263.83A3.45,3.45,0,0,1,259.6,258c45.58-45.23,42.48-42.7,45-43.39s-1.17-1.24,60.78,14.66a3.45,3.45,0,0,1,.11,6.67Z"/><path class="cls-85" d="M296.56,254.68l.71,0c-8.31,9.36-28.28,10.9-32.34,2.1l5.1-10,25.74-8.88C296.63,256.33,296.55,254.14,296.56,254.68Z"/><path class="cls-86" d="M340.87,227.51c-2.69,5-7.59,13.89-9.75,17.79-.22.38-15.66,9.61-24.79,10.52-6,.57-12-2.21-17.38-4.94,2.57-17.19,1.29-8.62,2.34-15.59Z"/><path class="cls-87" d="M358.93,226.39c1.07,3.93,2,5.76.1,9.44-6.88,12.94-34.57,14.23-34.61,2.07l2.3-4.66Z"/><path class="cls-19" d="M289,250.88s2.55,1.3,5.07,2.41c-7.53,3.37-10-.88-14.08.23s-3.59,5.31-11.54,6.92a8.4,8.4,0,0,1-3.47-3.7l5.1-10,20.55-7.09Z"/><path class="cls-45" d="M340.87,227.51l-1.63,3.07-12.53,2.66-2.32,4.57a6.52,6.52,0,0,0,.23,1.68c.8,3,1.85,1.39-.95,2.15-3.67,1-3.66,4.78-10,6.5s-8.13-1.58-11.89-.56c-3.33.9-3.49,3.81-7.78,5.71-2.52-1.11-5.07-2.41-5.07-2.41,1.92-12.81,1.55-10.46,2-13.6C312.18,231.51,301.21,233.73,340.87,227.51Z"/><path class="cls-19" d="M326.71,233.24l-2.32,4.57a6.61,6.61,0,0,0,1.09,3.6c1.67,0,3.57,1.43,7.07,1.28,8.34-.51,9-5.92,13-7s6.32,2.83,13.49.12c1.92-3.59.94-5.4-.1-9.44Z"/><path class="cls-88" d="M364.29,227.09c-3.15,1.71-3.22,4.4-7.82,5.65-5.47,1.48-6.42-2-11.89-.56s-4.51,5-10,6.5-6.41-2-11.87-.56-4.51,5-10,6.5-6.42-2-11.89-.56-4.51,5-10,6.5-6.42-2-11.89-.56-4.51,5-10,6.5c-4.58,1.24-6-1-9.57-.92a2.91,2.91,0,0,1-1-5.69L362.24,221.7a2.91,2.91,0,0,1,2.05,5.39Z"/><path class="cls-89" d="M358.32,209.51,255.7,237.38a3.45,3.45,0,0,1-3.28-5.81c45.58-45.23,42.48-42.7,45-43.39s-1.17-1.24,60.78,14.66a3.45,3.45,0,0,1,.11,6.67Z"/><path class="cls-90" d="M360.76,205.25l3.3,12.17a3.65,3.65,0,0,1-2.57,4.48L259.23,249.68a3.65,3.65,0,0,1-4.48-2.57l-3.3-12.17a3.47,3.47,0,0,0,4.26,2.44l102.62-27.87a3.47,3.47,0,0,0,2.44-4.26Z"/><path class="cls-5" d="M363.11,213.89l1,3.53a3.65,3.65,0,0,1-2.57,4.48L259.23,249.68a3.65,3.65,0,0,1-4.48-2.57l-1-3.53a3.65,3.65,0,0,0,4.48,2.57l102.27-27.77A3.65,3.65,0,0,0,363.11,213.89Z"/><path class="cls-10" d="M362.53,204.77a5.26,5.26,0,0,0-3.79-3.72L301.4,186.33a8.93,8.93,0,0,0-8.32,2.26l-42,41.7a5.26,5.26,0,0,0-1.39,5.13c3.54,13,3.28,13.61,5.38,15.14a4.66,4.66,0,0,0,2.85,6.61,5.23,5.23,0,0,0-1.05,4.7l3.3,12.17a5.48,5.48,0,0,0,6.73,3.85l102.27-27.77a5.48,5.48,0,0,0,3.85-6.73l-3.3-12.17a5.19,5.19,0,0,0-3.28-3.52,4.66,4.66,0,0,0-.88-7.14C366.58,218.18,366.06,217.77,362.53,204.77Zm.19,18.69a1.06,1.06,0,1,1,.7,2h0c-3.68,2-3.37,4.4-7.42,5.5-4.57,1.24-6-2.16-11.89-.56s-5.39,5.25-10,6.5-5.88-2.19-11.87-.56-5.41,5.26-10,6.5-6-2.17-11.89-.56-5.37,5.25-10,6.5-6-2.17-11.89-.56-5.37,5.25-10,6.5c-4,1.09-5-1.14-9.15-1a1.06,1.06,0,0,1-.41-2.08h0ZM365,231a1.63,1.63,0,0,1,0,3.16l-3.7,1a9.83,9.83,0,0,0,.7-3.56l1.05-1.14Zm-104.21,28.3c1.86-1.85,1-1.55,3-1a9.83,9.83,0,0,0,2.4,2.72l-3.79,1a1.64,1.64,0,0,1-1.59-2.73Zm8-.9c6.57-1.4,6-5.41,10.68-6.69,4-1.09,5,1.1,9.13,1a53.26,53.26,0,0,0,5.3,2.5C286.32,261.38,274.18,262.28,268.79,258.44Zm25.14-7.11c3.65-2,3.41-4.39,7.41-5.48,4.57-1.24,6,2.17,11.89.56s5.43-5.09,9.62-6.4a9.67,9.67,0,0,0,4.33,5.55c-19.05,11-25.15,9.37-33.26,5.74Zm32.83-11.58c2.08.49,4.11,1.84,8.31.7,6-1.62,5.39-5.25,10-6.5s6.22,2.46,12.63.36c-4.76,10.76-27.41,13.56-31.1,5.45Zm-72.23-.42c1.55.07,104.67-28.12,105.43-28.54s.07-1.27,2.35,7.11a1.83,1.83,0,0,1-1.28,2.24L258.75,247.91a1.83,1.83,0,0,1-2.24-1.28Zm-.9-6.44c45.71-45.22,42.42-42.44,44.29-42.94s-2.54-1.34,59.92,14.64a1.63,1.63,0,0,1,0,3.16L255.22,235.62a1.64,1.64,0,0,1-1.59-2.73Zm115.86,11.46a1.83,1.83,0,0,1-1.28,2.24L265.93,274.36a1.83,1.83,0,0,1-2.24-1.28l-2-7.3c1.09,0,1.53-.15,9.39-2.29a29.12,29.12,0,0,0,26.72-6.88,21.47,21.47,0,0,0,13,.26,88.29,88.29,0,0,0,20.47-9.53c8.61,2.43,20.63-.72,26.95-7.51,8.66-2.35,8.08-2.19,8.9-2.59C367.65,237,367.21,236,369.49,244.35Z"/></g><g id="Sapgetti"><path class="cls-91" d="M1650.37,574.55a21.64,21.64,0,0,0-2.67,7.31l-33.25-5.79a7.31,7.31,0,0,1,8.75-9.61A21.94,21.94,0,0,1,1650.37,574.55Z"/><path class="cls-92" d="M1690.93,589.39l-43.22-7.53a21.94,21.94,0,0,1,19.85-18.08h0a21.94,21.94,0,0,1,23.37,25.62Z"/><path class="cls-93" d="M1633.63,564.69a21.37,21.37,0,0,0-10.44,1.89,7.31,7.31,0,0,0-8.75,9.61l-22.58-3.94C1593.76,550.06,1624.11,544.59,1633.63,564.69Z"/><path class="cls-94" d="M1667.56,563.76a22.12,22.12,0,0,0-17.15,10.8,21.7,21.7,0,0,0-16.75-9.86,21.94,21.94,0,0,0-8.71-9.52,21.94,21.94,0,0,1,35.11-.65,7.31,7.31,0,0,1,7.5,9.23Z"/><path class="cls-95" d="M1715.35,501.24c-.52-2.69-3-2.75-5-3.1-52.84-9.21-50.29-8.39-50.75-9.62-.65-1.91-2-5.13-3.94-5.48l-27-4.71a1.83,1.83,0,0,0-.63,3.6l19.81,3.45a1.83,1.83,0,0,1-.63,3.6l-19.81-3.45a1.83,1.83,0,1,0-.63,3.6l19.81,3.45a1.83,1.83,0,1,1-.63,3.6l-19.81-3.45a1.83,1.83,0,0,0-.63,3.6l27,4.71c2,.35,4.31-2.24,5.56-3.82.84-1-2.53-1.22,53.26,8.5a3.66,3.66,0,0,0,4-4.5Z"/><path class="cls-96" d="M1628.79,551a21,21,0,0,0-3.87,4.13,21.94,21.94,0,0,0-10.61-3,7.31,7.31,0,0,1,14.52-1.73q0,.28,0,.55Z"/><path class="cls-97" d="M1667.56,563.76a23,23,0,0,0-10.22,3.51,14.41,14.41,0,0,0-3.39-8.64C1657.66,550.82,1669.81,555,1667.56,563.76Z"/><path class="cls-98" d="M1697.26,592.35a19.27,19.27,0,0,1-20.1,9.49l-74.74-13a19.29,19.29,0,0,1-15.7-15.73A20,20,0,0,0,1601.84,585L1679,598.45A20.11,20.11,0,0,0,1697.26,592.35Z"/><path class="cls-99" d="M1626.92,578.24l-12.46-2.17a7.31,7.31,0,1,1,12.46,2.17Z"/><path class="cls-100" d="M1698.13,590.65a19.32,19.32,0,0,1-21,11.19l-74.74-13a19.32,19.32,0,0,1-15.95-17.63Z"/><path class="cls-10" d="M1698.45,588.85l-5.4-.94A23.77,23.77,0,0,0,1671.62,562q-.94-.09-1.88-.1a9.14,9.14,0,0,0-8.73-9.19,23.66,23.66,0,0,0-25.5-7.36l8-45.89,9,1.57a5.48,5.48,0,0,0,5.25-2,1.7,1.7,0,0,1,1.61-.5c53.52,9.33,51.15,9.55,53.67,7.74a5.48,5.48,0,0,0-2.39-9.94c-53.7-9.36-50.29-8.43-50.75-9.62a5.48,5.48,0,0,0-4.26-3.67l-9-1.57a1.83,1.83,0,1,0-3.6-.63l-3.6-.63a1.83,1.83,0,1,0-3.6-.63l-3.6-.63a2.89,2.89,0,1,0-4.23,3l-.63,3.6a1.83,1.83,0,1,0-.63,3.6l-.63,3.6a1.83,1.83,0,0,0-.63,3.6l-8.16,46.83a9,9,0,0,0-5,7.19,23.77,23.77,0,0,0-22,19.66l-3.6-.63a1.83,1.83,0,0,0-2.19,1.92,21.1,21.1,0,0,0,17.51,19.31l74.74,13a21.1,21.1,0,0,0,23-12.25,1.83,1.83,0,0,0-1.41-2.55Zm-9-1.57-3.6-.63a16.45,16.45,0,0,0-32.2-5.61l-3.6-.63a20.11,20.11,0,0,1,39.41,6.87Zm-11-1.91a9.14,9.14,0,0,0-17.65-3.08l-3.6-.63a12.8,12.8,0,0,1,24.93,4.34Zm-3.75-.65-10.16-1.77a5.48,5.48,0,0,1,10.16,1.77ZM1616,574.47a5.48,5.48,0,1,1,10.09,1.76Zm-14.77-2.57a12.8,12.8,0,0,1,21.06-7.46,11.85,11.85,0,0,0-17.46,8.09Zm31.63-12a12.8,12.8,0,0,1,22.51,6.58,25.59,25.59,0,0,0-3.67,3.28,9.14,9.14,0,0,0-16.61-6.81C1634.45,562.85,1634.81,562.58,1632.83,559.91Zm15.25,9.15a23.77,23.77,0,0,0-9-5.27,5.48,5.48,0,0,1,9,5.27Zm.16,5.59a23.18,23.18,0,0,0-1.65,4.15,16.45,16.45,0,0,0-16.76-8.6,9,9,0,0,0-2.17-3.29,19.94,19.94,0,0,1,20.56,7.78Zm-39.84-1.51a5.48,5.48,0,0,1,5.23-4.54,9.14,9.14,0,0,0-1.31,3.37C1611.92,574.25,1613.15,574,1608.4,573.15Zm22,.7a12.8,12.8,0,0,1,12.08,5.24l-12.61-2.2A7.4,7.4,0,0,0,1630.42,573.86Zm35.45-11.75a23.77,23.77,0,0,0-7.17,2.26,16.45,16.45,0,0,0-2.69-5.87,5.48,5.48,0,0,1,10,3.63Zm-9.28-8.6a9.14,9.14,0,0,0-3,2.23,16.45,16.45,0,0,0-23.23,1.33l0,0a21.61,21.61,0,0,0-2.8-2.34,20.11,20.11,0,0,1,28.38-1.87q.36.32.71.65ZM1631.51,547c-2.71,1.38-.49,1.12-3.37-2l8.17-46.86,3.6.63Zm16.31-61.66a1.83,1.83,0,0,1-.63,3.6l-1.8-.31.63-3.6Zm-1.26,7.2a1.83,1.83,0,1,1-.63,3.6l-1.8-.31.63-3.6Zm-6,2.66-3.6-.63.63-3.6,3.6.63Zm15.91-7.38a5.28,5.28,0,0,0,4.19,3.46l49.4,8.61a1.83,1.83,0,0,1,.9,3.33c-.89.66,2.5,1-50.93-8.34a5.28,5.28,0,0,0-5.11,1.84,1.83,1.83,0,0,1-1.75.68c-3.17-.55-1.88.14-1.49-2.11a5.48,5.48,0,0,0-.78-3.85,5.48,5.48,0,0,0,2-3.36c.4-2.27-1-2,2.11-1.49A1.83,1.83,0,0,1,1656.44,487.87Zm-14-3.43-.63,3.6-3.6-.63.63-3.6Zm-10.81-1.88,3.6.63-.63,3.6-3.6-.63Zm-1.26,7.2,3.6.63-.63,3.6-3.6-.63Zm-1.26,7.2,3.6.63-7.88,45.22a8.79,8.79,0,0,0-3.6-.63Zm-13,53.4a5.48,5.48,0,0,1,10.78,0,22.78,22.78,0,0,0-2.45,2.54C1619.08,550.21,1616,550.73,1616.08,550.37Zm14.36,12.49a22.71,22.71,0,0,0-4.06.63,16.45,16.45,0,0,0-28.78,7.79l-3.6-.63a20.11,20.11,0,0,1,36.45-7.79Zm47,37.18-74.74-13a17.46,17.46,0,0,1-14.11-13.59L1695.35,592A17.46,17.46,0,0,1,1677.48,600Z"/></g><g id="Steak"><circle class="cls-101" cx="675" cy="662" r="51.34"/><circle class="cls-98" cx="675" cy="662" r="31.47"/><path class="cls-102" d="M683.41,681.13c-10.3-1.87-5-12-5-18.85,0-7.67-11.38-11.86-7.67-23,1.19-3.79,4.22-8.76,17.47-8.76,11.59,0,18.22,8.28,19.88,21.53C709.68,664.57,700.82,684.24,683.41,681.13Z"/><path class="cls-2" d="M678.31,660.94c-1.08-6.24-9.34-10.38-8.15-19C671.24,650,679.27,652.44,678.31,660.94Z"/><path class="cls-2" d="M683.41,681.13c-5.25-.91-6.76-4.06-6.28-9.19.41,3.53,2.75,5.25,6.28,5.9,14.59,2.62,23.92-10.93,24.84-24.63C709.1,666.11,700.11,684.13,683.41,681.13Z"/><path class="cls-2" d="M677.14,671.94c-.43-3.31.73-7.39,1.09-11C678.79,663.36,677.45,668.38,677.14,671.94Z"/><path class="cls-103" d="M665.49,652.06c-15.22,4,22.14-5.73-24,6.28l-1.66-6.41,24-6.28Z"/><path class="cls-104" d="M668.38,642.13v6.63h-3.76l-.79-3c-13.93,3.64-9.36,3-20.29,3v-6.62Z"/><path class="cls-105" d="M673.77,657l-1.66,6.39c-27.16-7.35-23.9-6.33-23.9-6.82,12.37-3.23,12.09-3.2,12.26-3.2Z"/><circle class="cls-106" cx="650.98" cy="671.11" r="9.11"/><path class="cls-107" d="M673.34,674.42a9.11,9.11,0,0,1-17.19,4.14A9.11,9.11,0,0,0,659.07,667a9.13,9.13,0,0,1,14.28,7.45Z"/><path class="cls-108" d="M666.72,695.13a35.29,35.29,0,0,1,1.94-12.75,9,9,0,0,0,4.37-5.61,6.41,6.41,0,0,1,4.24-.71c.56,2.47,2.24,4.37,6.14,5.08C684.44,687.32,674.65,696.45,666.72,695.13Z"/><path class="cls-109" d="M685.45,698.22a39.35,39.35,0,0,1-5.13-9.16,10.32,10.32,0,0,0,3.1-7.93,19.3,19.3,0,0,0,9.26-.53C694.11,686.36,691.2,695.39,685.45,698.22Z"/><path class="cls-10" d="M675,609a53,53,0,1,0,53,53A53,53,0,0,0,675,609Zm0,102.69A49.69,49.69,0,1,1,724.69,662,49.69,49.69,0,0,1,675,711.69Z"/><path class="cls-10" d="M709.78,651.86c-2.14-17-11.73-25.56-28.65-22.39a33,33,0,0,0-31.27,11h-6.33a1.66,1.66,0,0,0-1.66,1.66c0,7.22-.12,6.91.31,7.54-5.15,1.34-4.64.36-2.34,9.16a1.66,1.66,0,0,0,2,1.19h0c.25,0-.26.94.17,5.12a10.75,10.75,0,0,0,6.24,16.38,32.94,32.94,0,0,0,16.78,12.06c0,1.26-.28,2.91,1.34,3.2a14.28,14.28,0,0,0,8.71-1.66c8.28,0,4.17-2.55,9,4.07,1.92,2.67,7.87-3.11,9.79-9.94a33,33,0,0,0,14-23.19A34.22,34.22,0,0,0,709.78,651.86Zm-3.31.4c1.37,11.1-6,27.53-19.18,27.53-9.13,0-9.31-3.61-8-11.59,1.23-7.25,1.16-8.89-3.53-15.2-2.82-3.78-5.47-7.35-3.54-13.13.78-2.32,2.55-7.67,16-7.67C701.25,632.19,705.34,643.1,706.47,652.26Zm-46.06,2.92,11.28,3.06-.86,3.2-16.88-4.59Zm6.13-1.77c.93-.76.61-1.52.22-3,1.66,0,2.4.17,3-.78a32.51,32.51,0,0,0,3.4,5.28C673.49,655.38,674.49,655.56,666.54,653.4Zm7.34-21.22a12.69,12.69,0,0,0-5.22,8.28c-.48-.08,1.66,0-14.24,0A29.55,29.55,0,0,1,673.87,632.19Zm-28.69,11.59h21.53v3.31h-.83l-.46-1.79a1.66,1.66,0,0,0-2-1.19h0c-13.68,3.58-9.64,3-18.22,3Zm-3.31,9.39,20.84-5.43.83,3.21-20.9,5.43Zm5.73,5.37c.46.15.1,0,24.08,6.53a1.66,1.66,0,0,0,1.26-.15c.81-.48.68-.66,2.39-7,2,3.21,1.66,4.84.81,9.64-1.29,7.65-.18,6.63-1.08,6.81a10.77,10.77,0,0,0-15.39-9.69,10.7,10.7,0,0,0-14.49-2.7,26.17,26.17,0,0,1,.17-2.95ZM658.4,679a10.72,10.72,0,0,0,2.83-11.31A7.44,7.44,0,1,1,658.4,679Zm-14.87-7.85a7.45,7.45,0,1,1,7.45,7.45A7.45,7.45,0,0,1,643.53,671.11Zm9.16,10.62a10,10,0,0,0,2.9-.91,10.72,10.72,0,0,0,8.65,4.37c2.87,0,1.66-1.66,1.06,5A29.81,29.81,0,0,1,652.69,681.73ZM670,683.53a10.7,10.7,0,0,0,4.36-5.53,4.49,4.49,0,0,1,1.66-.33,7.83,7.83,0,0,0,5.75,4.82c-.36,4.64-7.15,11.08-13.42,11.16A33,33,0,0,1,670,683.53Zm15.88,12.52a38.09,38.09,0,0,1-3.69-6.62,13,13,0,0,0,2.87-6.34,20.32,20.32,0,0,0,6.24-.33c.38,4.49-1.72,10.53-5.42,13.25Zm8.74-11.59a16.38,16.38,0,0,0-.12-2.73,19.88,19.88,0,0,0,5.45-3.44,29.58,29.58,0,0,1-5.33,6.09Z"/><path class="cls-10" d="M678.66,650.75l.89-.91L683,653.3,681.28,655a1.66,1.66,0,1,0,2.35,2.35h0l1.66-1.74,3.46,3.46L687,660.69a1.66,1.66,0,0,0,2.35,2.35L691,661.3l3.46,3.46L691,668.23l-5.45-5.47a1.71,1.71,0,0,0-2.29,2.55l5.47,5.45-3.4,3.31a1.66,1.66,0,0,0,1.24,2.83c.86,0,.86-.17,4.55-3.88,1,1,1.28,1.39,2.07,1.39a1.66,1.66,0,0,0,1.18-2.83l-.91-.89,3.46-3.46c.58.58.89,1,1.66,1a1.66,1.66,0,0,0,1.24-2.9l-.5-.48,1.74-1.66a1.66,1.66,0,0,0-2.35-2.35h0l-1.66,1.74-3.46-3.46,3.46-3.46,1.66,1.74a1.66,1.66,0,1,0,2.35-2.35h0l-1.74-1.66,3.4-3.31a1.66,1.66,0,0,0-2.35-2.35l-3.31,3.4-3.46-3.46,3.46-3.46c2,2,2.38,2.63,3.31,2.63a1.66,1.66,0,0,0,1.11-3c-2.3-2.3-2.24-2-2.07-2.2a1.66,1.66,0,0,0-2.35-2.35h0c-.17.17.1.25-2.2-2.07a1.66,1.66,0,0,0-2.35,2.35l2.15,2.14-3.46,3.46-3.46-3.46,2.57-2.55a1.66,1.66,0,0,0-2.35-2.35h0l-2.55,2.57-3.79-3.81a1.66,1.66,0,0,0-2.35,2.35l3.81,3.79-3.46,3.46-.48-.5a1.76,1.76,0,0,0-2.48,2.48l.5.48-.91.89a1.66,1.66,0,1,0,2.42,2.29Zm15.95,2.55-3.46,3.46-3.46-3.46,3.46-3.46ZM685.35,644l3.46,3.46L685.35,651l-3.46-3.46Z"/></g></svg>