<svg id="Layer_1" data-name="Layer 1" xmlns="http://www.w3.org/2000/svg" viewBox="0 0 86.67 135.31"><defs><style>.cls-1{fill:#fff;}</style></defs><title>help</title><path class="cls-1" d="M592.7,633.25q11.7,9.62,11.69,28.15,0,15.25-10.31,24.6t-26.94,9.7l-1,12.3h-34l-1-36.73h14.55q10.22,0,15.68-2.25t5.46-7.28a7.36,7.36,0,0,0-1.65-5.11,5.67,5.67,0,0,0-4.42-1.82,6,6,0,0,0-5.11,2.17,9.05,9.05,0,0,0-1.65,5.63H517.77A36.71,36.71,0,0,1,522,643a34.43,34.43,0,0,1,14.81-14.12q10-5.28,24.95-5.28Q581,623.63,592.7,633.25ZM533.54,753.57a17.28,17.28,0,0,1-6.06-13.51,17.73,17.73,0,0,1,6.06-13.77q6.06-5.46,16.11-5.46,9.87,0,15.94,5.46a17.74,17.74,0,0,1,6.06,13.77,17.28,17.28,0,0,1-6.06,13.51q-6.07,5.37-15.94,5.37Q539.6,758.94,533.54,753.57Z" transform="translate(-517.72 -623.63)"/></svg>